<svg enable-background="new 0 0 24 24" height="512" viewBox="0 0 24 24" width="512" xmlns="http://www.w3.org/2000/svg"><g id="color"><g><g><path d="m21 4.505v4.653l-9-3.33-9 3.33v-4.653c0-.279.18-.531.441-.63l8.325-3.078c.153-.063.315-.063.468 0l8.325 3.078c.261.099.441.351.441.63z" fill="#1976d2"/></g></g><g><g><path d="m21 8.971v3.464c0 8.199-8.739 10.602-8.829 10.629-.054.009-.117.018-.171.018s-.117-.009-.171-.018c-.09-.027-8.829-2.43-8.829-10.629v-3.464l9-3.33z" fill="#2196f3"/></g></g><g><g><path d="m16.423 12.903c-.072-.216-.259-.373-.484-.408l-2.338-.358-1.051-2.24c-.199-.426-.9-.426-1.1 0l-1.051 2.24-2.338.358c-.225.034-.412.192-.484.408-.073.216-.018.454.141.617l1.71 1.752-.405 2.481c-.037.229.059.46.25.594s.441.147.644.035l2.083-1.152 2.084 1.152c.092.051.193.076.294.076.123 0 .245-.037.35-.111.191-.134.287-.365.25-.594l-.405-2.481 1.71-1.752c.159-.163.213-.402.14-.617z" fill="#fafafa"/></g></g></g><g id="_x31_.5"><g><g><path d="m12 24c-.064 0-.129-.008-.191-.025-.099-.026-9.809-2.699-9.809-11.8v-8.001c0-.314.195-.594.489-.703l9.25-3.424c.168-.062.354-.062.521 0l9.25 3.424c.295.109.49.389.49.703v8.001c0 9.102-9.71 11.774-9.809 11.8-.062.017-.127.025-.191.025zm-8.5-19.304v7.479c0 7.297 7.231 9.894 8.503 10.294 1.32-.402 8.497-2.93 8.497-10.294v-7.479l-8.5-3.146z"/></g></g><g><g><path d="m21.25 9.815c-.087 0-.175-.015-.261-.047l-8.989-3.327-8.989 3.328c-.386.146-.821-.054-.964-.443-.144-.388.055-.82.442-.963l9.25-3.424c.168-.062.354-.062.521 0l9.25 3.424c.388.144.586.575.442.963-.11.302-.397.489-.702.489z"/></g></g><g><g><path d="m14.936 19.5c-.125 0-.25-.031-.363-.094l-2.573-1.422-2.572 1.422c-.251.139-.561.123-.795-.043-.235-.166-.354-.451-.309-.734l.5-3.063-2.111-2.163c-.196-.201-.264-.496-.174-.762.089-.267.319-.461.598-.503l2.887-.441 1.298-2.765c.246-.526 1.111-.526 1.357 0l1.298 2.765 2.887.441c.278.042.509.237.598.503.09.266.022.561-.174.762l-2.111 2.163.5 3.063c.046.283-.073.568-.309.734-.13.091-.281.137-.432.137zm-2.936-3.123c.125 0 .25.031.363.094l1.583.875-.312-1.913c-.038-.235.037-.474.203-.645l1.356-1.389-1.84-.282c-.247-.038-.459-.196-.565-.422l-.788-1.68-.789 1.681c-.106.226-.318.385-.565.422l-1.84.282 1.356 1.389c.166.17.241.41.203.645l-.312 1.913 1.583-.875c.114-.064.239-.095.364-.095z"/></g></g></g></svg>