<?xml version="1.0" encoding="iso-8859-1"?>
<!-- Generator: Adobe Illustrator 19.0.0, SVG Export Plug-In . SVG Version: 6.00 Build 0)  -->
<svg version="1.1" id="Layer_1" xmlns="http://www.w3.org/2000/svg" xmlns:xlink="http://www.w3.org/1999/xlink" x="0px" y="0px"
	 viewBox="0 0 512.002 512.002" style="enable-background:new 0 0 512.002 512.002;" xml:space="preserve">
<path style="fill:#E2E5E7;" d="M119.287,388.062c-4.552-2.96-7.288-8.016-7.28-13.439V31.999h287.987v342.624
	c0.008,5.424-2.728,10.48-7.28,13.439l-136.714,88.796L119.287,388.062z"/>
<path style="fill:#D1D9E1;" d="M387.995,103.995c-6.624,0-11.999,5.376-11.999,11.999v73.197c0,5.968-4.832,10.799-10.799,10.799
	c-0.024,0-0.056,0-0.08,0h-1.12c-6.584-0.048-11.951,5.256-11.999,11.839c0,0.024,0,0.056,0,0.08v73.277
	c0,5.968-4.832,10.799-10.799,10.799c-0.024,0-0.056,0-0.08,0h-1.04c-6.624-0.048-12.031,5.296-12.079,11.919
	c0,0.024,0,0.056,0,0.08v35.998c-0.056,35.566-18.119,68.693-47.998,87.996l0,0c-15.015,9.88-24.039,26.663-23.999,44.638
	l136.714-88.556c4.168-2.68,6.856-7.144,7.28-12.079l0,0V103.995H387.995z"/>
<path style="fill:#F1F2F2;" d="M112.008,31.999v231.989h11.999c6.624,0,11.999-5.376,11.999-11.999l0,0v-81.196
	c0.16-6.136,5.272-10.983,11.415-10.815c0.144,0,0.288,0.008,0.424,0.016l0,0c6.624,0.088,12.071-5.216,12.159-11.839
	c0-0.056,0-0.104,0-0.16V87.996c0-17.671,14.327-31.999,31.998-31.999h151.993c13.255,0,23.999-10.743,23.999-23.999H112.008z"/>
<path style="fill:#D1D9E1;" d="M311.278,220.71c-1.288-2.864-4.136-4.712-7.28-4.72H285.52l10.48-46.238
	c0.928-4.32-1.824-8.576-6.144-9.504c-2.8-0.6-5.704,0.336-7.616,2.464l-63.997,71.997c-2.92,3.32-2.592,8.376,0.72,11.287
	c1.4,1.232,3.176,1.936,5.04,1.992h18.479l-10.479,46.238c-0.928,4.32,1.824,8.576,6.144,9.504c2.8,0.6,5.704-0.336,7.616-2.464
	l63.997-71.997C311.902,226.965,312.494,223.614,311.278,220.71z"/>
<g>
	<circle style="fill:#EE2C39;" cx="335.981" cy="255.988" r="8"/>
	<circle style="fill:#EE2C39;" cx="335.981" cy="223.99" r="8"/>
	<circle style="fill:#EE2C39;" cx="175.989" cy="255.988" r="8"/>
	<circle style="fill:#EE2C39;" cx="175.989" cy="223.99" r="8"/>
	<circle style="fill:#EE2C39;" cx="335.981" cy="191.991" r="8"/>
	<circle style="fill:#EE2C39;" cx="175.989" cy="191.991" r="8"/>
</g>
<path style="fill:#2D4961;" d="M399.994,0H112.008C94.337,0,80.009,14.327,80.009,31.999v342.624
	c0.08,16.159,8.288,31.191,21.839,39.998l145.433,94.796c5.304,3.448,12.135,3.448,17.439,0l145.433-94.556
	c13.551-8.808,21.759-23.839,21.839-39.998V31.999C431.993,14.327,417.665,0,399.994,0z M399.994,68.477
	c-6.872-6.24-15.399-10.352-24.559-11.839c-1.496-9.2-5.64-17.759-11.919-24.639h36.478V68.477z M148.486,31.999
	c-6.264,6.864-10.408,15.391-11.919,24.559c-9.168,1.512-17.695,5.656-24.559,11.919V31.999H148.486z M256.001,476.858
	l-26.479-17.199c11.047-4.6,20.327-12.623,26.479-22.879c6.152,10.256,15.431,18.279,26.479,22.879L256.001,476.858z
	 M399.994,374.622c0.008,5.424-2.728,10.48-7.28,13.439l-91.756,59.917c-20.895-1.592-37.022-19.039-36.958-39.998
	c0-4.416-3.584-8-8-8s-8,3.584-8,8c0.064,20.959-16.063,38.406-36.958,39.998l-91.756-59.917c-4.552-2.96-7.288-8.016-7.28-13.439
	V103.995c0-17.671,14.327-31.998,31.998-31.998c4.416,0,8-3.584,8-8c0-17.671,14.327-31.999,31.999-31.999h143.993
	c17.671,0,31.999,14.327,31.999,31.999c0,4.416,3.584,8,8,8c17.671,0,31.999,14.327,31.999,31.998L399.994,374.622L399.994,374.622z
	"/>
<path style="fill:#123247;" d="M410.154,414.861c13.551-8.808,21.759-23.839,21.839-39.998V55.997l0,0
	c-8.84,0-15.999,7.16-15.999,15.999v304.466c0,8.04-4.024,15.551-10.719,19.999L269.28,487.097
	c-8.304,5.56-13.287,14.887-13.279,24.879l0,0c3.096,0.008,6.12-0.88,8.72-2.56L410.154,414.861z"/>
<g>
	<circle style="fill:#2E485D;" cx="255.985" cy="375.982" r="8"/>
	<circle style="fill:#2E485D;" cx="159.99" cy="79.996" r="8"/>
	<circle style="fill:#2E485D;" cx="351.981" cy="79.996" r="8"/>
</g>
<path style="fill:#44637F;" d="M80.009,31.999v271.987l0,0c8.84,0,15.999-7.16,15.999-15.999V31.999
	c0-8.84,7.16-15.999,15.999-15.999h271.987c8.84,0,15.999-7.16,15.999-15.999H112.008C94.329,0,80.009,14.327,80.009,31.999z"/>
<g>
	<circle style="fill:#2E485D;" cx="327.982" cy="103.995" r="8"/>
	<circle style="fill:#2E485D;" cx="183.988" cy="103.995" r="8"/>
	<circle style="fill:#2E485D;" cx="255.985" cy="343.984" r="8"/>
	<path style="fill:#2E485D;" d="M303.279,212.71c-1.288-2.864-4.136-4.712-7.28-4.72H277.52L288,161.752
		c0.928-4.32-1.824-8.576-6.144-9.504c-2.8-0.6-5.704,0.336-7.616,2.464l-63.997,71.997c-2.92,3.32-2.592,8.376,0.72,11.287
		c1.4,1.232,3.176,1.936,5.04,1.992h18.479l-10.48,46.238c-0.928,4.32,1.824,8.576,6.144,9.504c2.8,0.6,5.704-0.336,7.616-2.464
		l63.997-71.997C303.903,218.966,304.495,215.614,303.279,212.71z"/>
</g>
<g>
	<path style="fill:#123247;" d="M303.279,212.71c-1.288-2.864-4.136-4.712-7.28-4.72h-4.4l-61.597,69.277
		c-1.16,1.208-2.672,2.016-4.32,2.32l-1.68,6.64c-0.928,4.32,1.824,8.576,6.144,9.504c2.8,0.6,5.704-0.336,7.616-2.464
		l63.997-71.997C303.903,218.966,304.495,215.614,303.279,212.71z"/>
	<path style="fill:#123247;" d="M234.482,239.989l1.84-5.36c1.456-4.168-0.744-8.736-4.912-10.192
		c-0.84-0.296-1.72-0.448-2.608-0.448h-15.999l-2.4,2.72c-2.92,3.312-2.6,8.368,0.712,11.287c1.36,1.2,3.08,1.896,4.888,1.992
		H234.482z"/>
</g>
<g>
</g>
<g>
</g>
<g>
</g>
<g>
</g>
<g>
</g>
<g>
</g>
<g>
</g>
<g>
</g>
<g>
</g>
<g>
</g>
<g>
</g>
<g>
</g>
<g>
</g>
<g>
</g>
<g>
</g>
</svg>
