<?xml version="1.0" encoding="iso-8859-1"?>
<!-- Generator: Adobe Illustrator 19.0.0, SVG Export Plug-In . SVG Version: 6.00 Build 0)  -->
<svg version="1.1" id="Layer_1" xmlns="http://www.w3.org/2000/svg" xmlns:xlink="http://www.w3.org/1999/xlink" x="0px" y="0px"
	 viewBox="0 0 512 512" style="enable-background:new 0 0 512 512;" xml:space="preserve">
<path style="fill:#D1D9E1;" d="M388,104c-6.4,0-12,5.6-12,12v72.8c0,5.6-4.8,11.2-10.4,11.2l0,0h-0.8c-6.4,0-12,5.6-12,12l0,0v73.6
	c0,5.6-3.2,9.6-8.8,10.4c0.8-1.6,0.8-2.4,0.8-4c0-6.4-5.6-12-12-12H328v-64.8c0-3.2,1.6-6.4,4.8-8c8-2.4,12.8-12,10.4-20
	s-12-12.8-20-10.4c-7.2,1.6-11.2,8-11.2,15.2c0,3.2,0.8,5.6,2.4,8.8s1.6,6.4-0.8,8.8L302.4,224c-2.4,3.2-8,4-11.2,1.6
	c-0.8,0-0.8-0.8-1.6-1.6l-12-14.4c-2.4-2.4-2.4-6.4-0.8-8.8c1.6-2.4,2.4-5.6,2.4-8.8c0-8.8-7.2-16-16-16c-8.8,0-16,7.2-16,16
	c0,3.2,0.8,5.6,2.4,8.8c1.6,3.2,1.6,6.4-0.8,8.8L238.4,224c-2.4,3.2-8,4-11.2,1.6c-0.8,0-0.8-0.8-1.6-1.6l-12-14.4
	c-2.4-2.4-2.4-6.4-0.8-8.8c1.6-2.4,2.4-5.6,2.4-8.8c0-8.8-7.2-16-16-16s-16,7.2-16,16c0,7.2,4.8,12.8,11.2,15.2
	c3.2,1.6,5.6,4.8,4.8,8V280h-4c-6.4,0-12,5.6-12,12s5.6,12,12,12H328c0,1.6,0,2.4,0,4v36c0,35.2-18.4,68.8-48,88
	c-15.2,9.6-24,26.4-24,44.8L392.8,388c4-2.4,7.2-7.2,7.2-12l0,0V104H388z"/>
<path style="fill:#E2E5E7;" d="M119.2,388c-4.8-3.2-7.2-8-7.2-13.6V32h288v342.4c0,5.6-2.4,10.4-7.2,13.6L256,476.8L119.2,388z"/>
<path style="fill:#F1F2F2;" d="M112,32v232h12c6.4,0,12-5.6,12-12l0,0v-80.8c0-6.4,5.6-11.2,11.2-11.2c0,0,0,0,0.8,0l0,0
	c6.4,0,12-5.6,12-12l0,0V88c0-17.6,14.4-32,32-32h152c13.6,0,24-10.4,24-24H112z"/>
<path style="fill:#2D4961;" d="M400,0H112C94.4,0,80,14.4,80,32v342.4c0,16,8,31.2,21.6,40l145.6,94.4c5.6,3.2,12,3.2,17.6,0
	l145.6-94.4c13.6-8.8,21.6-24,21.6-40V32C432,14.4,417.6,0,400,0z M400,68.8c-7.2-6.4-15.2-10.4-24.8-12c-1.6-8.8-5.6-17.6-12-24.8
	H400V68.8z M148.8,32c-6.4,7.2-10.4,15.2-12,24.8c-9.6,1.6-17.6,5.6-24.8,12V32H148.8z M256,476.8l-26.4-17.6
	c11.2-4.8,20-12.8,26.4-23.2c6.4,10.4,15.2,18.4,26.4,23.2L256,476.8z M400,374.4c0,5.6-2.4,10.4-7.2,13.6l-92,60
	c-20.8-1.6-36.8-19.2-36.8-40c0-4.8-3.2-8-8-8c-4.8,0-8,3.2-8,8c0,20.8-16,38.4-36.8,40l-92-60c-4.8-3.2-7.2-8-7.2-13.6V104
	c0-17.6,14.4-32,32-32c4.8,0,8-3.2,8-8c0-17.6,14.4-32,32-32h144c17.6,0,32,14.4,32,32c0,4.8,3.2,8,8,8c17.6,0,32,14.4,32,32V374.4z
	"/>
<path style="fill:#123247;" d="M410.4,415.2c13.6-8.8,21.6-24,21.6-40V56l0,0c-8.8,0-16,7.2-16,16v304.8c0,8-4,15.2-10.4,20
	l-136,90.4c-8,5.6-13.6,15.2-13.6,24.8l0,0c3.2,0,6.4-0.8,8.8-2.4L410.4,415.2z"/>
<g>
	<circle style="fill:#2E485D;" cx="256" cy="376" r="8"/>
	<circle style="fill:#2E485D;" cx="160" cy="80" r="8"/>
	<circle style="fill:#2E485D;" cx="352" cy="80" r="8"/>
</g>
<path style="fill:#44637F;" d="M80,32v272l0,0c8.8,0,16-7.2,16-16V32c0-8.8,7.2-16,16-16h272c8.8,0,16-7.2,16-16H112
	C94.4,0,80,14.4,80,32z"/>
<g>
	<circle style="fill:#2E485D;" cx="328" cy="104" r="8"/>
	<circle style="fill:#2E485D;" cx="184" cy="104" r="8"/>
	<circle style="fill:#2E485D;" cx="256" cy="344" r="8"/>
	<path style="fill:#2E485D;" d="M320,168c-8.8,0-16,7.2-16,16c0,3.2,0.8,5.6,2.4,8.8s1.6,6.4-0.8,8.8L294.4,216
		c-2.4,3.2-8,4-11.2,1.6c-0.8,0-0.8-0.8-1.6-1.6l-12-14.4c-2.4-2.4-2.4-6.4-0.8-8.8c1.6-2.4,2.4-5.6,2.4-8.8c0-8.8-7.2-16-16-16
		c-8.8,0-16,7.2-16,16c0,3.2,0.8,5.6,2.4,8.8c1.6,3.2,1.6,6.4-0.8,8.8L230.4,216c-2.4,3.2-8,4-11.2,1.6c-0.8,0-0.8-0.8-1.6-1.6
		l-12-14.4c-2.4-2.4-2.4-6.4-0.8-8.8c1.6-2.4,2.4-5.6,2.4-8.8c0-8.8-7.2-16-16-16s-16,7.2-16,16c0,7.2,4.8,12.8,11.2,15.2
		c3.2,1.6,5.6,4.8,4.8,8V264c0,4.8,3.2,8,8,8h112c4.8,0,8-3.2,8-8v-56.8c0-3.2,1.6-6.4,4.8-8c8-3.2,12-12.8,8.8-20.8
		C331.2,172,326.4,168,320,168z"/>
</g>
<g>
	<path style="fill:#123247;" d="M296,256h-96c-4.8,0-8,3.2-8,8v8h128v-56l0,0c-8.8,0-16,7.2-16,16v16C304,252.8,300.8,256,296,256z"
		/>
	<path style="fill:#123247;" d="M248.8,191.2c-1.6,1.6-2.4,4.8,0,6.4c0.8,0.8,0.8,0.8,1.6,1.6c8,3.2,17.6-0.8,20.8-9.6
		c1.6-3.2,1.6-7.2,0-11.2c-0.8-2.4-4-4-6.4-3.2c-0.8,0-1.6,0.8-1.6,1.6L248.8,191.2z"/>
	<path style="fill:#123247;" d="M184.8,191.2c-1.6,1.6-2.4,4.8,0,6.4c0.8,0.8,0.8,0.8,1.6,1.6c8,3.2,17.6-0.8,20.8-9.6
		c1.6-3.2,1.6-7.2,0-11.2c-0.8-2.4-4-4-6.4-3.2c-0.8,0-1.6,0.8-1.6,1.6L184.8,191.2z"/>
	<path style="fill:#123247;" d="M312.8,191.2c-1.6,1.6-2.4,4.8,0,6.4c0.8,0.8,0.8,0.8,1.6,1.6c8,3.2,17.6-0.8,20.8-9.6
		c1.6-3.2,1.6-7.2,0-11.2c-0.8-2.4-4-4-6.4-3.2c-0.8,0-1.6,0.8-1.6,1.6L312.8,191.2z"/>
</g>
<path style="fill:#EE2C39;" d="M188,272h136c6.4,0,12,5.6,12,12l0,0c0,6.4-5.6,12-12,12H188c-6.4,0-12-5.6-12-12l0,0
	C176,277.6,181.6,272,188,272z"/>
<path style="fill:#CC202C;" d="M188,296h136c6.4,0,12-5.6,12-12H200C193.6,284,188,289.6,188,296L188,296z"/>
<g>
	<circle style="fill:#2E485D;" cx="352" cy="232" r="8"/>
	<circle style="fill:#2E485D;" cx="160" cy="232" r="8"/>
</g>
<g>
</g>
<g>
</g>
<g>
</g>
<g>
</g>
<g>
</g>
<g>
</g>
<g>
</g>
<g>
</g>
<g>
</g>
<g>
</g>
<g>
</g>
<g>
</g>
<g>
</g>
<g>
</g>
<g>
</g>
</svg>
