<svg id="_x33_0" enable-background="new 0 0 64 64" height="512" viewBox="0 0 64 64" width="512" xmlns="http://www.w3.org/2000/svg"><g><g><g><path d="m33 3v2c0 .55-.45 1-1 1h-1-4-1c-.55 0-1-.45-1-1v-2c0-.55.45-1 1-1h6c.55 0 1 .45 1 1z" fill="#aab2bd"/></g><g><path d="m31 6v5.45c-1.11-1.17-2.47-2.1-4-2.7v-2.75z" fill="#ccd1d9"/></g><g><path d="m18.67 58-.67 4h-16v-4h8z" fill="#aab2bd"/></g><g><path d="m62 34v2c0 .55-.45 1-1 1h-3v-4h3c.55 0 1 .45 1 1z" fill="#ccd1d9"/></g><g><path d="m52 33h6v4h-6z" fill="#aab2bd"/></g><g><path d="m48 29h3c.55 0 1 .45 1 1v3 4 1c0 .55-.45 1-1 1h-6-5v-8-2h4z" fill="#969faa"/></g><g><path d="m45 39-1 4h-4-4l-1-4h5z" fill="#ccd1d9"/></g><g><path d="m44 43v9c0 .55-.45 1-1 1h-3v-10z" fill="#aab2bd"/></g><g><path d="m40 43v10h-3c-.55 0-1-.45-1-1v-9z" fill="#aab2bd"/></g><g><path d="m40 31v8h-5-5.54-3.46v-6-5c0-.55.45-1 1-1h3v4z" fill="#aab2bd"/></g><g><path d="m40 29v2h-10v-4h4 5c.55 0 1 .45 1 1z" fill="#5cd6b3"/></g><g><path d="m34 23v4h-4-3c-.55 0-1 .45-1 1v5h-9c-.55 0-1 .45-1 1v1.15c-1.01-.74-2.23-1.15-3.52-1.15-.16 0-.32.01-.48.02 2-2 2-5.02 2-5.02h4.44c2.09 0 3.92-1.42 4.42-3.46.09-.36.14-.73.14-1.1v-3.44c0 1.1.9 2 2 2z" fill="#f0d0b4"/></g><g><path d="m23 17c0-1.1.9-2 2-2h8.25c.48 1.24.75 2.59.75 4v4h-9c-1.1 0-2-.9-2-2z" fill="#69d6f4"/></g><g><path d="m33.25 15h-8.25c-1.1 0-2 .9-2 2h-11.81c.94-5.07 5.42-9 10.81-9h1c1.41 0 2.76.27 4 .75 1.53.6 2.89 1.53 4 2.7.96 1.02 1.73 2.22 2.25 3.55z" fill="#aab2bd"/></g><g><path d="m33 42.54c0 .93-.37 1.83-1.04 2.5l-1.96 1.96-5-5 1.96-1.96c.67-.67 1.57-1.04 2.5-1.04.98 0 1.86.4 2.5 1.04s1.04 1.52 1.04 2.5z" fill="#f0d0b4"/></g><g><path d="m6.21 38.11c.62-.83 1.3-1.62 2.04-2.36 1.01-1.01 2.33-1.62 3.75-1.73.16-.01.32-.02.48-.02 1.29 0 2.51.41 3.52 1.15v1.85 1c0 .55.45 1 1 1h2.01l2.99 6 3-3 5 5-4 4-3.14 3.14c-.74.74-1.64 1.28-2.62 1.58-.4.12-.81.21-1.23.25l-.34 2.03h-8.67-8v-7.17c0-1.27.11-2.53.34-3.76.58-3.24 1.9-6.31 3.87-8.96z" fill="#48cfad"/></g><g><path d="m26 33v6h-6.99-2.01c-.55 0-1-.45-1-1v-1-1.85-1.15c0-.55.45-1 1-1z" fill="#969faa"/></g><g><path d="m23 21v3.44c0 .37-.05.74-.14 1.1-.5 2.04-2.33 3.46-4.42 3.46h-4.44-.25c-1.01 0-1.86-.74-1.98-1.74-.22-1.66-.53-4.21-.68-6.26z" fill="#aab2bd"/></g><g><path d="m23 17v4h-11.91c-.06-.76-.09-1.45-.09-2 0-.68.06-1.35.19-2z" fill="#ccd1d9"/></g></g><g><path d="m29 34h2v2h-2z"/><path d="m33 34h2v2h-2z"/><path d="m61 32h-8v-2c0-1.103-.897-2-2-2h-10c0-1.103-.897-2-2-2h-4v-7c0-3.032-1.139-5.796-3-7.911v-4.089c1.103 0 2-.897 2-2v-2c0-1.103-.897-2-2-2h-6c-1.103 0-2 .897-2 2v2c0 1.103.897 2 2 2v.395c-.961-.249-1.963-.395-3-.395h-1c-6.617 0-12 5.383-12 12 0 2.017.42 5.676.773 8.391.156 1.2 1.023 2.151 2.141 2.478-.135.848-.49 2.158-1.405 3.206-1.497.207-2.882.884-3.969 1.971-4.217 4.217-6.54 9.825-6.54 15.789v12.165h17.847l1.026-6.156c1.39-.288 2.669-.972 3.696-1.999l9.102-9.102c.857-.857 1.329-1.996 1.329-3.207 0-.939-.287-1.811-.777-2.536h.996l.781 3.123v8.877c0 1.103.897 2 2 2h6c1.103 0 2-.897 2-2v-8.877l.781-3.123h5.219c1.103 0 2-.897 2-2h8c1.103 0 2-.897 2-2v-2c0-1.103-.897-2-2-2zm-34 6v-10h2v4h10v6zm-4.725 5.311-1.653-3.311h4.964zm2.725-5.311h-8v-4h8zm14-8h-8v-2h8zm-12-4c-1.103 0-2 .897-2 2v4h-8c-.936 0-1.717.648-1.934 1.517-.385-.155-.781-.277-1.189-.36.646-1.161.923-2.348 1.038-3.157h3.524c2.557 0 4.775-1.732 5.396-4.213.109-.441.165-.895.165-1.349v-.623c.314.113.648.185 1 .185h8v2zm-15-7c0-.338.018-.671.051-1h9.949v2h-9.969c-.019-.364-.031-.707-.031-1zm21 0v3h-8c-.551 0-1-.449-1-1v-4c0-.551.449-1 1-1h7.539c.299.948.461 1.955.461 3zm-7-16h6l.001 2h-6.001zm2 4h2v2.273c-.625-.451-1.293-.842-2-1.168zm-6 2h1c3.692 0 6.915 2.016 8.647 5h-6.647c-1.302 0-2.402.839-2.816 2h-9.723c1.277-4.053 5.07-7 9.539-7zm-9.824 13h9.824v2.438c0 .291-.036.581-.106.864-.397 1.589-1.818 2.698-3.456 2.698h-4.69c-.501 0-.927-.373-.991-.867-.173-1.331-.417-3.324-.581-5.133zm-9.176 39v-2h14.486l-.333 2zm19.155-7.569c-.389.389-.839.688-1.312.937l-.895-2.684-1.897.633.876 2.629c-.186.019-.37.054-.56.054-2.16 0-4.128-1.333-4.948-3.324l2.824-.706-.485-1.94-3.072.768-1.136-2.954 3.898-1.949-.895-1.789-3.725 1.862-.895-2.327-1.866.718 3.432 8.924c1.019 2.651 3.522 4.463 6.328 4.675l-.007.042h-6.82v-2h-2v2h-6v-6.165c0-.871.074-1.729.181-2.579l3.623.725.393-1.961-3.668-.734c.563-2.47 1.572-4.804 3.007-6.9l3.018 1.509.895-1.789-2.678-1.339c.377-.448.766-.888 1.185-1.306.94-.942 2.191-1.461 3.523-1.461.898 0 1.756.25 2.521.701v.299h-3v2h3c0 1.103.897 2 2 2h1.387l2.397 4.802-2.491 2.491 1.414 1.414 5.293-5.293 3.586 3.586-2.586 2.586-1.293-1.293-1.414 1.414 1.293 1.293zm9.845-10.895c0 .677-.264 1.314-.743 1.793l-1.257 1.257-3.586-3.586 1.257-1.257c.479-.479 1.116-.743 1.793-.743 1.398 0 2.536 1.138 2.536 2.536zm5 1.464h2v8h-2zm4 8v-8h2.026l-.026 8zm2.219-10h-6.462l-.485-2h7.447zm7.781-4h-10v-8h2v6h2v-6h2v6h2v-6h2zm2-4h4v2h-4zm8 2h-2v-2h2z"/><path d="m5 51h4v2h-4z"/></g></g></svg>