<svg id="_x33_0" enable-background="new 0 0 64 64" height="512" viewBox="0 0 64 64" width="512" xmlns="http://www.w3.org/2000/svg"><g><g><g><circle cx="6" cy="4" fill="#ff826e" r="2"/></g><g><circle cx="12" cy="10" fill="#ff826e" r="2"/></g><g><path d="m30 19v3h-14v-3c0-.55.45-1 1-1h12c.55 0 1 .45 1 1z" fill="#ccd1d9"/></g><g><path d="m24.8 40 3.2 4h-26v-7c0-1.66 1.34-3 3-3h1 6 5.6c1.52 0 2.95.69 3.9 1.88z" fill="#48cfad"/></g><g><path d="m46.64 40 2.36 4h-21l-3.2-4z" fill="#5cd6b3"/></g><g><path d="m55.42 46.51.58 3.49h-5-9-12-12-13c-1.66 0-3-1.34-3-3v-3h26 21 3.46c1.47 0 2.72 1.06 2.96 2.51z" fill="#37bc9b"/></g><g><path d="m46.64 40h-21.84l-3.3-4.12c-.95-1.19-2.38-1.88-3.9-1.88h-5.6l-1-2.5c-.66-1.65-1-3.42-1-5.2 0-.85.25-1.68.72-2.38.34-.51.78-.93 1.28-1.25.68-.43 1.47-.67 2.3-.67h1.7 14 4.29c.8 0 1.56.32 2.12.88.17.17.33.37.46.59l1.49 2.53h-12.36v4h14.73z" fill="#37bc9b"/></g><g><path d="m39.61 28.11 1.12 1.89h-14.73v-4h12.36z" fill="#e6e9ed"/></g><g><path d="m55 17.22 1.66 6.24-17.05 4.65-1.25-2.11-1.49-2.53c-.13-.22-.29-.42-.46-.59z" fill="#aab2bd"/></g><g><path d="m61.92 19.71c.05.19.08.39.08.59 0 1-.67 1.88-1.64 2.15l-3.7 1.01-1.66-6.24 3.7-1.13c.2-.06.41-.09.61-.09.99 0 1.84.69 2.05 1.65z" fill="#ccd1d9"/></g><g><path d="m54 53c0-1.657-1.343-3-3-3h-46-2c-.551 0-1 .452-1 1.003.001 2.559 1.021 5.017 2.83 6.827l.67.67c2.241 2.241 5.28 3.5 8.449 3.5h31.051c2.48 0 4.74-1.01 6.36-2.64 1.63-1.62 2.64-3.88 2.64-6.36z" fill="#ccd1d9"/></g><g><circle cx="51" cy="53" fill="#838f9b" r="3"/></g><g><circle cx="8" cy="54" fill="#838f9b" r="3"/></g><g><path d="m24 56c0 3.31-2.69 6-6 6s-6-2.69-6-6 2.69-6 6-6 6 2.69 6 6z" fill="#838f9b"/></g><g><path d="m36 56c0 3.31-2.69 6-6 6s-6-2.69-6-6 2.69-6 6-6 6 2.69 6 6z" fill="#838f9b"/></g><g><path d="m42 50c3.31 0 6 2.69 6 6s-2.69 6-6 6-6-2.69-6-6 2.69-6 6-6z" fill="#838f9b"/></g><g><circle cx="18" cy="56" fill="#ccd1d9" r="2"/></g><g><circle cx="30" cy="56" fill="#ccd1d9" r="2"/></g><g><circle cx="42" cy="56" fill="#ccd1d9" r="2"/></g></g><g><path d="m42 59c1.654 0 3-1.346 3-3s-1.346-3-3-3-3 1.346-3 3 1.346 3 3 3zm0-4c.552 0 1 .448 1 1s-.448 1-1 1-1-.448-1-1 .448-1 1-1z"/><path d="m30 59c1.654 0 3-1.346 3-3s-1.346-3-3-3-3 1.346-3 3 1.346 3 3 3zm0-4c.552 0 1 .448 1 1s-.448 1-1 1-1-.448-1-1 .448-1 1-1z"/><path d="m18 59c1.654 0 3-1.346 3-3s-1.346-3-3-3-3 1.346-3 3 1.346 3 3 3zm0-4c.552 0 1 .448 1 1s-.448 1-1 1-1-.448-1-1 .448-1 1-1z"/><path d="m7 37h2v2h-2z"/><path d="m11 37h2v2h-2z"/><path d="m15 37h2v2h-2z"/><path d="m62.888 19.452-.548-2.02c-.311-1.41-1.584-2.432-3.028-2.432-.308 0-.611.045-.902.134l-21.784 6.63c-.672-.485-1.488-.764-2.338-.764h-3.288v-2c0-1.103-.897-2-2-2h-12c-1.103 0-2 .897-2 2v2h-.697c-.445 0-.882.055-1.303.162v-8.346c1.161-.414 2-1.514 2-2.816 0-1.654-1.346-3-3-3s-3 1.346-3 3c0 1.302.839 2.402 2 2.816v9.35c-.422.337-.801.733-1.109 1.196-.583.872-.891 1.89-.891 2.941 0 1.918.361 3.793 1.073 5.572l.45 1.125h-3.523v-26.184c1.161-.414 2-1.514 2-2.816 0-1.654-1.346-3-3-3s-3 1.346-3 3c0 1.302.839 2.402 2 2.816v26.184c-2.206 0-4 1.794-4 4v6 1 3c0 .902.311 1.726.817 2.396-.493.365-.817.945-.817 1.604 0 2.847 1.108 5.522 3.121 7.535l.672.672c2.446 2.446 5.698 3.793 9.157 3.793h31.05c5.514 0 10-4.486 10-10 0-.732-.212-1.409-.556-2h2.737l-.776-4.657c-.324-1.938-1.983-3.343-3.946-3.343h-2.888l-8.434-14.272 19.482-5.315c1.402-.382 2.381-1.664 2.381-3.116 0-.283-.037-.567-.112-.845zm-50.888-10.452c.552 0 1 .448 1 1s-.448 1-1 1-1-.448-1-1 .448-1 1-1zm-6-6c.552 0 1 .448 1 1s-.448 1-1 1-1-.448-1-1 .448-1 1-1zm32.975 26h-11.975v-2h10.793zm-21.975-10h12v2h-12zm-5.069 12.133c-.618-1.543-.931-3.168-.931-4.83 0-.654.191-1.288.555-1.832.613-.921 1.64-1.471 2.748-1.471h19.985c.704 0 1.364.377 1.722.982l.601 1.018h-11.611v6h15.156l4.727 8h-19.602l-2.998-3.747c-1.145-1.432-2.852-2.253-4.686-2.253h-4.919zm-8.931 5.867c0-1.103.897-2 2-2h12.597c1.223 0 2.36.547 3.123 1.502l5.199 6.498h-22.919zm0 14h2.382c-.84.734-1.382 1.799-1.382 3 0 .638.164 1.233.431 1.769-.93-1.403-1.431-3.047-1.431-4.769zm44.312.454c-.135-.157-.275-.309-.423-.454h.667c-.086.148-.177.294-.244.454zm-.312 4.546c0 2.757-2.243 5-5 5s-5-2.243-5-5 2.243-5 5-5 5 2.243 5 5zm-11-3.587c-.311-.517-.682-.994-1.111-1.413h2.221c-.428.42-.799.896-1.11 1.413zm-1 3.587c0 2.757-2.243 5-5 5s-5-2.243-5-5 2.243-5 5-5 5 2.243 5 5zm-11-3.587c-.311-.517-.682-.994-1.111-1.413h2.221c-.428.42-.799.896-1.11 1.413zm-1 3.587c0 2.757-2.243 5-5 5s-5-2.243-5-5 2.243-5 5-5 5 2.243 5 5zm-11.21-3.218c-.225-.699-.631-1.31-1.172-1.782h2.493c-.53.518-.976 1.119-1.321 1.782zm-1.79 1.218c0 1.103-.897 2-2 2s-2-.897-2-2 .897-2 2-2 2 .897 2 2zm-3.793 3.793-.641-.641c.676.523 1.514.848 2.434.848 1.217 0 2.295-.558 3.029-1.418.141 1.702.89 3.235 2.034 4.375-2.59-.207-4.998-1.306-6.856-3.164zm16.682 3.207c.429-.42.8-.896 1.111-1.413.311.517.682.994 1.111 1.413zm12 0c.429-.42.8-.896 1.111-1.413.311.517.682.994 1.111 1.413zm12.292-.31c1.035-1.142 1.696-2.624 1.797-4.258.596.352 1.281.568 2.022.568.349 0 .682-.059 1.005-.143-1.022 1.847-2.753 3.245-4.824 3.833zm5.819-7.69c0 1.103-.897 2-2 2s-2-.897-2-2 .897-2 2-2 2 .897 2 2zm1.432-6.329.387 2.329h-3.819-46c-1.103 0-2-.897-2-2v-2h49.459c.981 0 1.812.703 1.973 1.671zm-25.951-3.671-1.6-2h19.185l1.182 2zm9.528-19.566 16.291-4.959 1.142 4.277-15.36 4.19zm22.084-1.951-2.722.743-1.157-4.333 2.779-.846c.583-.178 1.257.199 1.405.862l.559 2.063c.028.107.043.216.043.325 0 .553-.373 1.041-.907 1.186z"/></g></g></svg>