<svg id="_x33_0" enable-background="new 0 0 64 64" height="512" viewBox="0 0 64 64" width="512" xmlns="http://www.w3.org/2000/svg"><g><g><g><path d="m49 54h-2-9-10-10-12.93c-.13-.29-.25-.59-.34-.9l-2.16-7.18c-.38-1.27-.57-2.59-.57-3.92h5.71l-.71 5 7-3 4 6 4-6 8 2-1-4h15 .51c.89 0 1.66.58 1.92 1.43l2 6.65c.38 1.27.57 2.59.57 3.92z" fill="#37bc9b"/></g><g><path d="m42.67 38.46 1.33 3.54h-15l-1-4 6-6 7.47-3.74c.35-.17.73-.26 1.12-.26.69 0 1.35.29 1.81.78.13.13.24.27.33.43l1.9 3.18c.05.08.1.17.14.26.15.33.23.7.23 1.06 0 .82-.37 1.59-1 2.09z" fill="#48cfad"/></g><g><path d="m36 9c0 .3-.03.59-.08.88v.12c.37-.01.76.03 1.15.11 1.89.39 3.42 1.92 3.82 3.81.67 3.24-1.78 6.08-4.89 6.08 0 3.31-2.69 6-6 6-.66 0-1.3-.11-1.89-.31l-.11.31v5l-.04.4-3.96-.4-1-7-5 3.57-2 1.43-2-1.14v-2.86c0-2.76-2.24-5-5-5h-1c-3.74 0-6.67-3.41-5.87-7.29.48-2.27 2.31-4.1 4.58-4.58 1.17-.24 2.3-.14 3.3.22v-.01c-.01-.11-.01-.22-.01-.34 0-3.31 2.69-6 6-6 1.94 0 3.66.92 4.76 2.35.88-1.41 2.45-2.35 4.24-2.35 1.78 0 3.34.93 4.22 2.33h.01l.02-.02c.55-.2 1.13-.31 1.75-.31 2.76 0 5 2.24 5 5z" fill="#ccd1d9"/></g><g><path d="m34 32-6 6 1 4 1 4-8-2-4 6-4-6-7 3 .71-5 .29-2-5-4 6-4v-7l5 2.86 2 1.14 2-1.43 5-3.57 1 7 3.96.4z" fill="#ffeaa7"/></g><g><path d="m5.07 54c.12.27.27.54.43.8l3.62 5.79c.55.88 1.51 1.41 2.54 1.41h30.34c2.69 0 4.88-2.12 4.99-4.78l.01-.22v-3z" fill="#ccd1d9"/></g><g><path d="m47 57c0 .07 0 .15-.01.22-.11 1-.97 1.78-1.99 1.78-1.1 0-2-.9-2-2s.9-2 2-2 2 .9 2 2z" fill="#838f9b"/></g><g><circle cx="11" cy="57" fill="#838f9b" r="2"/></g><g><path d="m18 54c2.21 0 4 1.79 4 4s-1.79 4-4 4-4-1.79-4-4 1.79-4 4-4z" fill="#838f9b"/></g><g><path d="m28 54c2.21 0 4 1.79 4 4s-1.79 4-4 4-4-1.79-4-4 1.79-4 4-4z" fill="#838f9b"/></g><g><path d="m38 54c2.21 0 4 1.79 4 4s-1.79 4-4 4-4-1.79-4-4 1.79-4 4-4z" fill="#838f9b"/></g><g><path d="m55.85 22.69 2.15 4.32-11.23 5.64c-.04-.09-.09-.18-.14-.26l-1.9-3.18c-.09-.16-.2-.3-.33-.43z" fill="#aab2bd"/></g><g><path d="m61.75 22.5c.17.33.25.69.25 1.05 0 .89-.5 1.7-1.29 2.1l-2.71 1.36-2.15-4.32 2.63-1.4c.34-.19.72-.29 1.12-.29.86 0 1.64.49 2.03 1.26z" fill="#ccd1d9"/></g></g><g><circle cx="18" cy="58" r="1"/><circle cx="28" cy="58" r="1"/><circle cx="38" cy="58" r="1"/><path d="m41 47h2v2h-2z"/><path d="m37 47h2v2h-2z"/><path d="m62.647 22.059-.125-.25c-.558-1.116-1.679-1.809-2.927-1.809-.561 0-1.115.145-1.583.409l-13.495 7.183c-.565-.375-1.233-.592-1.929-.592-.539 0-1.079.127-1.562.369l-7.215 3.607-4.811-.481v-3.575c.328.047.66.08 1 .08 3.545 0 6.484-2.65 6.939-6.073 1.452-.228 2.773-.981 3.718-2.144 1.146-1.409 1.586-3.254 1.209-5.063-.474-2.273-2.32-4.117-4.594-4.588-.094-.02-.187-.022-.281-.037.001-.032.009-.063.009-.095 0-3.309-2.691-6-6-6-.469 0-.926.073-1.377.18-1.102-1.331-2.765-2.18-4.623-2.18-1.686 0-3.209.701-4.3 1.824-1.277-1.165-2.928-1.824-4.7-1.824-3.551 0-6.487 2.661-6.934 6.092-.837-.129-1.702-.116-2.561.064-2.647.552-4.797 2.702-5.349 5.349-.44 2.111.074 4.265 1.411 5.909 1.336 1.643 3.316 2.586 5.433 2.586h1c2.206 0 4 1.794 4 4v1.134l-5-2.857v8.188l-6.692 4.462 5.622 4.497-.083.576h-5.847v1c0 1.424.208 2.838.617 4.203l2.155 7.185c.206.684.501 1.336.878 1.94l3.62 5.792c.736 1.177 2.004 1.88 3.393 1.88h30.337c3.309 0 6-2.691 6-6v-2h2v-1c0-1.424-.208-2.838-.617-4.203l-1.998-6.66c-.366-1.217-1.433-2.046-2.687-2.123l-.835-2.226 2.756-2.204c.877-.702 1.38-1.749 1.38-2.872 0-.18-.017-.358-.044-.535l13.2-6.635c1.139-.57 1.845-1.716 1.845-2.988 0-.516-.122-1.033-.353-1.495zm-7.236 1.999 1.252 2.504-9.496 4.773-1.314-2.19zm-28.411 6.237-2.121-.212-.943-6.601c.708 1.229 1.778 2.219 3.064 2.833zm-18-11.295h-1c-1.512 0-2.927-.674-3.882-1.848-.955-1.175-1.321-2.72-1.004-4.239.392-1.881 1.918-3.407 3.799-3.799 1.516-.319 3.063.049 4.239 1.004 1.174.955 1.848 2.37 1.848 3.882h2c0-2.117-.943-4.097-2.586-5.434-.429-.349-.894-.638-1.383-.873.162-2.611 2.317-4.693 4.969-4.693 1.359 0 2.622.538 3.557 1.49-.242.522-.409 1.084-.492 1.674-1.195.395-2.065 1.51-2.065 2.836h2c0-.551.449-1 1-1s1 .449 1 1h2c0-1.273-.799-2.356-1.92-2.791.368-1.828 1.985-3.209 3.92-3.209 2.206 0 4 1.794 4 4h2c0-.691-.123-1.352-.339-1.97.113-.009.224-.03.339-.03 2.206 0 4 1.794 4 4 0 .034-.008.067-.009.101-1.658.28-3.145 1.227-4.079 2.717l1.695 1.062c.9-1.436 2.572-2.139 4.259-1.79 1.506.312 2.728 1.533 3.042 3.039.257 1.234-.028 2.439-.803 3.393-.764.939-1.896 1.478-3.105 1.478h-1v1c0 2.757-2.243 5-5 5s-5-2.243-5-5h-2c0 .862.164 1.685.451 2.449l-4.451 3.179v-3.628h-2v5.057l-1.06.757-.94-.537v-2.277c0-3.309-2.691-6-6-6zm-4.308 17.073 5.308-3.538v-5.812l6.06 3.463 6.183-4.416.878 6.147 8.68.868-4.908 4.908 1.733 6.932-7.066-1.767-3.56 5.339-3.629-5.444-6.129 2.627.829-5.804zm40.308 21.927c-.551 0-1-.449-1-1s.449-1 1-1 1 .449 1 1-.449 1-1 1zm-2.639-2.396c-.116-.211-.242-.413-.386-.604h.806c-.165.182-.304.385-.42.604zm-1.361 2.396c0 1.654-1.346 3-3 3s-3-1.346-3-3 1.346-3 3-3 3 1.346 3 3zm-6.974 3h-2.051c.634-.838 1.025-1.87 1.025-3s-.391-2.162-1.026-3h2.051c-.634.838-1.025 1.87-1.025 3s.391 2.162 1.026 3zm-3.026-3c0 1.654-1.346 3-3 3s-3-1.346-3-3 1.346-3 3-3 3 1.346 3 3zm-6.974 3h-2.051c.634-.838 1.025-1.87 1.025-3s-.391-2.162-1.026-3h2.051c-.634.838-1.025 1.87-1.025 3s.391 2.162 1.026 3zm-3.026-3c0 1.654-1.346 3-3 3s-3-1.346-3-3 1.346-3 3-3 3 1.346 3 3zm-7.361-2.396c-.116-.219-.255-.421-.419-.604h.806c-.145.191-.271.393-.387.604zm-1.639 1.396c0 .551-.449 1-1 1s-1-.449-1-1 .449-1 1-1 1 .449 1 1zm-5.196-2h1.976c-.464.514-.754 1.184-.773 1.925zm3.163 5.06-.212-.339c.38.175.8.279 1.245.279.834 0 1.588-.343 2.133-.894.159.701.472 1.339.893 1.894h-2.363c-.694 0-1.329-.352-1.696-.94zm32.007.94c.421-.556.734-1.193.893-1.894.468.474 1.096.78 1.792.86-.708.636-1.634 1.034-2.659 1.034zm3.496-17.288 1.998 6.659c.257.858.422 1.739.492 2.629h-42.202c-.021-.063-.051-.124-.07-.188l-2.155-7.184c-.258-.857-.423-1.738-.493-2.628h3.522l-.803 5.62 7.871-3.374 4.37 6.557 4.441-6.662 8.934 2.233-1.094-4.374h14.231c.445 0 .83.287.958.712zm-.099-8.689-2.245 1.796-.702-1.873c-.438-1.164-1.567-1.946-2.81-1.946h-4.614v2h4.614c.415 0 .791.261.937.649l2.006 5.351h-12.776l-.5-2h8.719v-2h-7.586l4.178-4.178 7.329-3.665c.676-.336 1.562-.077 1.948.567l1.907 3.178c.146.246.224.526.224.811 0 .513-.229.99-.629 1.31zm14.888-10.267-1.808.909-1.273-2.546 1.794-.955c.616-.345 1.449-.088 1.762.539l.125.249c.092.186.141.394.141.602 0 .511-.284.972-.741 1.202z"/><path d="m19 16h2v4h-2z"/></g></g></svg>