<?xml version="1.0" encoding="iso-8859-1"?>
<!-- Generator: Adobe Illustrator 19.0.0, SVG Export Plug-In . SVG Version: 6.00 Build 0)  -->
<svg version="1.1" id="Capa_1" xmlns="http://www.w3.org/2000/svg" xmlns:xlink="http://www.w3.org/1999/xlink" x="0px" y="0px"
	 viewBox="0 0 512 512" style="enable-background:new 0 0 512 512;" xml:space="preserve">
<path style="fill:#D2E4FF;" d="M265.772,504.219L265.772,504.219c-137.088,5.397-252.593-101.36-257.99-238.447l0,0
	C2.385,128.684,109.142,13.178,246.229,7.781h0.001c137.087-5.396,252.593,101.36,257.989,238.447v0.001
	C509.615,383.316,402.859,498.822,265.772,504.219z"/>
<path style="fill:#B6D7FF;" d="M504.219,246.229L504.219,246.229c-3.503-88.984-53.408-165.173-125.486-206.221
	c35.217,41.007,57.367,93.74,59.658,151.947l0,0c5.397,137.087-101.36,252.593-238.447,257.99l0,0
	c-48.103,1.894-93.54-10.037-132.504-32.227c47.724,55.571,119.451,89.605,198.331,86.5l0,0
	C402.859,498.822,509.615,383.316,504.219,246.229z"/>
<circle style="fill:#175BE7;" cx="255.66" cy="183.62" r="57.753"/>
<path style="fill:#6CA5FF;" d="M372.741,385H133.357c-4.273,0-7.357-3.269-7.357-7.542v-37.243c0-38.1,30.506-69.216,68.606-69.216
	h116.886c38.1,0,68.508,31.116,68.508,69.216v37.243C380,381.731,377.013,385,372.741,385z"/>
<path d="M461.311,103.059c-2.506-3.359-7.261-4.051-10.621-1.544c-3.359,2.506-4.051,7.261-1.544,10.621
	c31.19,41.804,47.676,91.552,47.676,143.866c0,64.325-25.05,124.801-70.535,170.286S320.326,496.822,256,496.822
	c-64.325,0-124.801-25.05-170.286-70.535S15.178,320.325,15.178,256s25.05-124.801,70.535-170.286S191.674,15.178,256,15.178
	c63.065,0,122.688,24.209,167.888,68.169c3.004,2.922,7.809,2.856,10.731-0.149c2.922-3.004,2.855-7.809-0.149-10.731
	C386.421,25.736,323.04,0,256,0C187.62,0,123.333,26.629,74.981,74.981S0,187.62,0,256s26.629,132.667,74.981,181.019
	S187.62,512,256,512s132.667-26.629,181.019-74.981S512,324.38,512,256C512,200.391,494.472,147.504,461.311,103.059z"/>
<path d="M255.657,248.961c36.03,0,65.342-29.312,65.342-65.342s-29.312-65.342-65.342-65.342s-65.342,29.312-65.342,65.342
	S219.627,248.961,255.657,248.961z M255.657,133.455c27.66,0,50.164,22.503,50.164,50.164s-22.503,50.164-50.164,50.164
	s-50.164-22.503-50.164-50.164S227.996,133.455,255.657,133.455z"/>
<path d="M140.75,310.519c2.031-3.667,0.757-8.285-2.91-10.316s-8.274-0.705-10.305,2.962c-6.245,11.276-9.535,24.088-9.535,37.05
	v37.243c0,8.45,6.907,15.542,15.357,15.542H372.74c8.451,0,15.26-7.092,15.26-15.542v-37.243C388,297.993,353.715,264,311.492,264
	H194.606c-17.276,0-34.215,5.74-47.698,16.487c-3.277,2.613-3.816,7.298-1.204,10.576c2.612,3.276,7.386,3.86,10.665,1.249
	C167.331,283.573,180.553,279,194.606,279h116.886C345.346,279,373,306.362,373,340.216v37.243c0,0.081-0.178,0.542-0.26,0.542H339
	v-36.396c0-4.191-3.309-7.589-7.5-7.589s-7.5,3.398-7.5,7.589V378H184v-36.396c0-4.191-3.309-7.589-7.5-7.589s-7.5,3.398-7.5,7.589
	V378h-35.643c-0.081,0-0.357-0.461-0.357-0.542v-37.243C133,329.819,135.749,319.55,140.75,310.519z"/>
<g>
</g>
<g>
</g>
<g>
</g>
<g>
</g>
<g>
</g>
<g>
</g>
<g>
</g>
<g>
</g>
<g>
</g>
<g>
</g>
<g>
</g>
<g>
</g>
<g>
</g>
<g>
</g>
<g>
</g>
</svg>
