<?xml version="1.0" encoding="iso-8859-1"?>
<!-- Generator: Adobe Illustrator 19.0.0, SVG Export Plug-In . SVG Version: 6.00 Build 0)  -->
<svg version="1.1" id="Capa_1" xmlns="http://www.w3.org/2000/svg" xmlns:xlink="http://www.w3.org/1999/xlink" x="0px" y="0px"
	 viewBox="0 0 496 496" style="enable-background:new 0 0 496 496;" xml:space="preserve">
<path style="fill:#48C397;" d="M378.472,144.632l-2.544-3.4c-10.488-13.992-17.824-30.088-21.488-47.184
	C343.68,43.856,299.328,8,248,8s-95.68,35.856-106.44,86.048c-3.664,17.096-10.992,33.2-21.488,47.184l-2.544,3.4
	c-3.592,4.784-5.528,10.6-5.528,16.576c0,9.24,4.616,17.864,12.304,22.992L136,192h224l11.696-7.8
	c7.688-5.12,12.304-13.752,12.304-22.992C384,155.232,382.064,149.416,378.472,144.632z"/>
<g>
	<path style="fill:#0FA196;" d="M378.472,144.632l-2.544-3.4c-10.488-13.992-17.824-30.088-21.488-47.184
		C343.68,43.856,299.328,8,248,8c-8.224,0-16.24,1.016-24,2.768c40.648,9.184,73.408,41.136,82.44,83.28
		c3.664,17.096,10.992,33.2,21.488,47.184l2.544,3.4c3.592,4.784,5.528,10.6,5.528,16.576c0,9.24-4.616,17.864-12.304,22.992
		L312,192h48l11.696-7.8c7.688-5.12,12.304-13.752,12.304-22.992C384,155.232,382.064,149.416,378.472,144.632z"/>
	<path style="fill:#0FA196;" d="M371.696,184.2c7.688-5.12,12.304-13.752,12.304-22.992c0-5.976-1.936-11.8-5.528-16.584l-2.544-3.4
		c-0.552-0.736-0.992-1.536-1.52-2.28C355.744,129.952,310.728,112,248,112s-107.744,17.952-126.4,26.952
		c-0.536,0.744-0.976,1.544-1.52,2.28l-2.544,3.4c-3.6,4.784-5.536,10.6-5.536,16.576c0,9.24,4.616,17.864,12.304,22.992L136,192
		h224L371.696,184.2z"/>
</g>
<path style="fill:#F9E0A6;" d="M168,152c-17.672,0-32,14.328-32,32s14.328,32,32,32h160c17.672,0,32-14.328,32-32s-14.328-32-32-32
	H168z"/>
<path style="fill:#48C397;" d="M381.184,318.056L304,296H192l-77.184,22.056C94.208,323.944,80,342.776,80,364.208V488h336V364.208
	C416,342.776,401.792,323.944,381.184,318.056z"/>
<path style="fill:#0FA196;" d="M381.184,318.056L304,296l-8,32l58.872,23.552c12.76,5.104,21.128,17.464,21.128,31.2V488h40V364.208
	C416,342.776,401.792,323.944,381.184,318.056z"/>
<polygon style="fill:#AFB8C9;" points="192,344 248,392 304,344 304,240 192,240 "/>
<path style="fill:#F9E0A6;" d="M168,120v80c0,44.184,35.816,80,80,80s80-35.816,80-80v-80H168z"/>
<path style="fill:#0FA196;" d="M304,296l-34.528,54.256C255.448,372.296,248,397.872,248,424l48-40v-32h24l8-48L304,296z"/>
<path style="fill:#798699;" d="M328,122.192C306.512,116.544,279.496,112,248,112s-58.512,4.544-80,10.192V144h160V122.192z"/>
<path style="fill:#F9E0A6;" d="M200,272l9.6,12.8c9.064,12.088,23.288,19.2,38.4,19.2s29.336-7.112,38.4-19.2L296,272H200z"/>
<g>
	<path style="fill:#92E0C0;" d="M96,424H80v32h16c8.84,0,16-7.16,16-16S104.84,424,96,424z"/>
	<path style="fill:#92E0C0;" d="M400,424c-8.84,0-16,7.16-16,16s7.16,16,16,16h16v-32H400z"/>
</g>
<polygon style="fill:#0FA196;" points="192,296 252,392 248,424 200,384 200,352 176,352 168,304 "/>
<path style="fill:#92E0C0;" d="M296,88h32V72l8-8c1.576-1.528,3.048-2.976,4.552-4.456c-9.096-14.688-21.584-26.864-36.208-35.728
	C304.232,23.88,304.12,23.936,304,24l-16,16h-24v24l24,8L296,88z"/>
<path style="fill:#48C397;" d="M304.344,23.816C304.232,23.88,304.12,23.936,304,24l-16,16h-10.976
	c13.024,13.008,22.776,29.408,27.88,48H328V72l8-8c1.576-1.528,3.048-2.976,4.552-4.456
	C331.456,44.856,318.968,32.688,304.344,23.816z"/>
<g>
	<path style="fill:#92E0C0;" d="M152,72h16v24h32V80h24V48h-24l-16-16c-0.816-0.456-1.576-0.872-2.384-1.32
		c-13.408,10.328-24.368,23.744-31.808,39.36C150.552,70.704,151.24,71.328,152,72z"/>
	<polygon style="fill:#92E0C0;" points="344,440 320,440 312,432 288,432 288,464 312,464 312,488 344,488 	"/>
	<polygon style="fill:#92E0C0;" points="176,416 152,400 152,464 184,464 184,448 200,448 200,416 	"/>
	<path style="fill:#92E0C0;" d="M81.736,352H104l16,8l8-16l-6.936-27.736l-6.256,1.784C98.256,322.784,85.976,335.92,81.736,352z"/>
	<path style="fill:#92E0C0;" d="M381.184,318.056l-6.256-1.784L368,344l8,16l16-8h22.264
		C410.024,335.92,397.744,322.784,381.184,318.056z"/>
</g>
<path d="M383.384,310.36L312,289.968v-29.76c9.64-10.24,16.84-22.76,20.712-36.688c15-1.792,27.424-11.768,32.6-25.448l10.824-7.216
	c9.936-6.624,15.864-17.704,15.864-29.648c0-7.664-2.528-15.256-7.128-21.376l-2.552-3.4c-9.728-12.968-16.664-28.208-20.064-44.064
	C350.792,38.848,302.736,0,248,0S145.208,38.848,133.736,92.368c-3.392,15.856-10.336,31.096-20.064,44.064l-2.544,3.392
	c-4.6,6.128-7.128,13.72-7.128,21.384c0,11.944,5.928,23.024,15.864,29.648l10.824,7.216c5.184,13.68,17.6,23.664,32.6,25.448
	c3.872,13.928,11.072,26.448,20.712,36.688v29.76l-71.384,20.392C88.704,317.184,72,339.328,72,364.2V496h352V364.2
	C424,339.328,407.296,317.184,383.384,310.36z M402.36,344h-12.248l-10.536,5.264l-3.096-6.192l4.176-16.696
	C389.952,329.496,397.552,335.856,402.36,344z M319.12,308.64L313.224,344H288v36.248l-30.728,25.608
	c2.568-18.192,9-35.664,18.952-51.312l31.32-49.216L319.12,308.64z M200,285.328l3.2,4.264C213.72,303.624,230.472,312,248,312
	s34.28-8.376,44.8-22.4l3.2-4.272v8.336l-33.272,52.288c-5.4,8.48-9.84,17.456-13.352,26.752l-49.376-79V285.328z M218.328,282.744
	C227.616,286.08,237.576,288,248,288c10.424,0,20.384-1.92,29.672-5.256C270.144,291.08,259.32,296,248,296
	C236.688,296,225.864,291.08,218.328,282.744z M176,128.432c19.864-4.776,44.144-8.432,72-8.432s52.136,3.656,72,8.432V136H176
	V128.432z M335.664,206.632c0.168-2.2,0.336-4.392,0.336-6.632v-38.528c9.288,3.312,16,12.112,16,22.528
	C352,194.536,345.128,203.416,335.664,206.632z M367.344,177.472c-2.704-16.328-15.216-29.376-31.344-32.664v-12.04
	c14.448,4.368,25.624,9.016,32.984,12.456c0.192,0.256,0.344,0.544,0.536,0.8l2.552,3.408c2.536,3.376,3.928,7.56,3.928,11.776
	C376,167.752,372.76,173.824,367.344,177.472z M330.112,58.576L320,68.688V80h-19.056l-7.272-14.544L272,58.232V48h19.312
	l13.952-13.952C314.872,40.704,323.28,49.016,330.112,58.576z M181.784,41.096L196.688,56H216v16h-24v16h-16V64h-13.8
	C167.552,55.376,174.208,47.704,181.784,41.096z M154.184,80H160v24h48V88h24V40h-28.688l-8.544-8.544
	C210.392,21.672,228.688,16,248,16c15.2,0,29.784,3.512,42.928,9.76l-6.24,6.24H256v37.768l26.328,8.776L291.056,96H336V75.312
	l2.584-2.584c3.536,7.208,6.296,14.888,8.032,22.992c1.968,9.16,4.976,18.136,8.904,26.688C331.36,113.648,294.28,104,248,104
	s-83.36,9.648-107.512,18.408c3.92-8.552,6.936-17.528,8.904-26.688C150.552,90.288,152.184,85.048,154.184,80z M120,161.208
	c0-4.224,1.392-8.4,3.928-11.784l2.544-3.392c0.192-0.256,0.344-0.544,0.536-0.808c7.368-3.44,18.544-8.088,32.992-12.456v12.04
	c-16.128,3.288-28.632,16.344-31.344,32.664C123.24,173.824,120,167.752,120,161.208z M144,184c0-10.416,6.712-19.216,16-22.528V200
	c0,2.24,0.168,4.432,0.336,6.632C150.872,203.416,144,194.536,144,184z M176,152h144v48c0,39.696-32.304,72-72,72s-72-32.304-72-72
	V152z M188.408,305.344l54.896,87.832c-1.04,4.8-1.752,9.672-2.304,14.568l-33-27.496V344h-25.224l-5.896-35.36L188.408,305.344z
	 M115.344,326.376l4.168,16.688l-3.096,6.192L105.888,344H93.64C98.448,335.856,106.048,329.496,115.344,326.376z M88,432h8
	c4.408,0,8,3.584,8,8s-3.592,8-8,8h-8V432z M88,464h8c13.232,0,24-10.768,24-24s-10.768-24-24-24h-8v-16h32v-16H88v-19.8
	c0-1.424,0.2-2.808,0.352-4.2h13.76l21.464,10.736l12.904-25.808l-5.776-23.096l30.696-8.776L169.224,360H192v27.752l48,40v13.328
	V480h-80v-8h32v-16h16v-48h-29.576L160,395.72V368h-16v112H88V464z M160,414.944L173.576,424H192v16h-16v16h-16V414.944z M336,480
	h-16v-24h-24v-16h12.688l8,8H336V480z M352,480V368h-16v64h-12.688l-8-8H280v48h24v8h-48v-52.256l48-40V360h22.776l7.824-46.936
	l30.696,8.776l-5.776,23.096l12.904,25.808L393.888,360h13.76c0.152,1.392,0.352,2.776,0.352,4.2V384h-32v16h32v16h-8
	c-13.232,0-24,10.768-24,24s10.768,24,24,24h8v16H352z M408,432v16h-8c-4.408,0-8-3.584-8-8s3.592-8,8-8H408z"/>
<circle cx="208" cy="176" r="8"/>
<circle cx="288" cy="176" r="8"/>
<path d="M248,248c17.648,0,32-14.352,32-32h-16c0,8.824-7.176,16-16,16s-16-7.176-16-16h-16C216,233.648,230.352,248,248,248z"/>
<g>
</g>
<g>
</g>
<g>
</g>
<g>
</g>
<g>
</g>
<g>
</g>
<g>
</g>
<g>
</g>
<g>
</g>
<g>
</g>
<g>
</g>
<g>
</g>
<g>
</g>
<g>
</g>
<g>
</g>
</svg>
