<svg id="_x33_0" enable-background="new 0 0 64 64" height="512" viewBox="0 0 64 64" width="512" xmlns="http://www.w3.org/2000/svg"><g><g><g><path d="m40 30.25v7.75h-2-4-4-4-2v-7.75l4-.25v4h8v-4z" fill="#cf9e76"/></g><g><path d="m24 30.25v7.75h-3c-.55 0-1 .45-1 1v-8.5z" fill="#b27946"/></g><g><path d="m44 30.5v7.5h-4v-7.75z" fill="#b27946"/></g><g><path d="m38 55.73v6.27h-8v-4c0-1.1.9-2 2-2h2.77 2.23c.36 0 .71-.1 1-.27z" fill="#cf9e76"/></g><g><path d="m27.83 50h4.42l.53 4.25c.13 1 .98 1.75 1.99 1.75h-2.77c-1.1 0-2 .9-2 2v4h-10v-6c0 1.1.9 2 2 2h2c1.1 0 2-.9 2-2v-2.17-.01c1.17-.4 2-1.51 2-2.82l-.18-1z" fill="#cf9e76"/></g><g><path d="m42 54h2v8h-6v-6.27c.6-.35 1-.99 1-1.73z" fill="#cf9e76"/></g><g><path d="m42 48h4v6h-4z" fill="#b27946"/></g><g><path d="m18 48h4v6h-4z" fill="#b27946"/></g><g><path d="m48 48v-4h7.06l.8 3.39c.09.41.14.82.14 1.23 0 1.48-.6 2.83-1.58 3.8-.97.98-2.32 1.58-3.8 1.58h-4.62v-6z" fill="#cf9e76"/></g><g><path d="m53.7 38.23.42 1.77h-6.12v-1c0-.55-.45-1-1-1h-3v-7.5l.59.04c4.4.27 8.1 3.4 9.11 7.69z" fill="#cf9e76"/></g><g><path d="m18 48v6h-4.62c-1.48 0-2.83-.6-3.8-1.58-.98-.97-1.58-2.32-1.58-3.8 0-.41.05-.82.14-1.23l1.25-5.29 3.61.9.29-1.46c.47-2.34 1.39-4.56 2.71-6.54l-2.74-1.83c1.65-1.52 3.8-2.49 6.15-2.63l.59-.04v8.5 3 6z" fill="#cf9e76"/></g><g><path d="m28 30v-1.07l4 1.07c1.46 0 2.83-.39 4-1.07v1.07 4h-8z" fill="#f0d0b4"/></g><g><path d="m13.26 33.17 2.74 1.83c-1.32 1.98-2.24 4.2-2.71 6.54l-.29 1.46-3.61-.9.91-3.87c.47-2 1.52-3.74 2.96-5.06z" fill="#5cd6b3"/></g><g><path d="m27.82 50 .18 1c0 1.31-.83 2.42-2 2.82-.31.12-.65.18-1 .18h-3v-6h3c.83 0 1.58.34 2.12.88.31.31.56.69.7 1.12z" fill="#f0d0b4"/></g><g><path d="m42 48v6h-3c-1.66 0-3-1.34-3-3 0-.83.34-1.58.88-2.12.33-.33.73-.58 1.19-.73.29-.1.6-.15.93-.15z" fill="#f0d0b4"/></g><g><path d="m36 51c0 1.66 1.34 3 3 3 0 .74-.4 1.38-1 1.73-.29.17-.64.27-1 .27h-2.23c-1.01 0-1.86-.75-1.99-1.75l-.53-4.25-.24-1.88c-.01-.08-.01-.16-.01-.24 0-1.04.84-1.88 1.88-1.88h1.88c.76 0 1.45.43 1.79 1.11l.52 1.04c-.46.15-.86.4-1.19.73-.54.54-.88 1.29-.88 2.12z" fill="#969faa"/></g><g><path d="m20 54h2 3c.35 0 .69-.06 1-.18v.01 2.17c0 1.1-.9 2-2 2h-2c-1.1 0-2-.9-2-2z" fill="#aab2bd"/></g><g><path d="m32 47.88c0 .08 0 .16.01.24l.24 1.88h-4.42-.01c-.14-.43-.39-.81-.7-1.12-.54-.54-1.29-.88-2.12-.88h-3-2v-6h5 4 4 4 11v2 4h-2-4-3c-.33 0-.64.05-.93.15l-.52-1.04c-.34-.68-1.03-1.11-1.79-1.11h-1.88c-1.04 0-1.88.84-1.88 1.88z" fill="#aab2bd"/></g><g><path d="m26 38-1 4h-5v-3c0-.55.45-1 1-1h3z" fill="#e6e9ed"/></g><g><path d="m48 40v2h-11l1-4h2 4 3c.55 0 1 .45 1 1z" fill="#e6e9ed"/></g><g><path d="m58 41v2c0 .55-.45 1-1 1h-1.94-7.06v-2-2h6.12 2.88c.55 0 1 .45 1 1z" fill="#ccd1d9"/></g><g><path d="m38 38-1 4h-4l1-4z" fill="#5cd6b3"/></g><g><path d="m30 38-1 4h-4l1-4z" fill="#5cd6b3"/></g><g><path d="m34 38-1 4h-4l1-4z" fill="#5cd6b3"/></g><g><path d="m57.12 19.12 2.83 2.83c-1.27 1.27-3.01 2.05-4.95 2.05s-3.68-.78-4.95-2.05l2.83-2.83c-.54-.54-.88-1.29-.88-2.12s.34-1.58.88-2.12 1.29-.88 2.12-.88 1.58.34 2.12.88.88 1.29.88 2.12-.34 1.58-.88 2.12z" fill="#ff826e"/></g><g><path d="m59.95 12.05c-1.27-1.27-3.01-2.05-4.95-2.05s-3.68.78-4.95 2.05-2.05 3.01-2.05 4.95.78 3.68 2.05 4.95l2.83-2.83c-.54-.54-.88-1.29-.88-2.12s.34-1.58.88-2.12 1.29-.88 2.12-.88 1.58.34 2.12.88.88 1.29.88 2.12-.34 1.58-.88 2.12l2.83 2.83c1.27-1.27 2.05-3.01 2.05-4.95s-.78-3.68-2.05-4.95z" fill="#fc6e51"/></g><g><path d="m29 2.18v7.82h-3c-1.1 0-2 .9-2 2v2 8c0 .57.06 1.13.17 1.66-.41.22-.87.34-1.34.34-1.56 0-2.83-1.27-2.83-2.83v-8.17c0-5.4 3.88-9.88 9-10.82z" fill="#fcd770"/></g><g><path d="m44 13v8.17c0 .78-.32 1.49-.83 2s-1.22.83-2 .83c-.47 0-.93-.12-1.34-.34.11-.53.17-1.09.17-1.66v-8-2c0-1.1-.9-2-2-2h-3v-7.82c5.12.94 9 5.42 9 10.82z" fill="#fcd770"/></g><g><path d="m35 2.18v7.82h-6v-7.82c.65-.12 1.32-.18 2-.18h2c.68 0 1.35.06 2 .18z" fill="#ffeaa7"/></g><g><path d="m40 12v2h-16v-2c0-1.1.9-2 2-2h3 6 3c1.1 0 2 .9 2 2z" fill="#ccd1d9"/></g><g><path d="m28.76 22c.76 0 1.45-.43 1.79-1.11.28-.54.84-.89 1.45-.89s1.17.35 1.45.89c.34.68 1.03 1.11 1.79 1.11h4.76c0 .57-.06 1.13-.17 1.66-.48 2.25-1.9 4.15-3.83 5.27-1.17.68-2.54 1.07-4 1.07l-4-1.07c-.61-.35-1.17-.78-1.66-1.27-1.07-1.08-1.84-2.45-2.17-4-.11-.53-.17-1.09-.17-1.66z" fill="#f0d0b4"/></g><g><path d="m24 14h16v8h-4.76c-.76 0-1.45-.43-1.79-1.11-.28-.54-.84-.89-1.45-.89s-1.17.35-1.45.89c-.34.68-1.03 1.11-1.79 1.11h-4.76z" fill="#69d6f4"/></g><g><path d="m15 7v2c0 .55-.45 1-1 1h-3v-4h3c.55 0 1 .45 1 1z" fill="#fc6e51"/></g><g><path d="m15 23v2c0 .55-.45 1-1 1h-3v-4h3c.55 0 1 .45 1 1z" fill="#fc6e51"/></g><g><path d="m15 15v2c0 .55-.45 1-1 1h-3v-4h3c.55 0 1 .45 1 1z" fill="#fc6e51"/></g><g><path d="m11 22v4h-8c-.55 0-1-.45-1-1v-2c0-.55.45-1 1-1z" fill="#ff826e"/></g><g><path d="m11 14v4h-8c-.55 0-1-.45-1-1v-2c0-.55.45-1 1-1z" fill="#ff826e"/></g><g><path d="m11 6v4h-8c-.55 0-1-.45-1-1v-2c0-.55.45-1 1-1z" fill="#ff826e"/></g></g><g><circle cx="28" cy="18" r="1"/><circle cx="36" cy="18" r="1"/><path d="m32 27c1.615 0 3.067-.897 3.789-2.342l.105-.211-1.789-.895-.105.212c-.381.762-1.147 1.236-2 1.236s-1.619-.474-2-1.236l-.105-.211-1.789.895.105.211c.722 1.444 2.174 2.341 3.789 2.341z"/><path d="m3 11h11c1.103 0 2-.897 2-2v-2c0-1.103-.897-2-2-2h-11c-1.103 0-2 .897-2 2v2c0 1.103.897 2 2 2zm11.001-2h-2.001v-2h2zm-11.001-2h7v2h-7z"/><path d="m3 19h11c1.103 0 2-.897 2-2v-2c0-1.103-.897-2-2-2h-11c-1.103 0-2 .897-2 2v2c0 1.103.897 2 2 2zm11.001-2h-2.001v-2h2zm-11.001-2h7v2h-7z"/><path d="m16 25v-2c0-1.103-.897-2-2-2h-11c-1.103 0-2 .897-2 2v2c0 1.103.897 2 2 2h11c1.103 0 2-.897 2-2zm-1.999 0h-2.001v-2h2zm-11.001-2h7v2h-7z"/><path d="m55 9c-4.411 0-8 3.589-8 8s3.589 8 8 8 8-3.589 8-8-3.589-8-8-8zm3.447 10.033c.191-.322.331-.67.424-1.033h2.039c-.154.909-.51 1.749-1.025 2.471zm-6.894 0-1.438 1.438c-.515-.722-.871-1.562-1.025-2.471h2.039c.093.363.233.711.424 1.033zm-.411-3.033h-2.052c.154-.909.51-1.749 1.025-2.471l1.452 1.452c-.187.315-.331.656-.425 1.019zm1.839-2.433-1.452-1.452c.722-.515 1.562-.871 2.471-1.025v2.052c-.363.094-.704.238-1.019.425zm3.019-2.477c.909.154 1.749.51 2.471 1.025l-1.452 1.452c-.316-.186-.656-.33-1.019-.425zm2.858 4.91c-.094-.363-.238-.704-.425-1.019l1.452-1.452c.515.722.871 1.562 1.025 2.471zm-7.329 5.885 2.764-2.764-.707-.707c-.378-.377-.586-.88-.586-1.414 0-1.103.897-2 2-2s2 .897 2 2c0 .534-.208 1.036-.585 1.414l-.708.707 2.765 2.765c-.982.698-2.178 1.114-3.472 1.114s-2.49-.416-3.471-1.115z"/><path d="m57 39h-2.09l-.236-1.003c-1.119-4.754-5.146-8.153-10.022-8.458l-7.133-.446c1.36-1.06 2.405-2.499 2.98-4.16.222.04.446.067.672.067 2.112 0 3.829-1.717 3.829-3.829v-8.171c0-6.617-5.383-12-12-12h-2c-6.617 0-12 5.383-12 12v8.171c0 2.112 1.717 3.829 3.829 3.829.226 0 .45-.027.672-.067.575 1.661 1.62 3.1 2.98 4.16l-7.133.446c-4.875.305-8.903 3.704-10.022 8.459l-2.156 9.165c-.113.477-.17.969-.17 1.461 0 3.516 2.86 6.376 6.376 6.376h5.624v8h26v-8h5.624c3.516 0 6.376-2.86 6.376-6.376 0-.492-.057-.984-.169-1.461l-.509-2.163h.678c1.103 0 2-.897 2-2v-2c0-1.103-.897-2-2-2zm-4.273-.545.128.545h-3.855c0-1.103-.897-2-2-2h-2v-5.416c3.774.431 6.849 3.137 7.727 6.871zm-15.727 22.545h-6v-3c0-.552.449-1 1-1h5zm0-6h-2.234c-.503 0-.93-.377-.992-.876l-.767-6.134c-.005-.035-.007-.071-.007-.107 0-.487.396-.883.883-.883h1.881c.381 0 .724.212.894.553l.078.155c-1.047.722-1.736 1.927-1.736 3.292 0 1.729 1.108 3.19 2.646 3.748-.175.151-.397.252-.646.252zm2-2c-1.103 0-2-.897-2-2s.897-2 2-2h2v4zm4-4h2v4h-2zm-4-2c-.124 0-.242.026-.363.037l-.189-.379c-.512-1.022-1.54-1.658-2.684-1.658h-1.881c-1.59 0-2.883 1.293-2.883 2.883 0 .12.007.24.022.357l.095.76h-2.674c-.694-1.19-1.97-2-3.444-2h-4v-4h26v4zm-14 6h-2v-4h2c1.103 0 2 .897 2 2s-.897 2-2 2zm4-22.525c.94.334 1.947.525 3 .525s2.06-.191 3-.525v2.525h-6zm8 4.525v-3.936l2 .125v5.811h-14v-5.81l2-.125v3.935zm10 6h-8.719l.5-2h8.219zm-18.281-2-.5 2h-1.938l.5-2zm2.062 0h1.938l-.5 2h-1.938zm4 0h1.938l-.5 2h-1.938zm8.219-2h-2v-5.685l2 .125zm-20 0h-2v-5.56l2-.125zm1.719 2-.5 2h-3.219v-2zm-3.719 10v4h-2v-4zm17-38c.551 0 1 .449 1 1v1h-14v-1c0-.551.449-1 1-1zm-13 4h14v6h-3.764c-.381 0-.724-.212-.894-.552-.446-.893-1.343-1.448-2.342-1.448s-1.896.555-2.342 1.447c-.17.341-.513.553-.894.553h-3.764zm18-2v8.171c0 1.009-.82 1.829-1.829 1.829-.076 0-.151-.019-.226-.028.035-.32.055-.643.055-.972v-10c0-1.654-1.346-3-3-3h-2v-5.539c4.053 1.277 7 5.07 7 9.539zm-10-10c.338 0 .671.018 1 .051v5.949h-4v-5.949c.329-.033.662-.051 1-.051zm-10.171 20c-1.009 0-1.829-.82-1.829-1.829v-8.171c0-4.469 2.947-8.262 7-9.539v5.539h-2c-1.654 0-3 1.346-3 3v10c0 .329.02.652.055.972-.076.009-.15.028-.226.028zm2.251 0h3.684c1.143 0 2.171-.635 2.683-1.659.211-.421.895-.421 1.105 0 .512 1.024 1.541 1.659 2.684 1.659h3.684c-.488 3.387-3.401 6-6.92 6s-6.432-2.613-6.92-6zm-11.704 11.452 1.259.839c-1.113 1.872-1.893 3.901-2.322 6.048l-.087.437-1.637-.409.685-2.911c.361-1.539 1.1-2.9 2.102-4.004zm-4.376 14.172c0-.338.039-.675.117-1.003l1.013-4.308 3.645.911.499-2.493c.443-2.217 1.304-4.295 2.559-6.177l.555-.832-2.448-1.632c1.182-.809 2.566-1.336 4.062-1.507v15.417h-6v2h4v4h-3.624c-2.415 0-4.378-1.963-4.378-4.376zm12 6.376h4v1c0 .552-.449 1-1 1h-2c-.551 0-1-.448-1-1zm0 3.816c.314.112.648.184 1 .184h2c1.654 0 3-1.346 3-3v-1.556c1.19-.694 2-1.97 2-3.444h2.367l.422 3.372c.028.221.086.431.158.633-1.629.029-2.947 1.359-2.947 2.995v3h-8zm22 2.184h-4v-4.78c.366-.33.647-.746.816-1.22h3.184zm11.884-13.378c.077.327.116.664.116 1.002 0 2.413-1.963 4.376-4.376 4.376h-3.624v-4h4v-2h-2v-2h5.266zm2.116-4.622h-8v-2h8z"/></g></g></svg>