<svg height="512" viewBox="0 0 128 128" width="512" xmlns="http://www.w3.org/2000/svg"><g><g><path d="m38.978 38v2.568a22.226 22.226 0 0 0 .5 4.674l1.509 6.891c.788 3.611 1.317 7.465 2.71 10.9a21.929 21.929 0 0 0 40.606 0c1.393-3.437 1.922-7.291 2.709-10.9l1.51-6.891a22.226 22.226 0 0 0 .5-4.674v-2.568z" fill="#f0d0b4"/><path d="m39.481 45.242a21.9 21.9 0 0 1 -.505-4.677v-1.307a6.9 6.9 0 0 0 -.926-.07 6.81 6.81 0 1 0 2.935 12.947z" fill="#ddb79b"/><g fill="#424242"><path d="m66.207 53.4h-1.958a3.43 3.43 0 0 1 -3.391-3.945l.709-4.687a1.75 1.75 0 1 1 3.461.524l-.7 4.608h1.877a1.75 1.75 0 0 1 0 3.5z"/><g><path d="m53 36.25a4.167 4.167 0 1 0 4.166 4.167 4.172 4.172 0 0 0 -4.166-4.167z"/><path d="m75 36.25a4.167 4.167 0 1 0 4.167 4.167 4.171 4.171 0 0 0 -4.167-4.167z"/></g><path d="m63.875 63.5a10.376 10.376 0 0 1 -8.028-3.346 1.75 1.75 0 0 1 2.7-2.224 6.987 6.987 0 0 0 5.328 2.07 6.987 6.987 0 0 0 5.325-2.069 1.75 1.75 0 1 1 2.7 2.225 10.371 10.371 0 0 1 -8.025 3.344z"/></g><path d="m89.7 39.188a6.058 6.058 0 0 0 -.678.052v1.328a22.226 22.226 0 0 1 -.5 4.674l-1.51 6.891-.021.1a6.732 6.732 0 0 0 2.709.578 6.81 6.81 0 0 0 0-13.619z" fill="#ddb79b"/><path d="m89.431 87.609c-.879-.069-1.76-.138-2.634-.235a22.825 22.825 0 0 1 -3.938-.722l-18.985 14.1 13.109 6.005z" fill="#424242"/><path d="m119.5 110.83v15.42h-111v-15.42a22.417 22.417 0 0 1 16.5-21.61c4.31-1.18 8.84-1.31 13.31-1.64l12.46 19.18 11.35-5.21 1.75-.8 1.75.8 11.36 5.21 12.45-19.15c1.28.1 2.55.19 3.81.3a55.319 55.319 0 0 1 9.76 1.31 22.417 22.417 0 0 1 16.5 21.61z" fill="#5e8569"/><path d="m63.874 100.752-18.891-14.031a9.806 9.806 0 0 1 -3.124.547c-1.175.135-2.359.23-3.546.315l12.452 19.174z" fill="#424242"/><path d="m65.62 100.75v25.5h-3.5v-25.5a1.75 1.75 0 0 1 3.5 0z" fill="#424242"/><path d="m103.25 111.62v14.63h-3.5v-14.63a1.75 1.75 0 0 1 3.5 0z" fill="#424242"/><path d="m26.5 116.467h10.337a2.142 2.142 0 0 1 2.141 2.141 2.14 2.14 0 0 0 2.141 2.141h7.834a2.142 2.142 0 0 1 2.141 2.141v1.219a2.142 2.142 0 0 1 -2.141 2.141h-22.453z" fill="#85bc94"/><path d="m115.585 98.207h-13.273a3 3 0 0 0 -3 3v.125a3 3 0 0 0 3 3h2.438a3 3 0 0 1 3 3 3 3 0 0 0 3 3h8.729a22.288 22.288 0 0 0 -3.894-12.125z" fill="#85bc94"/><path d="m76.676 84.352 2.514-.513c-.111-.173-.222-.347-.325-.54a6.741 6.741 0 0 1 -.769-2.332l-1.096-8.576a21.855 21.855 0 0 1 -26 0l-1.1 8.576a6.811 6.811 0 0 1 -1.13 2.864l2.549.521a63.358 63.358 0 0 0 25.357 0z" fill="#ddb79b"/><path d="m79.19 83.839-2.514.513a63.358 63.358 0 0 1 -25.352 0l-2.549-.521a7.577 7.577 0 0 1 -3.792 2.89l18.891 14.031 18.985-14.1a6.6 6.6 0 0 1 -3.669-2.813z" fill="#85bc94"/><path d="m9.2 105.247h21.227a2.141 2.141 0 0 0 2.141-2.141v-1.219a2.14 2.14 0 0 0 -2.141-2.141h-7.834a2.142 2.142 0 0 1 -2.141-2.141 2.14 2.14 0 0 0 -2.141-2.141h-3.686a22.373 22.373 0 0 0 -5.425 9.783z" fill="#85bc94"/><path d="m76.316 126.25v-4.875a3.063 3.063 0 0 1 3.063-3.062h.121a3.063 3.063 0 0 0 3.062-3.063 3.063 3.063 0 0 1 3.063-3.062h.125a3.062 3.062 0 0 1 3.062 3.062v11z" fill="#85bc94"/><path d="m91.75 26.88v9.12a2.006 2.006 0 0 1 -2 2h-51.5a2.006 2.006 0 0 1 -2-2v-9.12z" fill="#424242"/><path d="m75.337 1.748h-15.566a39.872 39.872 0 0 0 -27.458 10.96l-4.607 4.374a5.677 5.677 0 0 0 -1.769 4.118 5.677 5.677 0 0 0 5.677 5.676h60.125a7 7 0 0 0 6.5-9.59 24.655 24.655 0 0 0 -22.902-15.538z" fill="#5e8569"/><path d="m69.469 16.245-5.469 4.004-5.469-4.004v-7.871h10.938z" fill="#fbb540"/><g fill="#707070"><path d="m43.47 26.88h3.5v11.12h-3.5z"/><path d="m52.86 26.88h3.5v11.12h-3.5z"/><path d="m62.25 26.88h3.5v11.12h-3.5z"/><path d="m71.64 26.88h3.5v11.12h-3.5z"/><path d="m81.03 26.88h3.5v11.12h-3.5z"/></g><path d="m28.25 111.62v14.63h-3.5v-14.63a1.75 1.75 0 0 1 3.5 0z" fill="#424242"/></g><g fill="#332319"><path d="m64.249 53.4h1.958a1.75 1.75 0 0 0 0-3.5h-1.877l.7-4.608a1.75 1.75 0 1 0 -3.461-.524l-.709 4.687a3.43 3.43 0 0 0 3.389 3.945z"/><path d="m63.875 63.5a10.371 10.371 0 0 0 8.025-3.344 1.75 1.75 0 1 0 -2.7-2.225 6.987 6.987 0 0 1 -5.325 2.069 6.987 6.987 0 0 1 -5.326-2.07 1.75 1.75 0 0 0 -2.7 2.224 10.376 10.376 0 0 0 8.026 3.346z"/><path d="m84.219 95.627a1.749 1.749 0 0 0 -2.422.513l-.417.642a1.75 1.75 0 0 0 2.935 1.907l.417-.642a1.75 1.75 0 0 0 -.513-2.42z"/><path d="m121.228 110.3a24.25 24.25 0 0 0 -17.766-22.775 45.855 45.855 0 0 0 -8.5-1.229c-1.284-.1-3.072-.266-5.429-.434-.51-.05-.927-.072-2.492-.223l-.766-.1a16.145 16.145 0 0 1 -2.874-.551 4.836 4.836 0 0 1 -2.739-2.094c-.087-.137-.176-.276-.257-.424a4.948 4.948 0 0 1 -.573-1.725l-.966-7.552a23.633 23.633 0 0 0 7.06-9.5 46.75 46.75 0 0 0 2.257-8.541c.047-.242.1-.478.146-.719a8.3 8.3 0 0 0 1.371.125 8.555 8.555 0 0 0 3.179-16.5 3.723 3.723 0 0 0 .621-2.058v-7.569a8.728 8.728 0 0 0 6.368-11.794 26.275 26.275 0 0 0 -24.531-16.637h-15.566a41.6 41.6 0 0 0 -21.707 6.106 1.75 1.75 0 1 0 1.825 2.986 38.115 38.115 0 0 1 19.882-5.592h15.566a22.793 22.793 0 0 1 21.279 14.432 5.249 5.249 0 0 1 -4.877 7.193h-60.125a3.926 3.926 0 0 1 -2.7-6.774l4.608-4.374a1.75 1.75 0 0 0 -2.411-2.538l-4.611 4.374a7.426 7.426 0 0 0 5.114 12.812h2.886v7.375a3.71 3.71 0 0 0 .58 1.981 8.553 8.553 0 0 0 2.97 16.576 8.42 8.42 0 0 0 1.612-.165c.051.254.105.5.155.759a46.64 46.64 0 0 0 2.259 8.549 23.623 23.623 0 0 0 7.058 9.5l-.963 7.533a5.066 5.066 0 0 1 -.845 2.123 5.861 5.861 0 0 1 -2.926 2.216 8.061 8.061 0 0 1 -2.57.446c-.057 0-.113 0-.169.011-1.212.14-2.434.235-3.471.309-.685.049-1.372.094-2.058.139a57.968 57.968 0 0 0 -11.592 1.551 24.189 24.189 0 0 0 -17.788 23.3v15.422a1.751 1.751 0 0 0 1.748 1.75h111a1.75 1.75 0 0 0 1.75-1.75v-15.417c0-.179-.018-.353-.022-.533zm-5.993-9.318a20.959 20.959 0 0 1 2.376 7.6h-6.861a1.251 1.251 0 0 1 -1.25-1.25 4.756 4.756 0 0 0 -4.75-4.75h-2.438a1.252 1.252 0 0 1 -1.25-1.25v-.125a1.252 1.252 0 0 1 1.25-1.25h12.317c.21.343.416.678.606 1.028zm-67.02-14.04a9.21 9.21 0 0 0 1.27-1.179l1.489.3a64.746 64.746 0 0 0 26.051 0l1.425-.291a8.186 8.186 0 0 0 1.15 1.117l-14.108 10.483-1.618 1.2-9.628-7.151zm46.545-40.942a5.065 5.065 0 0 1 -5.06 5.059 4.884 4.884 0 0 1 -.65-.044c.691-3.509 1.574-5.965 1.718-9.961a5.067 5.067 0 0 1 3.992 4.946zm-4.76-10a.25.25 0 0 1 -.25.25h-5.219v-7.625h5.469zm-14.859.25v-7.625h5.89v7.625zm-18.782 0v-7.625h5.891v7.625zm-3.5 0h-5.89v-7.625h5.89zm12.891-7.625h5.891v7.625h-5.891zm-22.281 0v7.625h-5.22a.251.251 0 0 1 -.249-.25v-7.375zm-5.419 22.432a5.059 5.059 0 0 1 -.82-10.052c-.1 2.119 1.123 7.339 1.711 9.972a5 5 0 0 1 -.891.08zm7.269 11.321a44.049 44.049 0 0 1 -2.068-7.905c-.18-.912-.359-1.82-.554-2.714l-.765-3.492-.742-3.4a23.673 23.673 0 0 1 -.462-5.118h8.172a4.064 4.064 0 0 0 -.068.667 4.167 4.167 0 0 0 8.333 0 4.064 4.064 0 0 0 -.067-.667h13.802a4.168 4.168 0 1 0 8.2 0h8.172v.818a20.433 20.433 0 0 1 -.461 4.3l-1.528 6.98v.011c-.187.861-.361 1.734-.534 2.614a44.148 44.148 0 0 1 -2.066 7.9 20.13 20.13 0 0 1 -6.511 8.478 1.745 1.745 0 0 0 -.375.272 20.21 20.21 0 0 1 -23.593 0 1.719 1.719 0 0 0 -.378-.275 20.1 20.1 0 0 1 -6.507-8.469zm18.681 16.049a23.685 23.685 0 0 0 11.619-3.027l.74 5.788a7.986 7.986 0 0 0 .308 1.381l-.342.07a61.218 61.218 0 0 1 -24.651 0l-.363-.074a8.322 8.322 0 0 0 .33-1.374l.74-5.791a23.68 23.68 0 0 0 11.619 3.027zm-22.022 10.589a11.873 11.873 0 0 0 2.669-.364l4.029 2.992 11.78 8.75-9.046 4.143-10.037-15.456c.201-.021.403-.042.605-.065zm-30.146 13.938a20.219 20.219 0 0 1 3.569-5.74h2.91a.391.391 0 0 1 .391.391 3.9 3.9 0 0 0 3.891 3.891h7.834a.391.391 0 0 1 .391.391v1.218a.392.392 0 0 1 -.391.392h-18.806c.069-.182.137-.364.211-.543zm-1.582 7.879a20.471 20.471 0 0 1 .374-3.833h19.8a3.9 3.9 0 0 0 3.891-3.892v-1.218a3.9 3.9 0 0 0 -3.888-3.89h-7.834a.391.391 0 0 1 -.391-.391 3.891 3.891 0 0 0 -3-3.779 20.543 20.543 0 0 1 6.259-2.93 54.521 54.521 0 0 1 10.9-1.435l1.049-.07 11.89 18.315a1.751 1.751 0 0 0 2.2.638l10.629-4.869v21.021h-9.329a3.892 3.892 0 0 0 .04-.391v-1.219a3.9 3.9 0 0 0 -3.887-3.89h-7.834a.391.391 0 0 1 -.391-.391 3.9 3.9 0 0 0 -3.891-3.891h-8.587v-3.092a1.75 1.75 0 0 0 -3.5 0v12.874h-14.5zm18 13.667v-6.283h8.587a.392.392 0 0 1 .391.391 3.9 3.9 0 0 0 3.891 3.891h7.834a.392.392 0 0 1 .391.391v1.219a.392.392 0 0 1 -.391.391zm49.816 0v-3.125a1.314 1.314 0 0 1 1.313-1.312h.121a4.818 4.818 0 0 0 4.812-4.813 1.314 1.314 0 0 1 1.313-1.312h.125a1.313 1.313 0 0 1 1.312 1.312v9.25zm25.184 0v-12.875a1.75 1.75 0 0 0 -3.5 0v12.875h-9.188v-9.25a4.817 4.817 0 0 0 -4.812-4.812h-.125a4.818 4.818 0 0 0 -4.813 4.812 1.314 1.314 0 0 1 -1.312 1.313h-.121a4.818 4.818 0 0 0 -4.813 4.812v3.125h-8.941v-21.021l10.63 4.869a1.75 1.75 0 0 0 2.2-.637l2.206-3.394a1.75 1.75 0 1 0 -2.935-1.907l-1.383 2.127-9.046-4.143 15.917-11.826a24.222 24.222 0 0 0 2.612.442l.559.074-.929 1.428a1.75 1.75 0 0 0 2.936 1.907l1.94-2.985h.062c.9.069 1.8.139 2.69.216.531.047 1.065.09 1.6.133a42.628 42.628 0 0 1 7.855 1.116 20.582 20.582 0 0 1 9.352 5.553h-9.578a4.756 4.756 0 0 0 -4.75 4.75v.125a4.756 4.756 0 0 0 4.75 4.75h2.438a1.252 1.252 0 0 1 1.25 1.25 4.756 4.756 0 0 0 4.75 4.75h7v12.423z"/><path d="m62.966 21.661a1.753 1.753 0 0 0 2.067 0l5.469-4a1.749 1.749 0 0 0 .717-1.412v-7.876a1.751 1.751 0 0 0 -1.75-1.75h-10.938a1.751 1.751 0 0 0 -1.75 1.75v7.873a1.749 1.749 0 0 0 .717 1.412zm-2.685-11.538h7.438v5.235l-3.719 2.722-3.719-2.722z"/></g></g></svg>