<?xml version="1.0" encoding="iso-8859-1"?>
<!-- Generator: Adobe Illustrator 19.0.0, SVG Export Plug-In . SVG Version: 6.00 Build 0)  -->
<svg version="1.1" id="Capa_1" xmlns="http://www.w3.org/2000/svg" xmlns:xlink="http://www.w3.org/1999/xlink" x="0px" y="0px"
	 viewBox="0 0 512.002 512.002" style="enable-background:new 0 0 512.002 512.002;" xml:space="preserve">
<path style="fill:#FF9801;" d="M325.56,286.722c-2.274,10.052-4.013,20.218-5.208,30.455c-1.175,9.013-1.676,18.101-1.501,27.189
	c-17.655,4.414-39.283,17.479-62.852,17.479s-45.197-13.064-62.852-17.479c0.175-9.088-0.326-18.176-1.501-27.189
	c-1.195-10.237-2.934-20.403-5.208-30.455c4.514,5.461,9.318,10.678,14.389,15.625c7.239,7.062,14.918,13.771,22.157,19.597
	c19.237,15.625,46.794,15.625,66.031,0c8.508-6.823,16.641-14.103,24.364-21.804C317.703,295.814,321.764,291.313,325.56,286.722z"
	/>
<path style="fill:#37474F;" d="M326.002,378.44v1.148h-7.151c-13.154,3.266-28.513,11.388-45.197,15.272v55.348h-35.31V394.86
	c-16.684-3.884-32.044-12.006-45.197-15.272h-7.151v-1.148c5.065-10.626,7.516-22.309,7.151-34.075
	c17.655,4.414,39.283,17.479,62.852,17.479s45.197-13.064,62.852-17.479C318.484,356.132,320.937,367.814,326.002,378.44z"/>
<g>
	<path style="fill:#2E7D32;" d="M105.931,393.094v110.08H68.325c-9.764,0.009-17.685-7.899-17.693-17.663
		c-0.001-1.825,0.279-3.639,0.832-5.378l11.653-36.369c4.975-13.219,12.709-25.226,22.687-35.222
		C91.806,402.533,98.574,397.339,105.931,393.094z"/>
	<path style="fill:#2E7D32;" d="M443.672,503.173h-19.95v-52.965c-0.015-4.869-3.958-8.813-8.827-8.827h-8.827v-48.287
		c7.357,4.246,14.123,9.44,20.127,15.448c9.978,9.997,17.711,22.003,22.687,35.222l11.653,36.369
		c2.962,9.304-2.18,19.245-11.483,22.207C447.311,502.895,445.497,503.176,443.672,503.173z"/>
	<path style="fill:#2E7D32;" d="M238.343,394.86v55.348h-59.586l-8.827-70.621h23.217
		C206.299,382.854,221.66,390.976,238.343,394.86z"/>
	<path style="fill:#2E7D32;" d="M342.068,379.588l-8.827,70.621h-59.586V394.86c16.684-3.884,32.044-12.006,45.197-15.272
		L342.068,379.588L342.068,379.588z"/>
</g>
<path style="fill:#37474F;" d="M388.412,361.933h-28.513c-8.906,0.002-16.426,6.615-17.567,15.448l-0.265,2.207l-8.562,68.59
	l-0.265,2.031H178.758l-8.827-70.621l-0.265-2.207c-1.14-8.833-8.661-15.446-17.567-15.448h-28.513
	c-9.739,0.029-17.627,7.917-17.655,17.655v123.586h255.999v-52.965c0.015-4.869,3.958-8.813,8.827-8.827h35.31v-61.793
	C406.039,369.849,398.151,361.961,388.412,361.933z"/>
<path style="fill:#607D8B;" d="M361.93,361.933h-2.031c-8.906,0.002-16.426,6.615-17.567,15.448l-0.265,2.207l-8.562,68.59
	l-0.265,2.031H178.758l-8.827-70.621l-0.265-2.207c-1.14-8.833-8.661-15.446-17.567-15.448h-28.513
	c-9.739,0.029-17.627,7.917-17.655,17.655v123.586h255.999v-52.965c0.015-4.869,3.958-8.813,8.827-8.827h8.827v-61.793
	C379.556,369.849,371.668,361.961,361.93,361.933z"/>
<path style="fill:#424242;" d="M423.722,450.209v52.965h-61.793v-52.965c0.015-4.869,3.958-8.813,8.827-8.827h44.138
	C419.764,441.395,423.708,445.34,423.722,450.209z"/>
<path style="fill:#9E9E9E;" d="M397.239,450.209v52.965h-35.31v-52.965c0-4.855,2.27-8.827,5.044-8.827h25.221
	C394.969,441.381,397.239,445.353,397.239,450.209z"/>
<g>
	<path style="fill:#FEC108;" d="M161.102,167.031c0,0-19.862-17.655-19.862,17.655s6.621,70.621,26.483,44.138"/>
	<path style="fill:#FEC108;" d="M350.895,167.031c0,0,19.862-17.655,19.862,17.655s-6.621,70.621-26.483,44.138"/>
	<path style="fill:#FEC108;" d="M353.282,135.351c-0.033,6.975-0.931,13.918-2.673,20.672c0,0.092-0.088,0.277-0.089,0.369
		c-6.728,25.884-8.91,52.742-6.45,79.373c0.174,2.216,0.26,4.524,0.257,6.831c-0.127,6.173-1.484,12.26-3.994,17.902
		c-3.831,8.675-8.797,16.801-14.771,24.166c-10.938,13.453-23.196,25.776-36.59,36.785c-4.015,3.425-8.547,6.193-13.428,8.199
		c-1.772,0.81-3.602,1.487-5.475,2.024c-6.796,1.939-13.916,2.465-20.923,1.545c-0.971-0.186-2.03-0.372-3-0.558
		c-1.167-0.191-2.317-0.47-3.442-0.836c-1.592-0.384-3.155-0.88-4.677-1.482h-0.088c-1.147-0.462-2.205-0.926-3.264-1.389
		c-0.088-0.092-0.088-0.092-0.177-0.092c-0.261-0.068-0.502-0.194-0.706-0.37c-0.868-0.34-1.697-0.774-2.469-1.295
		c-0.853-0.39-1.653-0.888-2.381-1.479c-0.997-0.563-1.941-1.212-2.822-1.942c-1.102-0.742-2.161-1.545-3.175-2.404
		c-3.087-2.587-6.173-5.36-9.348-8.227l-4.762-4.436c-1.058-0.924-2.116-1.941-3.086-2.957
		c-6.925-6.623-13.377-13.725-19.307-21.254c-1.058-1.386-2.115-2.679-3.085-4.064c-0.265-0.421-0.56-0.822-0.882-1.201
		c-0.176-0.277-0.353-0.462-0.529-0.739c-1.058-1.57-2.026-3.048-2.996-4.619c-1.146-1.755-2.203-3.51-3.172-5.265
		c-0.068-0.165-0.156-0.321-0.264-0.462c-0.881-1.663-1.761-3.232-2.466-4.895c-0.472-0.852-0.855-1.749-1.145-2.677
		c-0.443-0.854-0.797-1.752-1.056-2.679c-0.178-0.205-0.271-0.468-0.264-0.739c-0.274-0.663-0.508-1.341-0.704-2.032
		c-1.37-4.11-2.079-8.409-2.104-12.741c0.003-2.307,0.093-4.615,0.274-6.83c2.538-26.752,0.389-53.743-6.349-79.757
		c-1.726-6.758-2.607-13.704-2.624-20.679c-0.03-4.021,0.299-8.036,0.985-11.998c3.208-20.549,13.77-39.233,29.723-52.577
		l132.943,0.158C341.937,86.7,353.117,110.352,353.282,135.351z"/>
</g>
<path style="fill:#FFECB3;" d="M326.8,135.32c-0.033,6.975-0.931,13.918-2.673,20.672c0,0.092-0.088,0.277-0.089,0.369
	c-6.728,25.884-8.91,52.742-6.45,79.373c0.174,2.216,0.26,4.523,0.257,6.831c-0.031,26.583-30.259,57.653-55.355,78.853
	c-5.708,4.943-12.479,8.503-19.786,10.406c-1.588-0.397-3.151-0.892-4.677-1.482h-0.088c-1.147-0.462-2.205-0.926-3.264-1.389
	c-0.088-0.092-0.088-0.092-0.177-0.092c-0.261-0.068-0.502-0.194-0.706-0.37c-0.868-0.34-1.697-0.774-2.469-1.295
	c-0.853-0.39-1.653-0.888-2.381-1.479c-0.997-0.563-1.941-1.212-2.822-1.942c-1.102-0.742-2.161-1.545-3.175-2.404
	c-3.087-2.587-6.173-5.36-9.348-8.227l-4.762-4.436c-1.058-1.017-2.027-1.941-3.086-2.957c-6.925-6.623-13.378-13.725-19.307-21.254
	c-1.058-1.386-2.115-2.679-3.085-4.064c-0.265-0.421-0.56-0.822-0.882-1.201c-0.176-0.277-0.353-0.462-0.529-0.739
	c-1.058-1.57-2.026-3.048-2.996-4.619c-1.146-1.755-2.203-3.51-3.172-5.265c-0.068-0.165-0.156-0.321-0.264-0.462
	c-0.881-1.663-1.761-3.232-2.466-4.895c-0.472-0.852-0.855-1.749-1.145-2.677c-0.443-0.854-0.797-1.752-1.056-2.679
	c-0.178-0.205-0.271-0.468-0.264-0.739c-0.274-0.663-0.508-1.341-0.704-2.032c-1.37-4.11-2.079-8.409-2.104-12.741
	c0.003-2.307,0.093-4.615,0.274-6.83c2.538-26.752,0.389-53.743-6.349-79.757c-1.726-6.758-2.607-13.704-2.624-20.679
	c-0.03-4.021,0.299-8.036,0.985-11.998c3.208-20.549,13.77-39.233,29.723-52.577l106.461,0.127
	C315.455,86.668,326.634,110.321,326.8,135.32z"/>
<path d="M273.654,290.847h-35.31c-4.875,0-8.827-3.952-8.827-8.827c0-4.875,3.952-8.827,8.827-8.827h35.31
	c4.875,0,8.827,3.952,8.827,8.827C282.481,286.894,278.529,290.847,273.654,290.847z"/>
<path d="M185.986,387.269c-4.877-0.008-8.824-3.966-8.818-8.842c0.002-1.51,0.392-2.995,1.132-4.312
	c6.074-10.784,7.655-30.112,4.577-55.897c-1.154-9.936-2.843-19.804-5.056-29.561c-1.054-4.762,1.95-9.476,6.711-10.531
	c4.745-1.051,9.447,1.93,10.522,6.669c2.344,10.36,4.133,20.837,5.362,31.387c3.565,29.905,1.301,52.328-6.732,66.586
	C192.12,385.551,189.177,387.272,185.986,387.269z"/>
<path d="M326.011,387.269c-3.191,0.003-6.135-1.717-7.698-4.5c-8.035-14.258-10.297-36.681-6.728-66.638
	c1.229-10.533,3.018-20.993,5.358-31.336c1.08-4.755,5.81-7.735,10.566-6.656c4.737,1.076,7.716,5.775,6.667,10.518
	c-2.21,9.739-3.896,19.589-5.051,29.508c-3.082,25.836-1.5,45.164,4.573,55.948c2.389,4.251,0.879,9.635-3.373,12.023
	C329.006,386.877,327.522,387.266,326.011,387.269L326.011,387.269z"/>
<path d="M255.999,370.674c-16.156-0.856-32.01-4.733-46.737-11.431c-5.959-2.458-12.055-4.568-18.259-6.319
	c-4.727-1.183-7.601-5.975-6.418-10.702c1.183-4.727,5.975-7.601,10.702-6.418l0,0c6.918,1.908,13.711,4.237,20.345,6.974
	c12.715,5.858,26.397,9.329,40.366,10.242c13.969-0.913,27.651-4.384,40.366-10.241c6.634-2.736,13.427-5.066,20.345-6.974
	c4.725-1.191,9.522,1.674,10.713,6.401c1.191,4.726-1.674,9.522-6.401,10.713c-0.01,0.002-0.018,0.004-0.028,0.006
	c-6.203,1.751-12.3,3.861-18.259,6.319C288.008,365.941,272.155,369.819,255.999,370.674z"/>
<path d="M238.352,403.692c-0.678,0.003-1.354-0.075-2.012-0.233c-9.212-2.356-18.248-5.358-27.039-8.983
	c-5.964-2.465-12.07-4.575-18.284-6.319c-4.733-1.176-7.615-5.965-6.439-10.698c1.176-4.733,5.965-7.615,10.698-6.439
	c6.94,1.908,13.755,4.246,20.405,7c8.022,3.318,16.264,6.075,24.668,8.25c4.748,1.106,7.7,5.851,6.594,10.598
	C246.011,400.861,242.453,403.689,238.352,403.692L238.352,403.692z"/>
<path d="M273.645,403.692c-4.874-0.003-8.823-3.958-8.82-8.833c0.003-4.101,2.83-7.659,6.823-8.589
	c8.404-2.175,16.646-4.932,24.668-8.25c6.65-2.754,13.465-5.092,20.405-7c4.733-1.176,9.522,1.707,10.698,6.439
	c1.176,4.733-1.707,9.522-6.439,10.698l0,0c-6.214,1.743-12.32,3.853-18.284,6.319c-8.791,3.625-17.826,6.627-27.039,8.983
	C274.998,403.611,274.323,403.69,273.645,403.692z"/>
<path id="SVGCleanerId_0" d="M264.826,256.002h-17.655c-4.875,0-8.827-3.952-8.827-8.827c0-4.875,3.952-8.827,8.827-8.827h17.655
	c4.875,0,8.827,3.952,8.827,8.827C273.654,252.051,269.702,256.002,264.826,256.002z"/>
<path d="M185.378,388.415H169.93c-4.875,0-8.827-3.952-8.827-8.827c0-4.875,3.952-8.827,8.827-8.827h15.448
	c4.875,0,8.827,3.952,8.827,8.827C194.206,384.463,190.254,388.415,185.378,388.415z"/>
<path d="M105.931,512.002H68.327c-14.638,0.011-26.513-11.848-26.524-26.486c-0.002-2.734,0.419-5.452,1.249-8.057l11.659-36.388
	c5.429-14.545,13.903-27.762,24.854-38.768c6.55-6.552,13.93-12.218,21.952-16.853c4.226-2.432,9.624-0.977,12.056,3.249
	c2.428,4.218,0.984,9.605-3.228,12.043c-6.686,3.86-12.837,8.581-18.293,14.043c-9.084,9.109-16.129,20.042-20.672,32.077
	l-11.508,35.957c-1.477,4.66,1.104,9.635,5.764,11.112c0.871,0.276,1.78,0.415,2.692,0.414h37.604c4.875,0,8.827,3.952,8.827,8.827
	C114.758,508.049,110.805,512.002,105.931,512.002z"/>
<path d="M342.068,388.415H326.62c-4.875,0-8.827-3.952-8.827-8.827c0-4.875,3.952-8.827,8.827-8.827h15.448
	c4.875,0,8.827,3.952,8.827,8.827C350.895,384.463,346.943,388.415,342.068,388.415z"/>
<path d="M443.67,512.002h-37.604c-4.875,0-8.827-3.952-8.827-8.827c0-4.875,3.952-8.827,8.827-8.827h37.604
	c4.886,0.011,8.857-3.941,8.868-8.827c0.002-0.921-0.139-1.838-0.42-2.715l-11.642-36.353
	c-4.546-11.877-11.539-22.665-20.526-31.664c-5.458-5.461-11.61-10.183-18.297-14.043c-4.22-2.444-5.66-7.845-3.216-12.065
	c2.438-4.211,7.825-5.655,12.043-3.228c8.023,4.636,15.404,10.302,21.957,16.853c10.855,10.894,19.275,23.966,24.707,38.354
	l11.793,36.784c4.451,13.943-3.245,28.855-17.188,33.305C449.138,511.58,446.412,512.004,443.67,512.002z"/>
<path d="M406.068,512.002H105.931c-4.874,0.001-8.826-3.949-8.827-8.823c0-0.001,0-0.003,0-0.004V379.588
	c0.016-14.619,11.863-26.467,26.483-26.483h28.513c13.328,0.036,24.577,9.924,26.323,23.138l8.129,65.138h138.896l8.116-65.043
	c1.713-13.251,12.974-23.186,26.336-23.233h28.513c14.62,0.016,26.467,11.863,26.483,26.483v61.793c0,4.875-3.952,8.827-8.827,8.827
	c-4.875,0-8.827-3.952-8.827-8.827v-61.793c-0.005-4.873-3.954-8.823-8.827-8.827H359.9c-4.466,0.016-8.232,3.331-8.814,7.759
	l-0.25,2.112L342,451.305c-0.552,4.416-4.307,7.731-8.759,7.733H178.758c-4.452-0.001-8.206-3.316-8.759-7.733l-9.099-72.879
	c-0.616-4.391-4.368-7.658-8.802-7.663h-28.513c-4.873,0.005-8.823,3.954-8.827,8.827v114.758h291.31
	c4.875,0,8.827,3.952,8.827,8.827C414.895,508.049,410.943,512.002,406.068,512.002z"/>
<path d="M273.654,459.036h-35.31c-4.874,0.001-8.826-3.949-8.827-8.823c0-0.001,0-0.003,0-0.004v-55.344
	c0-4.875,3.952-8.827,8.827-8.827c4.875,0,8.827,3.952,8.827,8.827v46.517h17.655v-46.517c0-4.875,3.952-8.827,8.827-8.827
	c4.875,0,8.827,3.952,8.827,8.827v55.344c0.001,4.874-3.949,8.826-8.823,8.827C273.657,459.036,273.656,459.036,273.654,459.036z"/>
<path d="M423.722,512.002h-61.793c-4.874,0.001-8.826-3.949-8.827-8.823c0-0.001,0-0.003,0-0.004V450.21
	c0.011-9.746,7.909-17.644,17.655-17.655h44.138c9.746,0.011,17.644,7.909,17.655,17.655v52.965
	c0.001,4.874-3.949,8.826-8.823,8.827C423.725,512.002,423.724,512.002,423.722,512.002z M370.757,494.346h44.138v-44.138h-44.138
	V494.346z"/>
<path d="M256.012,342.467c-14.064,0.026-27.705-4.81-38.612-13.69c-13.805-10.841-26.471-23.059-37.801-36.466
	c-13.733-16.733-20.702-32.164-20.702-45.844c0-2.456,0.094-4.905,0.293-7.268c0.344-3.37,0.508-6.655,0.673-9.862
	c0.289-6.336,0.344-11.896,0.186-17.207c-0.517-14.373-2.557-28.652-6.087-42.595c-1.195-4.725,1.667-9.525,6.392-10.72
	c4.725-1.195,9.525,1.667,10.72,6.392c3.841,15.17,6.061,30.705,6.621,46.345c0.177,5.802,0.116,11.793-0.181,18.362
	c-0.198,3.827-0.384,7.422-0.746,10.922c-0.138,1.707-0.216,3.672-0.216,5.63c1.667,13.058,7.531,25.22,16.712,34.655
	c10.574,12.481,22.39,23.856,35.263,33.948c15.996,12.984,38.897,12.998,54.91,0.034c12.882-10.097,24.703-21.478,35.285-33.965
	c9.188-9.438,15.059-21.606,16.728-34.672c0-1.957-0.077-3.923-0.233-5.802c-0.344-3.328-0.53-6.922-0.711-10.422
	c-0.314-6.896-0.375-12.889-0.198-18.647c0.557-15.654,2.776-31.204,6.621-46.388c1.195-4.725,5.994-7.587,10.72-6.392
	s7.587,5.994,6.392,10.72c-3.532,13.957-5.572,28.25-6.087,42.638c-0.16,5.267-0.103,10.828,0.173,16.948
	c0.177,3.422,0.34,6.707,0.668,9.905c0.216,2.535,0.31,4.983,0.31,7.439c0,13.681-6.969,29.112-20.719,45.861
	c-11.337,13.412-24.01,25.637-37.824,36.483C283.669,337.671,270.05,342.495,256.012,342.467z"/>
<path d="M155.516,247.614c-1.297,0.001-2.588-0.171-3.84-0.508c-9.526-2.535-15.147-13.387-17.699-34.164
	c-0.595-4.84,2.846-9.246,7.685-9.841c4.84-0.595,9.246,2.846,9.841,7.685c0.38,6.375,1.954,12.621,4.643,18.414
	c1.696-1.469,3.21-3.136,4.509-4.966c2.908-3.912,8.437-4.726,12.349-1.818c3.912,2.908,4.726,8.437,1.818,12.349
	c-0.01,0.013-0.019,0.026-0.029,0.039C170.742,241.871,163.6,246.617,155.516,247.614z"/>
<path d="M356.481,247.614c-8.084-0.997-15.226-5.743-19.275-12.81c-2.931-3.895-2.148-9.428,1.747-12.359s9.428-2.148,12.359,1.747
	c0.011,0.014,0.021,0.028,0.031,0.042c1.299,1.83,2.813,3.497,4.509,4.966c2.688-5.793,4.263-12.039,4.643-18.414
	c0.595-4.84,5.001-8.28,9.841-7.685c4.84,0.595,8.28,5.001,7.685,9.841c-2.552,20.776-8.172,31.629-17.699,34.164
	C359.069,247.443,357.779,247.615,356.481,247.614z"/>
<g>
	<path id="SVGCleanerId_0_1_" d="M264.826,256.002h-17.655c-4.875,0-8.827-3.952-8.827-8.827c0-4.875,3.952-8.827,8.827-8.827
		h17.655c4.875,0,8.827,3.952,8.827,8.827C273.654,252.051,269.702,256.002,264.826,256.002z"/>
</g>
<path d="M229.516,194.209h-35.31c-4.875,0-8.827-3.952-8.827-8.827c0-4.875,3.952-8.827,8.827-8.827h35.31
	c4.875,0,8.827,3.952,8.827,8.827C238.343,190.257,234.392,194.209,229.516,194.209z"/>
<path d="M317.791,194.209h-35.31c-4.875,0-8.827-3.952-8.827-8.827c0-4.875,3.952-8.827,8.827-8.827h35.31
	c4.875,0,8.827,3.952,8.827,8.827C326.619,190.257,322.667,194.209,317.791,194.209z"/>
<path d="M211.86,211.864c-4.874,0.001-8.826-3.949-8.827-8.823c0-0.001,0-0.003,0-0.004v-17.655c0-4.875,3.952-8.827,8.827-8.827
	c4.875,0,8.827,3.952,8.827,8.827v17.655c0.001,4.874-3.949,8.826-8.823,8.827C211.864,211.864,211.863,211.864,211.86,211.864z"/>
<path d="M300.137,211.864c-4.874,0.001-8.826-3.949-8.827-8.823c0-0.001,0-0.003,0-0.004v-17.655c0-4.875,3.952-8.827,8.827-8.827
	c4.875,0,8.827,3.952,8.827,8.827v17.655c0.001,4.874-3.949,8.826-8.823,8.827C300.14,211.864,300.138,211.864,300.137,211.864z"/>
<path style="fill:#2E7D32;" d="M379.938,125.266c0.241-2.795-0.182-5.609-1.236-8.209l-21.098-52.701
	C344.25,30.813,311.787,8.81,275.684,8.83h-39.371c-36.103-0.02-68.565,21.983-81.919,55.525l-21.098,52.701
	c-1.053,2.6-1.477,5.414-1.236,8.209c-10.411,3.806-17.326,13.721-17.302,24.805v44.138c0.029,9.739,7.917,17.627,17.655,17.655
	h10.328c-1.061-8.787-1.562-17.632-1.501-26.483c0-35.31,19.862-17.655,19.862-17.655l1.413-0.353
	c-0.265-1.236-0.618-2.472-0.971-3.707c-1.396-5.225-2.253-10.579-2.559-15.978v-0.883c-0.073-0.378-0.103-0.763-0.088-1.148v-0.618
	c0.303-1.414,0.973-2.724,1.942-3.796c7.944-8.739,38.665-15.625,77.506-17.302c5.738-0.265,11.653-0.353,17.655-0.353
	c46.963,0,86.069,7.592,95.161,17.655c0.97,1.073,1.639,2.381,1.942,3.796v0.618c0.015,0.385-0.015,0.77-0.088,1.148v0.883
	c-0.307,5.399-1.165,10.753-2.561,15.978c-0.353,1.236-0.706,2.472-0.971,3.707l1.413,0.353c3.021-2.75,6.949-4.291,11.035-4.325
	c4.59,0.618,8.827,5.65,8.827,21.981c0.061,8.851-0.44,17.695-1.501,26.483h10.328c9.739-0.029,17.627-7.917,17.655-17.655v-44.138
	C397.264,138.987,390.348,129.072,379.938,125.266z"/>
<path style="fill:#4CAF50;" d="M361.93,150.071v13.329c-4.085,0.035-8.014,1.575-11.035,4.325l-1.413-0.353
	c0.265-1.236,0.618-2.472,0.971-3.707c1.396-5.225,2.253-10.579,2.561-15.978v-0.883c0.073-0.378,0.103-0.763,0.088-1.148v-0.618
	c-0.303-1.414-0.973-2.724-1.942-3.796c-9.092-10.063-48.199-17.655-95.161-17.655c-6.003,0-11.917,0.088-17.655,0.353
	c-38.842,1.678-69.561,8.562-77.506,17.302c-0.97,1.073-1.639,2.381-1.942,3.796v0.618c-0.015,0.385,0.015,0.77,0.088,1.148v0.883
	c0.307,5.399,1.165,10.753,2.559,15.978c0.353,1.236,0.706,2.472,0.971,3.707l-1.413,0.353c0,0-19.862-17.655-19.862,17.655
	c-0.061,8.851,0.44,17.695,1.501,26.483h-10.328c-9.739-0.029-17.627-7.917-17.655-17.655v-44.138
	c-0.024-11.084,6.891-20.999,17.302-24.805c-0.241-2.795,0.182-5.609,1.236-8.209l21.098-52.701
	C167.747,30.813,200.211,8.81,236.313,8.83h4.06c36.103-0.02,68.565,21.983,81.919,55.525l21.098,52.701
	c1.053,2.6,1.477,5.414,1.236,8.209C355.038,129.072,361.954,138.987,361.93,150.071z"/>
<path d="M379.585,220.692h-10.328c-4.874,0-8.826-3.951-8.826-8.825c0-0.387,0.026-0.774,0.076-1.157
	c1.009-8.404,1.484-16.863,1.422-25.328c0.325-4.435-0.299-8.886-1.832-13.06c-1.206,0.496-2.33,1.17-3.336,2
	c-2.172,1.956-5.178,2.692-8.009,1.965l-1.414-0.353c-4.624-1.155-7.496-5.773-6.487-10.432c0.31-1.422,0.711-2.853,1.117-4.267
	c1.209-4.572,1.956-9.253,2.228-13.974l-0.009-0.457v-0.181c-6.021-5.698-37.694-14.207-88.189-14.207
	c-50.143,0-81.72,8.388-88.189,14.319v0.957c0.31,4.652,1.074,9.263,2.281,13.767c0.344,1.19,0.746,2.621,1.056,4.043
	c1.008,4.658-1.863,9.276-6.487,10.431l-1.414,0.353c-2.83,0.725-5.836-0.013-8.009-1.965c-1.007-0.83-2.133-1.505-3.34-2
	c-1.529,4.175-2.152,8.627-1.828,13.06c-0.061,8.464,0.413,16.924,1.422,25.328c0.639,4.833-2.76,9.267-7.593,9.906
	c-0.384,0.05-0.77,0.076-1.157,0.076h-10.328c-14.619-0.016-26.467-11.863-26.483-26.483v-44.138
	c0.023-12.566,6.711-24.176,17.569-30.5c0.322-1.949,0.846-3.859,1.565-5.698L146.2,61.07
	c14.579-36.984,50.358-61.231,90.112-61.069h39.37c39.762-0.161,75.548,24.098,90.12,61.095l21.091,52.672
	c0.733,1.873,1.269,3.818,1.599,5.802c10.862,6.32,17.553,17.932,17.573,30.5v44.138
	C406.052,208.828,394.203,220.676,379.585,220.692z M379.003,203.036h0.581c4.873-0.005,8.823-3.954,8.827-8.827v-44.138
	c-0.002-7.368-4.592-13.956-11.504-16.509c-3.774-1.382-6.14-5.137-5.758-9.138c0.106-1.431-0.127-2.866-0.681-4.19l-21.06-52.595
	c-11.92-30.266-41.195-50.115-73.724-49.983h-39.371c-32.52-0.134-61.79,19.702-73.715,49.957l-21.108,52.724
	c-0.531,1.293-0.751,2.693-0.643,4.086c0.382,4.001-1.985,7.756-5.758,9.138c-6.911,2.553-11.503,9.141-11.504,16.509v44.138
	c0.005,4.873,3.954,8.823,8.827,8.827h0.581c-0.387-5.44-0.581-11.345-0.581-17.655c0-5.948,0-24.043,12.181-29.508
	c1.935-0.873,4.028-1.345,6.151-1.388c-0.284-2.164-0.478-4.276-0.581-6.362l-0.004-0.604c-0.068-0.618-0.098-1.24-0.09-1.862
	c0.001-0.835,0.068-1.667,0.198-2.492c0.645-2.946,2.051-5.671,4.077-7.905c13.664-15.112,63.31-20.499,101.655-20.499
	s87.991,5.388,101.711,20.561c2,2.221,3.385,4.925,4.022,7.845c0.131,0.615,0.197,1.242,0.198,1.871
	c0.014,0.8-0.015,1.599-0.086,2.396v0.259c-0.107,2.293-0.306,4.543-0.6,6.793c2.126,0.039,4.222,0.511,6.159,1.388
	c12.181,5.465,12.181,23.56,12.181,29.508C379.585,191.691,379.39,197.597,379.003,203.036z"/>
<g>
</g>
<g>
</g>
<g>
</g>
<g>
</g>
<g>
</g>
<g>
</g>
<g>
</g>
<g>
</g>
<g>
</g>
<g>
</g>
<g>
</g>
<g>
</g>
<g>
</g>
<g>
</g>
<g>
</g>
</svg>
