<svg id="_x33_0" enable-background="new 0 0 64 64" height="512" viewBox="0 0 64 64" width="512" xmlns="http://www.w3.org/2000/svg"><g><g><g><path d="m46 54v8h-4v-5c0-.55-.45-1-1-1h-6c-.55 0-1 .45-1 1v5h-4v-5c0-.55-.45-1-1-1h-6c-.55 0-1 .45-1 1v5h-4v-16-7-5.5l6-1v6.5 1c0 1.1.9 2 2 2h6 6c1.1 0 2-.9 2-2v-1-6.47l5.46.96c.01 0 .03 0 .04.01.17.02.34.05.5.08z" fill="#aab2bd"/></g><g><path d="m30 57v5h-8v-5c0-.55.45-1 1-1h6c.55 0 1 .45 1 1z" fill="#ffeaa7"/></g><g><path d="m42 57v5h-8v-5c0-.55.45-1 1-1h6c.55 0 1 .45 1 1z" fill="#ffeaa7"/></g><g><path d="m42 47v4c0 .55-.45 1-1 1h-18c-.55 0-1-.45-1-1v-4c0-.55.45-1 1-1h18c.55 0 1 .45 1 1z" fill="#fcd770"/></g><g><path d="m40 39v1c0 1.1-.9 2-2 2h-6-6c-1.1 0-2-.9-2-2v-1l8-3z" fill="#5cd6b3"/></g><g><path d="m32 36-8 3v-6.5l3-.5z" fill="#48cfad"/></g><g><path d="m40 32.53v6.47l-8-3 5-4 .86.15z" fill="#48cfad"/></g><g><path d="m14.67 34.06 3.33-.56v5.5 7h-6-3.78c-1.72 0-3.28-.7-4.4-1.82-.01-.01-.03-.03-.03-.04-1.11-1.12-1.79-2.66-1.79-4.36 0-1.16.33-2.3.94-3.29l.25-.39 8.1-12.97c.44-.7 1.21-1.13 2.04-1.13.23 0 .45.03.67.1.2.05.39.13.57.24l3.27 1.96c.39.24.7.57.89.96.18.33.27.7.27 1.09 0 .43-.11.84-.33 1.21l-1.55 2.52z" fill="#5cd6b3"/></g><g><path d="m56 58v4h-10v-8-20.42c.9.17 1.78.44 2.61.81 1.12.48 2.17 1.14 3.1 1.94 1.21 1.04 2.19 2.29 2.91 3.67.09.17.18.34.26.52.5 1.1.84 2.27 1.01 3.48h-4.89c-.55 0-1 .45-1 1v4c0 .55.45 1 1 1h5z" fill="#5cd6b3"/></g><g><path d="m56 45.65v4.35h-5c-.55 0-1-.45-1-1v-4c0-.55.45-1 1-1h4.89c.07.54.11 1.09.11 1.65z" fill="#37bc9b"/></g><g><path d="m45.5 33.5c-.01-.01-.03-.01-.04-.01l-5.46-.96-2.14-.38v-.01l3.14-3.14z" fill="#969faa"/></g><g><path d="m43.5 26.5.44-.44c.68-.68 1.6-1.06 2.56-1.06.69 0 1.36.2 1.94.57.22.13.43.3.62.49l2.23 2.23c.07.07.13.14.19.21.34.43.52.95.52 1.5 0 .64-.25 1.25-.71 1.71l-2.68 2.68c-.83-.37-1.71-.64-2.61-.81-.16-.03-.33-.06-.5-.08l-4.5-4.5z" fill="#969faa"/></g><g><path d="m54.5 19.5-3 3-1.5-1.5v-3h3z" fill="#ccd1d9"/></g><g><path d="m60 20-8.52 8.5c-.06-.07-.12-.14-.19-.21l-2.23-2.23c-.19-.19-.4-.36-.62-.49v-.01l3.06-3.06 3-3 2.5-2.5z" fill="#aab2bd"/></g><g><path d="m61.38 15.62c.38.38.62.92.62 1.5 0 .56-.22 1.1-.62 1.5l-1.38 1.38-3-3 1.38-1.38c.4-.4.94-.62 1.5-.62.58 0 1.12.24 1.5.62z" fill="#ccd1d9"/></g><g><path d="m44 10h-9-6-9c0-4.42 3.58-8 8-8h8c4.42 0 8 3.58 8 8z" fill="#48cfad"/></g><g><path d="m35 10h-6-9v4l3.66-1.83c.22-.11.47-.17.72-.17.9 0 1.62.72 1.62 1.62 0 .13-.01.26-.03.38h3.03 6 5 4v-4z" fill="#37bc9b"/></g><g><path d="m25.07 25-1.25-.39c-1.03-.35-1.93-.98-2.61-1.82l2.08-2.08c.46-.46.71-1.07.71-1.71v2c0 1.46.39 2.83 1.07 4z" fill="#656d78"/></g><g><path d="m44 14v5.31c0 1.1-.33 2.18-.94 3.1-.69 1.03-1.7 1.8-2.88 2.2l-1.25.39c.68-1.17 1.07-2.54 1.07-4v-7z" fill="#656d78"/></g><g><path d="m36 28 1 4-5 4-5-4 1-4 .03-.06c1.17.67 2.52 1.06 3.97 1.06s2.8-.39 3.97-1.06z" fill="#f0d0b4"/></g><g><path d="m40 14v7c0 1.46-.39 2.83-1.07 4-.71 1.23-1.73 2.24-2.96 2.94-1.17.67-2.52 1.06-3.97 1.06s-2.8-.39-3.97-1.06c-.62-.35-1.19-.78-1.69-1.28-.49-.49-.92-1.05-1.27-1.66-.68-1.17-1.07-2.54-1.07-4v-2c0-.64-.25-1.25-.71-1.71l-.21-.21 1.8-1.28c.6-.43.99-1.08 1.09-1.8h3.03 6z" fill="#f0d0b4"/></g><g><path d="m23.08 17.08.21.21c.46.46.71 1.07.71 1.71s-.25 1.25-.71 1.71l-2.08 2.08-2.47 2.47h-.01c-.19-.39-.5-.72-.89-.96l-3.27-1.96c-.18-.11-.37-.19-.57-.24v-.01-2c0-1.89 1.07-3.63 2.76-4.47l3.24-1.62 3.66-1.83c.22-.11.47-.17.72-.17.9 0 1.62.72 1.62 1.62 0 .13-.01.26-.03.38-.1.72-.49 1.37-1.09 1.8z" fill="#f0d0b4"/></g></g><g><path d="m23 53h18c1.103 0 2-.897 2-2v-4c0-1.103-.897-2-2-2h-18c-1.103 0-2 .897-2 2v4c0 1.103.897 2 2 2zm0-6h18l.001 4h-18.001z"/><path d="m63 17.121c0-1.721-1.4-3.121-3.121-3.121-.834 0-1.618.325-2.207.914l-3.172 3.172-1.086-1.086h-4.414v4.414l1.086 1.086-1.842 1.842c-.546-.223-1.136-.342-1.744-.342-1.234 0-2.395.48-3.268 1.354l-5.49 5.49-.614-2.457c.973-.677 1.802-1.542 2.444-2.54l.928-.292c1.382-.461 2.588-1.382 3.395-2.593.723-1.086 1.105-2.348 1.105-3.652v-9.31c0-4.962-4.038-9-9-9h-8c-4.962 0-9 4.038-9 9v3.382l-2.683 1.341c-2.046 1.023-3.317 3.079-3.317 5.367v.952c-1.047.103-1.989.653-2.555 1.559l-8.348 13.358c-.718 1.148-1.097 2.471-1.097 3.824 0 3.98 3.237 7.217 7.217 7.217h8.783v16h40v-17.354c0-3.88-1.689-7.553-4.635-10.078-.645-.553-1.34-1.033-2.068-1.449l1.703-1.705c.645-.645 1-1.502 1-2.414 0-.466-.095-.918-.272-1.334l9.358-9.338c.589-.589.914-1.373.914-2.207zm-13.086 8.379 7.086-7.086 1.583 1.583-7.094 7.078zm1.086-4.914v-1.586h1.586l.5.5-1.586 1.586zm-34.327 12.122 2.865-4.645c.302-.518.462-1.109.462-1.709 0-.284-.038-.563-.107-.832l1.31-1.31c.667.596 1.445 1.059 2.314 1.348l.912.287c.641.998 1.471 1.863 2.444 2.54l-.684 2.735zm6.433-10.4c.048.327.113.649.196.964-.241-.139-.469-.298-.681-.479zm3.618 10.752 3.277 2.622-5.001 1.875v-4.21zm-1.724 6.633 7-2.625 7 2.625v.307c0 .552-.449 1-1 1h-6-6c-.551 0-1-.448-1-1zm14-2.136-5.001-1.875 3.272-2.618 1.729.305zm.915-6.058 1.085-1.085 1.55 1.55zm-4.041.121-3.874 3.099-3.874-3.099.565-2.259c1.025.408 2.14.639 3.309.639s2.284-.231 3.309-.639zm-3.874-3.62c-3.86 0-7-3.14-7-7v-2c0-.615-.174-1.199-.477-1.716l.933-.667c.573-.41.988-.98 1.248-1.617h12.296v6c0 3.86-3.14 7-7 7zm2-17v2h-4v-2zm2 2v-2h7v2zm6.23 8.852c-.393.59-.927 1.072-1.533 1.422.191-.728.303-1.488.303-2.274v-6h2v4.31c0 .907-.266 1.786-.77 2.542zm-14.23-18.852h8c3.519 0 6.432 2.613 6.92 6h-21.84c.488-3.387 3.401-6 6.92-6zm-7 8h3.382 3.618v2h-1.082c-.28-1.145-1.307-2-2.537-2-.404 0-.809.096-1.171.276l-2.21 1.106zm-3.789 5.513 6.894-3.447c.392-.197.895.116.895.552 0 .543-.264 1.056-.706 1.371l-5.875 4.197 1.162 1.628 3.306-2.362c.073.173.113.359.113.548 0 .372-.151.737-.414 1l-3.78 3.78c-.142-.121-.29-.236-.452-.333l-3.268-1.961c-.028-.017-.058-.028-.086-.044v-1.352c0-1.525.847-2.896 2.211-3.577zm-4.211 28.487v-2h-2v2h-2.783c-1.003 0-1.932-.298-2.728-.791l2.066-1.377-1.109-1.664-2.461 1.641c-.614-.855-.985-1.895-.985-3.026 0-.83.208-1.638.584-2.372l2.968 1.484.895-1.789-2.826-1.413 3.434-5.494 4.43 2.658 1.029-1.715-4.399-2.64 3.026-4.842c.393-.629 1.279-.842 1.915-.46l3.268 1.961c.417.25.676.707.676 1.193 0 .246-.065.488-.177.68l-1.011 1.64-2.257-1.505-1.109 1.664 2.316 1.544-3.246 5.263-3.068-1.533-.895 1.789 2.908 1.454-1.312 2.127 1.702 1.051 3.428-5.558 1.721-.29v3.32h-2v2h2v5zm6-10.653 4-.667v6.32c0 1.654 1.346 3 3 3h6 6c1.654 0 3-1.346 3-3v-6.278l4 .706v26.572h-2v-4c0-1.103-.897-2-2-2h-6c-1.103 0-2 .897-2 2v4h-2v-4c0-1.103-.897-2-2-2h-6c-1.103 0-2 .897-2 2v4h-2zm22 26.653h-6v-4h6zm-12 0h-6v-4h6zm26-15.354v3.354h-4v-4h3.965c.012.215.035.429.035.646zm-2.175-6.646h-1.825v2h2.996c.29.642.514 1.312.68 2h-3.676c-1.103 0-2 .897-2 2v4c0 1.103.897 2 2 2h4v6h-4v2h4v2h-8v-6h6v-2h-6v-18.135c1.487.451 2.871 1.199 4.063 2.22.668.573 1.253 1.219 1.762 1.915zm-2.239-8-2.21 2.211c-.773-.289-1.574-.499-2.389-.638l-3.573-3.573 1.086-1.086 2.793 2.793 1.414-1.414-2.764-2.764c1.011-.734 2.512-.66 3.411.239l2.232 2.232c.263.263.414.628.414 1s-.151.737-.414 1zm10.086-13.087-.673.672-1.585-1.585.672-.672c.212-.211.493-.328.793-.328.618 0 1.121.503 1.121 1.121 0 .3-.117.581-.328.792z"/></g></g></svg>