<svg id="Capa_1" enable-background="new 0 0 512 512" height="512" viewBox="0 0 512 512" width="512" xmlns="http://www.w3.org/2000/svg"><g><g><path d="m383.31 420.323-109.947 78.135c-10.396 7.388-24.329 7.388-34.725 0l-109.948-78.135c-7.911-5.622-12.61-14.727-12.61-24.432v-357.918c0-16.554 13.419-29.973 29.973-29.973h219.894c16.553 0 29.973 13.419 29.973 29.973v357.919c0 9.705-4.7 18.809-12.61 24.431z" fill="#7c7f2a"/><path d="m383.31 402.323-109.947 78.136c-10.396 7.388-24.329 7.388-34.725 0l-109.948-78.136c-7.911-5.622-12.61-14.727-12.61-24.432v18c0 9.705 4.699 18.81 12.61 24.432l109.947 78.136c10.396 7.388 24.329 7.388 34.725 0l109.947-78.136c7.911-5.622 12.61-14.727 12.61-24.432v-18c.001 9.706-4.699 18.81-12.609 24.432z" fill="#6f6f26"/><path d="m116.08 158.809v52.739l139.92 99.436 139.92-99.436v-52.739l-139.92 99.436z" fill="#f7e471"/><path d="m116.08 193.548v18l139.92 99.436 139.92-99.436v-18l-137.023 97.378c-1.734 1.233-4.059 1.233-5.793 0z" fill="#f1cb66"/><path d="m116.08 273.271v52.739l139.92 99.437 139.92-99.437v-52.739l-139.92 99.436z" fill="#f7e471"/><path d="m116.08 308.01v18l139.92 99.437 139.92-99.436v-18l-137.023 97.378c-1.734 1.232-4.059 1.232-5.793 0z" fill="#f1cb66"/><path d="m262.682 70.358 11.837 18.95c1.082 1.733 2.795 2.977 4.777 3.471l21.681 5.402c5.652 1.408 7.874 8.25 4.13 12.711l-14.365 17.114c-1.313 1.565-1.968 3.578-1.825 5.616l1.562 22.289c.407 5.81-5.413 10.038-10.812 7.856l-20.715-8.373c-1.894-.766-4.011-.766-5.905 0l-20.715 8.373c-5.4 2.183-11.22-2.046-10.812-7.856l1.562-22.289c.143-2.038-.511-4.052-1.825-5.616l-14.365-17.114c-3.744-4.461-1.521-11.303 4.13-12.711l21.681-5.402c1.982-.494 3.695-1.738 4.777-3.471l11.837-18.95c3.086-4.94 10.28-4.94 13.365 0z" fill="#f7e471"/><g><path d="m290.064 149.969-31.111-12.575c-1.894-.766-4.011-.766-5.905 0l-31.111 12.575-.417 5.942c-.407 5.81 5.413 10.038 10.812 7.856l20.715-8.373c1.894-.766 4.011-.766 5.905 0l20.715 8.373c5.4 2.183 11.22-2.046 10.812-7.856z" fill="#f1cb66"/></g></g><g><path d="m366.164 0h-220.328c-20.703 0-37.547 16.843-37.547 37.547v358.624c0 12.135 5.905 23.576 15.797 30.605l34.633 24.612c3.384 2.406 8.074 1.61 10.479-1.772 2.404-3.383 1.611-8.074-1.772-10.479l-34.633-24.612c-5.933-4.216-9.474-11.077-9.474-18.354v-55.459l128.327 91.198c2.607 1.853 6.099 1.853 8.707 0l128.327-91.198v55.459c0 7.277-3.541 14.139-9.474 18.354l-110.164 78.29c-7.802 5.544-18.284 5.544-26.086 0l-50.984-36.233c-3.385-2.406-8.074-1.61-10.479 1.772-2.404 3.383-1.611 8.074 1.772 10.479l50.984 36.233c6.506 4.623 14.128 6.934 21.751 6.934 7.621 0 15.246-2.312 21.75-6.935l110.164-78.29c9.892-7.029 15.797-18.47 15.797-30.605v-358.623c-.001-20.704-16.844-37.547-37.547-37.547zm-220.328 15.03h220.328c12.416 0 22.517 10.101 22.517 22.517v117.196l-132.681 94.291-55.598-39.511c-3.386-2.406-8.075-1.61-10.479 1.772-2.404 3.383-1.611 8.074 1.772 10.479l59.951 42.605c2.607 1.853 6.099 1.853 8.707 0l128.327-91.198v34.405l-132.68 94.291-132.681-94.291v-34.406l43.829 31.148c1.321.939 2.842 1.39 4.346 1.39 2.351 0 4.666-1.1 6.132-3.162 2.404-3.383 1.611-8.074-1.772-10.479l-52.536-37.335v-117.195c.001-12.416 10.102-22.517 22.518-22.517zm110.164 401.535-132.681-94.291v-34.405l128.327 91.198c2.607 1.853 6.099 1.853 8.707 0l62.467-44.392c3.383-2.404 4.176-7.096 1.772-10.479-2.404-3.382-7.094-4.178-10.479-1.772l-58.113 41.297-132.681-94.291v-43.406l128.327 91.198c2.607 1.853 6.099 1.853 8.707 0l128.327-91.198v43.406l-50.02 35.548c-8.049 5.542.882 18.016 8.707 12.251l41.314-29.36v34.405z"/><path d="m215.432 132.588c.065.076.096.173.089.271l-1.566 22.333c-.374 5.337 1.986 10.4 6.314 13.544 4.341 3.157 9.905 3.815 14.832 1.82l20.756-8.389c.092-.038.194-.037.286 0l20.756 8.389c4.958 2.005 10.504 1.325 14.832-1.819s6.688-8.208 6.314-13.544l-1.566-22.332c-.007-.099.025-.196.088-.271l14.395-17.148c3.438-4.097 4.505-9.581 2.851-14.669-1.653-5.087-5.739-8.896-10.929-10.189l-21.723-5.412c-.097-.024-.179-.084-.231-.167l-11.86-18.987c0-.001 0-.001 0-.001-2.835-4.537-7.72-7.246-13.07-7.246s-10.235 2.709-13.07 7.246l-11.858 18.983c-.054.086-.136.146-.232.17l-21.724 5.412c-5.19 1.293-9.276 5.102-10.929 10.189-1.654 5.088-.587 10.572 2.852 14.67zm-2.951-27.172c.065-.2.178-.228.269-.251l21.725-5.412c3.895-.972 7.212-3.382 9.342-6.789l11.86-18.987c.049-.08.111-.179.322-.179.21 0 .273.099.322.179l11.862 18.99c2.128 3.405 5.445 5.815 9.342 6.786l21.724 5.412c.091.023.204.051.269.251.065.201-.01.291-.069.362l-14.395 17.147c-2.581 3.076-3.849 6.977-3.569 10.984l1.566 22.333c.007.093.015.21-.156.334-.172.125-.28.079-.366.044l-20.756-8.39c-3.724-1.504-7.826-1.505-11.55 0l-20.756 8.39c-.087.034-.195.08-.366-.045-.17-.123-.162-.24-.156-.334l1.566-22.334c.281-4.006-.987-7.907-3.57-10.983l-14.393-17.147c-.057-.07-.133-.16-.067-.361z"/></g></g></svg>