<svg height="512" viewBox="0 0 128 128" width="512" xmlns="http://www.w3.org/2000/svg"><g><g><path d="m38.978 38v2.568a22.226 22.226 0 0 0 .5 4.674l1.509 6.891c.788 3.611 1.317 7.465 2.71 10.9a21.929 21.929 0 0 0 40.606 0c1.393-3.437 1.922-7.291 2.709-10.9l1.51-6.891a22.226 22.226 0 0 0 .5-4.674v-2.568z" fill="#f0d0b4"/><path d="m39.481 45.242a21.9 21.9 0 0 1 -.505-4.677v-1.307a6.9 6.9 0 0 0 -.926-.07 6.81 6.81 0 1 0 2.935 12.947z" fill="#ddb79b"/><g fill="#424242"><path d="m64.249 53.4h1.957a1.75 1.75 0 0 0 0-3.5h-1.876l.7-4.608a1.75 1.75 0 1 0 -3.461-.524l-.709 4.687a3.43 3.43 0 0 0 3.389 3.945z"/><path d="m57.166 40.417a4.167 4.167 0 1 0 -4.166 4.166 4.171 4.171 0 0 0 4.166-4.166z"/><path d="m75 36.25a4.167 4.167 0 1 0 4.166 4.167 4.172 4.172 0 0 0 -4.166-4.167z"/><path d="m69.2 57.931a6.987 6.987 0 0 1 -5.325 2.069 6.987 6.987 0 0 1 -5.326-2.07 1.75 1.75 0 0 0 -2.7 2.224 10.376 10.376 0 0 0 8.026 3.346 10.371 10.371 0 0 0 8.025-3.344 1.75 1.75 0 1 0 -2.7-2.225z"/></g><path d="m89.7 39.188a6.058 6.058 0 0 0 -.678.052v1.328a22.226 22.226 0 0 1 -.5 4.674l-1.51 6.891-.021.1a6.732 6.732 0 0 0 2.709.578 6.81 6.81 0 0 0 0-13.619z" fill="#ddb79b"/><path d="m91.628 28.125h-2.606v-6.378a20 20 0 0 0 -20-20h-10.044a20 20 0 0 0 -20 20v6.378h-2.606a5.875 5.875 0 0 0 -5.872 5.875 4 4 0 0 0 4 4h59a4 4 0 0 0 4-4 5.875 5.875 0 0 0 -5.872-5.875z" fill="#5e8569"/><path d="m69.875 8.25a3 3 0 0 0 -3 3v.125a3 3 0 0 0 3 3h2.437a3 3 0 0 1 3 3 3 3 0 0 0 3 3h10.641a19.894 19.894 0 0 0 -5.2-12.125z" fill="#85bc94"/><path d="m38.978 21.747v3.066h18.459a3 3 0 0 0 3-3v-.125a3 3 0 0 0 -3-3h-2.437a3 3 0 0 1 -3-3 3 3 0 0 0 -3-3h-7.836a19.876 19.876 0 0 0 -2.186 9.059z" fill="#85bc94"/><path d="m80.648 56.531a2.734 2.734 0 0 0 -2.734 2.735v2a2.734 2.734 0 0 1 -2.734 2.734h-1.061a2.735 2.735 0 1 0 0 5.469h6.12a21.828 21.828 0 0 0 4.061-6.434 37.288 37.288 0 0 0 1.817-6.5z" fill="#5e8569"/><path d="m51.326 48.341h-11.169l.83 3.792c.784 3.595 1.314 7.429 2.692 10.855l4.951-2.21a2.362 2.362 0 0 0 1.278-2.9l-.464-1.4a2.36 2.36 0 0 1 1.256-2.891l1.608-.737a2.362 2.362 0 0 0 -.983-4.509z" fill="#5e8569"/><path d="m89.431 87.609c-.879-.069-1.76-.138-2.634-.235a22.825 22.825 0 0 1 -3.938-.722l-18.985 14.1 13.109 6.005z" fill="#424242"/><path d="m119.5 110.83v15.42h-111v-15.42a22.417 22.417 0 0 1 16.5-21.61c4.31-1.18 8.84-1.31 13.31-1.64l12.46 19.18 11.35-5.21 1.75-.8 1.75.8 11.36 5.21 12.45-19.15c1.28.1 2.55.19 3.81.3a55.319 55.319 0 0 1 9.76 1.31 22.417 22.417 0 0 1 16.5 21.61z" fill="#5e8569"/><g fill="#424242"><path d="m63.874 100.752-18.891-14.031a9.806 9.806 0 0 1 -3.124.547c-1.175.135-2.359.23-3.546.315l12.452 19.174z"/><path d="m65.62 100.75v25.5h-3.5v-25.5a1.75 1.75 0 0 1 3.5 0z"/><path d="m103.25 111.62v14.63h-3.5v-14.63a1.75 1.75 0 0 1 3.5 0z"/></g><path d="m26.5 116.467h10.337a2.142 2.142 0 0 1 2.141 2.141 2.14 2.14 0 0 0 2.141 2.141h7.834a2.142 2.142 0 0 1 2.141 2.141v1.219a2.142 2.142 0 0 1 -2.141 2.141h-22.453z" fill="#85bc94"/><path d="m115.585 98.207h-13.273a3 3 0 0 0 -3 3v.125a3 3 0 0 0 3 3h2.438a3 3 0 0 1 3 3 3 3 0 0 0 3 3h8.729a22.288 22.288 0 0 0 -3.894-12.125z" fill="#85bc94"/><path d="m76.676 84.352 2.514-.513c-.111-.173-.222-.347-.325-.54a6.741 6.741 0 0 1 -.769-2.332l-1.096-8.576a21.855 21.855 0 0 1 -26 0l-1.1 8.576a6.811 6.811 0 0 1 -1.13 2.864l2.549.521a63.358 63.358 0 0 0 25.357 0z" fill="#ddb79b"/><path d="m79.19 83.839-2.514.513a63.358 63.358 0 0 1 -25.352 0l-2.549-.521a7.577 7.577 0 0 1 -3.792 2.89l18.891 14.031 18.985-14.1a6.6 6.6 0 0 1 -3.669-2.813z" fill="#85bc94"/><path d="m9.2 105.247h21.227a2.141 2.141 0 0 0 2.141-2.141v-1.219a2.14 2.14 0 0 0 -2.141-2.141h-7.834a2.142 2.142 0 0 1 -2.141-2.141 2.14 2.14 0 0 0 -2.141-2.141h-3.686a22.373 22.373 0 0 0 -5.425 9.783z" fill="#85bc94"/><path d="m76.316 126.25v-4.875a3.063 3.063 0 0 1 3.063-3.062h.121a3.063 3.063 0 0 0 3.062-3.063 3.063 3.063 0 0 1 3.063-3.062h.125a3.062 3.062 0 0 1 3.062 3.062v11z" fill="#85bc94"/><path d="m28.25 111.62v14.63h-3.5v-14.63a1.75 1.75 0 0 1 3.5 0z" fill="#424242"/></g><g fill="#332319"><path d="m64.249 53.4h1.957a1.75 1.75 0 0 0 0-3.5h-1.876l.7-4.608a1.75 1.75 0 1 0 -3.461-.524l-.709 4.687a3.43 3.43 0 0 0 3.389 3.945z"/><path d="m63.875 63.5a10.371 10.371 0 0 0 8.025-3.344 1.75 1.75 0 1 0 -2.7-2.225 6.987 6.987 0 0 1 -5.325 2.069 6.987 6.987 0 0 1 -5.326-2.07 1.75 1.75 0 0 0 -2.7 2.224 10.376 10.376 0 0 0 8.026 3.346z"/><path d="m121.228 110.3a24.249 24.249 0 0 0 -17.766-22.775 45.93 45.93 0 0 0 -8.5-1.23c-1.106-.139.968.172-8.677-.759a16.244 16.244 0 0 1 -2.875-.55 4.84 4.84 0 0 1 -2.741-2.094c-.088-.137-.177-.276-.257-.424a4.992 4.992 0 0 1 -.574-1.725l-.965-7.551a23.546 23.546 0 0 0 5.127-5.78c2.253-3.5 3.276-7.388 4.33-12.98a8.28 8.28 0 0 0 1.37.125 8.575 8.575 0 0 0 4.068-1.027 1.75 1.75 0 0 0 -1.668-3.078 5.047 5.047 0 0 1 -3.052.561c.692-3.511 1.574-5.962 1.717-9.961a5.067 5.067 0 0 1 3.994 4.948 1.75 1.75 0 1 0 3.5 0 8.536 8.536 0 0 0 -3.023-6.516 5.759 5.759 0 0 0 4.017-5.484 7.633 7.633 0 0 0 -7.625-7.625h-.856v-4.628a21.775 21.775 0 0 0 -21.75-21.747h-10.044a21.785 21.785 0 0 0 -21.132 16.61c-.5 1.346-.716 5.809-.618 8.2v1.562h-.856a7.633 7.633 0 0 0 -7.625 7.628 5.755 5.755 0 0 0 3.839 5.417 8.554 8.554 0 0 0 5.464 15.14 8.42 8.42 0 0 0 1.612-.165 56.119 56.119 0 0 0 2.414 9.3 23.623 23.623 0 0 0 7.058 9.5l-.963 7.533a5.066 5.066 0 0 1 -.845 2.123 5.861 5.861 0 0 1 -2.926 2.224 8.061 8.061 0 0 1 -2.57.446c-.057 0-.113 0-.169.011-1.2.138-2.425.234-3.471.309-.685.049-1.372.094-2.058.139a57.968 57.968 0 0 0 -11.592 1.551 24.189 24.189 0 0 0 -17.788 23.3v15.422a1.751 1.751 0 0 0 1.748 1.75h111a1.751 1.751 0 0 0 1.75-1.75v-15.417c0-.179-.018-.353-.022-.533zm-5.993-9.317a20.979 20.979 0 0 1 2.376 7.6h-6.861a1.251 1.251 0 0 1 -1.25-1.25 4.756 4.756 0 0 0 -4.75-4.75h-2.438a1.252 1.252 0 0 1 -1.25-1.25v-.125a1.252 1.252 0 0 1 1.25-1.25h12.317c.21.342.416.678.606 1.028zm-28.851-11.9-10.045 15.455-9.046-4.144 15.921-11.826a24.213 24.213 0 0 0 2.614.442zm-2.463-30.715a22.2 22.2 0 0 1 -4.476 9.351h-5.326a.985.985 0 0 1 -.841-1.5.992.992 0 0 1 .841-.472h1.061a4.49 4.49 0 0 0 4.484-4.484v-2a.985.985 0 0 1 .984-.985h3.293c-.007.032-.013.061-.02.09zm3.064-39.743h-8.673a1.251 1.251 0 0 1 -1.25-1.25 4.755 4.755 0 0 0 -4.75-4.75h-2.437a1.25 1.25 0 0 1 -1.25-1.25v-.125a1.25 1.25 0 0 1 1.25-1.25h13.085a18.3 18.3 0 0 1 4.025 8.625zm-44.716-4.187h6.731a1.251 1.251 0 0 1 1.25 1.25 4.756 4.756 0 0 0 4.75 4.75h2.437a1.25 1.25 0 0 1 1.25 1.25v.125a1.251 1.251 0 0 1 -1.25 1.25h-16.709a19.364 19.364 0 0 1 1.541-8.625zm-5.9 15.437h2.606a1.751 1.751 0 0 0 1.75-1.75v-1.562h16.712a4.755 4.755 0 0 0 4.75-4.75v-.125a4.754 4.754 0 0 0 -4.75-4.75h-2.437a1.251 1.251 0 0 1 -1.25-1.25 4.755 4.755 0 0 0 -4.75-4.75h-4.692a18.214 18.214 0 0 1 14.67-7.438h10.044a18.13 18.13 0 0 1 10 3h-9.147a4.756 4.756 0 0 0 -4.75 4.75v.125a4.756 4.756 0 0 0 4.75 4.75h2.437a1.25 1.25 0 0 1 1.25 1.25 4.756 4.756 0 0 0 4.75 4.75h8.96v6a1.751 1.751 0 0 0 1.75 1.75h2.606a4.13 4.13 0 0 1 4.125 4.125 2.252 2.252 0 0 1 -2.25 2.25h-59.003a2.252 2.252 0 0 1 -2.253-2.25 4.13 4.13 0 0 1 4.125-4.125zm11.414 27.156.465 1.4a.609.609 0 0 1 -.332.751l-3.216 1.435c-.823-2.584-1.552-6.895-2.365-10.526h8.994a.612.612 0 0 1 .255 1.168l-1.612.741a4.106 4.106 0 0 0 -2.189 5.031zm-9.733-5.974a5.059 5.059 0 0 1 -.82-10.052c-.108 2.082 1.134 7.394 1.711 9.972a5 5 0 0 1 -.891.08zm7.95 12.812 3.343-1.492a4.1 4.1 0 0 0 2.226-5.053l-.465-1.4a.61.61 0 0 1 .326-.75l1.608-.737a4.112 4.112 0 0 0 -1.712-7.85h-9.76l-.376-1.722a23.71 23.71 0 0 1 -.462-5.118h8.172a4.064 4.064 0 0 0 -.068.667 4.167 4.167 0 0 0 8.333 0 4.064 4.064 0 0 0 -.067-.667h13.802a4.064 4.064 0 0 0 -.068.667 4.167 4.167 0 0 0 8.333 0 4.064 4.064 0 0 0 -.067-.667h8.173c.127 4.506-1.71 10.009-2.585 15.031h-4.038a4.49 4.49 0 0 0 -4.484 4.485v2a.985.985 0 0 1 -.984.984h-1.061a4.51 4.51 0 0 0 -3.829 2.153 4.485 4.485 0 0 0 3.829 6.819h1.551a20.214 20.214 0 0 1 -23.465-.091 1.735 1.735 0 0 0 -.38-.276 20.071 20.071 0 0 1 -5.825-6.983zm18 14.558a23.682 23.682 0 0 0 11.619-3.027l.74 5.791a8.079 8.079 0 0 0 .308 1.379l-.341.069a61.277 61.277 0 0 1 -24.652 0l-.363-.074a8.322 8.322 0 0 0 .33-1.374l.74-5.791a23.68 23.68 0 0 0 11.619 3.027zm-22.022 10.589a11.873 11.873 0 0 0 2.669-.364l3.221 2.391a1.75 1.75 0 0 0 2.087-2.809l-1.755-1.304a9.133 9.133 0 0 0 1.286-1.167l1.489.3a64.751 64.751 0 0 0 26.052 0l1.425-.291a8.1 8.1 0 0 0 1.17 1.1l-15.747 11.7-2.65-1.968a1.75 1.75 0 1 0 -2.087 2.809l1.319.98-9.046 4.143-10.038-15.455c.201-.021.403-.042.605-.065zm-30.146 13.938a20.592 20.592 0 0 1 3.569-5.74h2.91a.391.391 0 0 1 .391.391 3.9 3.9 0 0 0 3.891 3.891h7.834a.391.391 0 0 1 .391.391v1.218a.392.392 0 0 1 -.391.392h-18.806c.069-.182.137-.364.211-.543zm-1.582 7.879a20.471 20.471 0 0 1 .374-3.833h19.8a3.9 3.9 0 0 0 3.891-3.892v-1.218a3.9 3.9 0 0 0 -3.888-3.89h-7.834a.391.391 0 0 1 -.391-.391 3.891 3.891 0 0 0 -3-3.779 20.543 20.543 0 0 1 6.259-2.93 54.521 54.521 0 0 1 10.9-1.435q.525-.033 1.05-.069l11.889 18.314a1.791 1.791 0 0 0 2.2.638l10.629-4.869v21.021h-9.329a3.892 3.892 0 0 0 .04-.391v-1.219a3.9 3.9 0 0 0 -3.887-3.89h-7.834a.391.391 0 0 1 -.391-.391 3.9 3.9 0 0 0 -3.891-3.891h-8.587v-3.092a1.75 1.75 0 0 0 -3.5 0v12.874h-14.5zm18 13.667v-6.283h8.587a.392.392 0 0 1 .391.391 3.9 3.9 0 0 0 3.891 3.891h7.834a.392.392 0 0 1 .391.391v1.219a.392.392 0 0 1 -.391.391zm49.816 0v-3.125a1.314 1.314 0 0 1 1.313-1.312h.121a4.817 4.817 0 0 0 4.812-4.813 1.314 1.314 0 0 1 1.313-1.312h.125a1.313 1.313 0 0 1 1.312 1.312v9.25zm25.184 0v-12.875a1.75 1.75 0 0 0 -3.5 0v12.875h-9.188v-9.25a4.817 4.817 0 0 0 -4.812-4.812h-.125a4.817 4.817 0 0 0 -4.813 4.812 1.314 1.314 0 0 1 -1.312 1.313h-.121a4.817 4.817 0 0 0 -4.813 4.812v3.125h-8.942v-21.021l10.63 4.869a1.765 1.765 0 0 0 2.2-.637l11.88-18.277.068.006c.9.069 1.8.138 2.685.215.529.047 1.06.09 1.591.132a42.63 42.63 0 0 1 7.863 1.117 20.574 20.574 0 0 1 9.351 5.553h-9.577a4.756 4.756 0 0 0 -4.75 4.75v.125a4.756 4.756 0 0 0 4.75 4.75h2.438a1.252 1.252 0 0 1 1.25 1.25 4.756 4.756 0 0 0 4.75 4.75h7v12.418z"/><path d="m52.676 94.615 1.653 1.227a1.749 1.749 0 1 0 2.086-2.809l-1.652-1.227a1.75 1.75 0 1 0 -2.087 2.809z"/></g></g></svg>