<?xml version="1.0" encoding="iso-8859-1"?>
<!-- Generator: Adobe Illustrator 19.0.0, SVG Export Plug-In . SVG Version: 6.00 Build 0)  -->
<svg version="1.1" id="Capa_1" xmlns="http://www.w3.org/2000/svg" xmlns:xlink="http://www.w3.org/1999/xlink" x="0px" y="0px"
	 viewBox="0 0 512 512" style="enable-background:new 0 0 512 512;" xml:space="preserve">
<path style="fill:#4CAF50;" d="M264.825,61.793H247.17c-1.557,0.001-3.083,0.429-4.414,1.236c2.736,1.546,4.425,4.449,4.414,7.592
	v17.655c-0.006,4.265-1.577,8.379-4.414,11.564c3.314,3.866,8.15,6.091,13.242,6.091c9.739-0.029,17.627-7.917,17.655-17.655V70.621
	C273.638,65.752,269.695,61.807,264.825,61.793z M332.798,132.414l0.53,0.265c0.088-0.088,0.088-0.177,0.177-0.265H332.798z"/>
<path style="fill:#2E7D32;" d="M255.998,8.827c-4.422-0.018-8.841,0.188-13.242,0.618c-57.114,4.943-101.517,41.666-101.517,86.334
	c-0.014,2.212,0.104,4.423,0.353,6.621c1.268,12.051,5.615,23.572,12.624,33.457c1.413,1.942,2.824,3.796,4.326,5.65
	c0.177,0.177,0.265,0.353,0.441,0.53c-0.088-0.257-0.088-0.537,0-0.795c9.834-0.101,19.405-3.178,27.454-8.827H359.28l0.53,0.265
	c5.843-9.136,9.498-19.499,10.681-30.278c0.177-2.207,0.265-4.414,0.265-6.621C370.756,47.757,319.38,8.827,255.998,8.827z
	 M273.653,88.275c-0.029,9.739-7.917,17.627-17.655,17.655c-9.709-0.101-17.555-7.947-17.655-17.655V70.621
	c-0.011-3.143,1.678-6.046,4.414-7.592c1.331-0.807,2.858-1.235,4.414-1.236h17.655c4.869,0.015,8.813,3.958,8.827,8.827v17.655
	H273.653z"/>
<path style="fill:#4CAF50;" d="M242.756,9.445c-57.114,4.943-101.517,41.666-101.517,86.334c-0.014,2.212,0.104,4.423,0.353,6.621
	c1.268,12.051,5.615,23.572,12.624,33.457c1.974-1.043,3.889-2.193,5.738-3.442h173.55c5.749-9.071,9.341-19.338,10.505-30.013
	c0.177-2.207,0.265-4.414,0.265-6.621C344.274,51.111,299.871,14.389,242.756,9.445z M273.653,88.275
	c-0.029,9.739-7.917,17.627-17.655,17.655c-9.709-0.101-17.555-7.947-17.655-17.655V70.621c-0.011-3.143,1.678-6.046,4.414-7.592
	c1.331-0.807,2.858-1.235,4.414-1.236h17.655c4.869,0.015,8.813,3.958,8.827,8.827v17.655H273.653z"/>
<path style="fill:#FF9801;" d="M353.014,142.035c0.073,0.615,0.103,1.235,0.088,1.854c-0.026,6.678-0.916,13.324-2.649,19.773
	c-0.353,1.236-0.706,2.472-0.971,3.707c-5.134,20.294-7.216,41.239-6.179,62.146c0.177,3.442,0.353,6.974,0.706,10.417
	c0.177,2.119,0.265,4.325,0.265,6.533c-1.62,15.117-8.201,29.272-18.714,40.253c-10.976,12.93-23.22,24.73-36.546,35.222
	c-12.942,10.518-30.129,14.224-46.256,9.975c-7.255-1.803-14.012-5.212-19.773-9.975c-13.326-10.492-25.57-22.291-36.546-35.222
	c-10.514-10.982-17.095-25.137-18.714-40.253c0-2.207,0.088-4.414,0.265-6.533c0.353-3.442,0.53-6.974,0.706-10.417
	c1.037-20.907-1.046-41.853-6.179-62.146c-0.265-1.236-0.618-2.472-0.971-3.707c-1.732-6.449-2.622-13.096-2.649-19.773
	c-0.015-0.619,0.015-1.239,0.088-1.854c-0.088-0.257-0.088-0.537,0-0.795c9.834-0.101,19.405-3.178,27.454-8.827h172.844l0.53,0.265
	C357.784,135.965,355.512,139.093,353.014,142.035z"/>
<path style="fill:#FFE0B2;" d="M326.531,142.035c0.073,0.615,0.103,1.235,0.088,1.854c-0.026,6.678-0.916,13.324-2.649,19.773
	c-0.353,1.236-0.706,2.472-0.971,3.707c-5.134,20.294-7.216,41.239-6.179,62.146c0.177,3.442,0.353,6.974,0.706,10.417
	c0.177,2.119,0.265,4.325,0.265,6.533c-1.62,15.117-8.201,29.272-18.714,40.253c-10.976,12.93-23.22,24.73-36.546,35.222
	c-5.762,4.763-12.519,8.172-19.774,9.975c-7.255-1.803-14.012-5.212-19.773-9.975c-13.326-10.492-25.57-22.291-36.546-35.222
	c-10.514-10.982-17.095-25.137-18.714-40.253c0-2.207,0.088-4.414,0.265-6.533c0.353-3.442,0.53-6.974,0.706-10.417
	c1.037-20.907-1.046-41.853-6.179-62.146c-0.265-1.236-0.618-2.472-0.971-3.707c-1.732-6.449-2.622-13.096-2.649-19.773
	c-0.015-0.619,0.015-1.239,0.088-1.854c-0.088-0.257-0.088-0.537,0-0.795c9.834-0.101,19.405-3.178,27.454-8.827h146.362l0.53,0.265
	C331.302,135.965,329.029,139.093,326.531,142.035z"/>
<path style="fill:#FF9801;" d="M326.001,378.438c-1.148,0.177-2.384,0.441-3.531,0.706c-18.274,5.032-41.313,26.924-66.472,26.924
	c-4.475-0.041-8.927-0.664-13.242-1.854c-21.628-5.826-41.136-23.482-56.761-25.776c8.562-15.183,8.121-39.901,5.738-60.469
	c0-0.265-0.088-0.53-0.088-0.795c-1.195-10.237-2.934-20.403-5.208-30.455c10.976,12.93,23.22,24.73,36.546,35.222
	c5.772,4.747,12.526,8.154,19.773,9.975c16.127,4.249,33.314,0.543,46.256-9.975c1.589-1.236,3.178-2.559,4.767-3.972
	c11.534-9.414,22.173-19.875,31.779-31.25c-2.274,10.052-4.013,20.218-5.208,30.455C317.879,337.92,317.349,363.079,326.001,378.438
	z"/>
<path style="fill:#FFE0B2;" d="M299.518,378.438c-1.148,0.177-2.384,0.441-3.531,0.706c-15.007,4.149-33.192,19.597-53.23,25.07
	c-21.628-5.826-41.136-23.482-56.761-25.776c8.562-15.183,8.121-39.901,5.738-60.469c1.59,1.413,3.178,2.736,4.767,3.972
	c12.942,10.518,30.129,14.224,46.256,9.975c7.248-1.821,14.001-5.228,19.774-9.975c13.326-10.492,25.57-22.291,36.546-35.222
	c-2.274,10.052-4.013,20.218-5.208,30.455c0,0.265-0.088,0.53-0.088,0.795C291.396,338.537,290.955,363.255,299.518,378.438z"/>
<path d="M255.998,414.896c-17.248-1.45-33.823-7.362-48.095-17.155c-7.124-4.719-14.947-8.286-23.181-10.569
	c-4.823-0.703-8.162-5.182-7.459-10.005c0.157-1.076,0.511-2.113,1.045-3.06c6.061-10.78,7.646-30.103,4.569-55.884
	c-1.154-9.944-2.841-19.818-5.051-29.582c-1.062-4.756,1.933-9.473,6.689-10.536c3.258-0.727,6.648,0.445,8.759,3.031
	c10.576,12.471,22.385,23.841,35.25,33.935c15.996,12.99,38.905,13.001,54.914,0.026c12.878-10.101,24.699-21.479,35.285-33.961
	c3.082-3.775,8.642-4.337,12.417-1.255c2.586,2.111,3.759,5.501,3.031,8.759c-2.208,9.747-3.894,19.605-5.051,29.531
	c-3.078,25.832-1.491,45.155,4.569,55.935c2.394,4.244,0.895,9.625-3.349,12.02c-0.928,0.523-1.943,0.874-2.995,1.036
	c-0.931,0.143-1.931,0.362-2.871,0.582c-7.13,2.59-13.962,5.935-20.379,9.983C289.821,407.526,273.247,413.442,255.998,414.896z
	 M197.963,372.771c6.421,2.805,12.655,6.02,18.663,9.625c11.687,8.142,25.218,13.244,39.371,14.845
	c14.152-1.604,27.68-6.71,39.362-14.858c6.009-3.609,12.244-6.829,18.664-9.643c-4.696-18.502-5.527-37.774-2.439-56.612
	c0.086-0.741,0.173-1.487,0.267-2.232c-5.284,4.901-11.049,9.871-17.293,14.91c-22.493,18.225-54.674,18.215-77.155-0.026
	c-6.215-5.017-11.968-9.977-17.259-14.88c0.094,0.763,0.19,1.521,0.267,2.281C203.504,335.011,202.67,354.278,197.963,372.771z"/>
<g>
	<path style="fill:#FF9801;" d="M161.102,167.725c0,0-19.862-17.655-19.862,17.655s6.621,70.621,26.483,44.138"/>
	<path style="fill:#FF9801;" d="M350.894,167.725c0,0,19.862-17.655,19.862,17.655s-6.621,70.621-26.483,44.138"/>
</g>
<path d="M155.532,247.625c-1.61-0.004-3.208-0.27-4.733-0.788c-4.552-1.513-18.388-6.125-18.388-61.457
	c0-5.948,0-24.043,12.181-29.512c7.859-2.431,16.418-0.418,22.37,5.258c3.656,3.226,4.003,8.804,0.779,12.46
	c-3.226,3.656-8.804,4.003-12.46,0.778c-1.019-0.847-2.161-1.535-3.388-2.039c-1.53,4.173-2.152,8.624-1.828,13.056
	c0,27.634,3.845,40.009,6.043,43.832c1.717-1.47,3.246-3.146,4.551-4.991c2.925-3.899,8.458-4.689,12.358-1.762
	s4.689,8.458,1.762,12.358l0,0C170.734,241.871,163.605,246.616,155.532,247.625z"/>
<path d="M356.463,247.625c-8.073-1.009-15.201-5.753-19.25-12.81c-2.925-3.899-2.137-9.432,1.762-12.358
	c3.899-2.925,9.432-2.137,12.358,1.762c1.306,1.845,2.834,3.522,4.552,4.991c2.198-3.823,6.043-16.198,6.043-43.832
	c0.325-4.434-0.297-8.886-1.827-13.06c-1.21,0.496-2.337,1.171-3.345,2.004c-3.645,3.237-9.223,2.907-12.462-0.737
	c-3.237-3.645-2.907-9.223,0.737-12.462c5.95-5.682,14.512-7.695,22.37-5.258c12.181,5.47,12.181,23.564,12.181,29.512
	c0,55.331-13.836,59.944-18.388,61.457C359.672,247.355,358.074,247.621,356.463,247.625z"/>
<path d="M264.825,256H247.17c-4.875,0-8.827-3.952-8.827-8.827s3.952-8.827,8.827-8.827h17.655c4.875,0,8.827,3.952,8.827,8.827
	S269.701,256,264.825,256z"/>
<path d="M229.515,194.207h-35.31c-4.875,0-8.827-3.952-8.827-8.827s3.952-8.827,8.827-8.827h35.31c4.875,0,8.827,3.952,8.827,8.827
	C238.343,190.255,234.39,194.207,229.515,194.207z"/>
<path d="M317.791,194.207h-35.31c-4.875,0-8.827-3.952-8.827-8.827s3.952-8.827,8.827-8.827h35.31c4.875,0,8.827,3.952,8.827,8.827
	S322.667,194.207,317.791,194.207z"/>
<path d="M273.653,291.31h-35.31c-4.875,0-8.827-3.952-8.827-8.827c0-4.875,3.952-8.827,8.827-8.827h35.31
	c4.875,0,8.827,3.952,8.827,8.827C282.481,287.359,278.529,291.31,273.653,291.31z"/>
<path d="M211.86,211.862c-4.874,0.001-8.826-3.949-8.827-8.823c0-0.001,0-0.003,0-0.004V185.38c0-4.875,3.952-8.827,8.827-8.827
	c4.875,0,8.827,3.952,8.827,8.827v17.655c0.001,4.874-3.949,8.826-8.823,8.827C211.863,211.862,211.861,211.862,211.86,211.862z"/>
<path d="M300.135,211.862c-4.874,0.001-8.826-3.949-8.827-8.823c0-0.001,0-0.003,0-0.004V185.38c0-4.875,3.952-8.827,8.827-8.827
	c4.875,0,8.827,3.952,8.827,8.827v17.655c0.001,4.874-3.949,8.826-8.823,8.827C300.139,211.862,300.138,211.862,300.135,211.862z"/>
<path style="fill:#4CAF50;" d="M238.078,452.06l-8.562,51.111H68.324c-9.764,0.009-17.685-7.899-17.693-17.663
	c-0.001-1.825,0.279-3.639,0.832-5.378l11.653-36.369c0.328-0.962,0.712-1.906,1.148-2.824l72.916-13.242
	c12.572-2.307,21.705-13.26,21.716-26.041v-22.069h17.655l1.854,3.178l28.513,50.229c5.546,6.989,15.438,8.733,23.04,4.06
	C230.898,442.827,233.759,448.115,238.078,452.06z"/>
<path style="fill:#2E7D32;" d="M443.673,503.173H282.481l-8.562-51.111c4.319-3.946,7.18-9.234,8.121-15.007
	c2.802,1.673,6.005,2.558,9.269,2.559c5.36,0.013,10.433-2.425,13.771-6.621l13.771-24.187l16.596-29.22h17.655v22.069
	c0.011,12.781,9.144,23.734,21.716,26.041l72.916,13.242c0.436,0.919,0.818,1.862,1.148,2.824l11.653,36.37
	c2.962,9.304-2.18,19.246-11.483,22.207C447.311,502.893,445.497,503.174,443.673,503.173z"/>
<path style="fill:#4CAF50;" d="M408.362,503.173H282.481l-8.562-51.111c4.319-3.946,7.18-9.234,8.121-15.007
	c2.802,1.673,6.005,2.558,9.269,2.559c5.36,0.013,10.433-2.425,13.771-6.621l13.771-24.187c2.668,9.752,10.705,17.102,20.656,18.891
	l72.915,13.242c0.436,0.919,0.818,1.862,1.148,2.824l11.653,36.37c2.962,9.304-2.18,19.245-11.483,22.207
	C412.001,502.893,410.187,503.174,408.362,503.173z"/>
<path d="M229.515,512H68.325c-14.637,0.012-26.513-11.845-26.524-26.483c-0.002-2.735,0.419-5.454,1.249-8.06l11.664-36.387
	c0.474-1.389,1.027-2.75,1.655-4.077c1.242-2.487,3.584-4.242,6.319-4.737l72.914-13.242c8.38-1.535,14.467-8.838,14.465-17.358
	v-22.069c-0.001-4.874,3.949-8.826,8.823-8.827c0.001,0,0.003,0,0.004,0h17.655c3.139,0,6.04,1.667,7.621,4.379l1.854,3.176
	l28.181,49.633c2.85,3.129,7.521,3.793,11.129,1.582c4.154-2.551,9.588-1.253,12.139,2.901c0.599,0.975,1.003,2.057,1.189,3.186
	c0.621,3.825,2.518,7.328,5.38,9.94c2.203,2.019,3.234,5.015,2.742,7.962l-8.56,51.111C237.509,508.882,233.828,511.998,229.515,512
	z M70.791,448.724l-10.922,34.103c-1.475,4.659,1.106,9.63,5.765,11.105c0.871,0.276,1.78,0.415,2.692,0.413h153.715l6.603-39.435
	c-1.684-2.05-3.125-4.287-4.293-6.668c-9.276,1.289-18.541-2.429-24.354-9.771c-0.28-0.353-0.53-0.728-0.75-1.121l-27.783-48.935
	h-3.742v13.242c0.002,17.046-12.18,31.659-28.948,34.724L70.791,448.724z"/>
<path d="M185.377,388.413h-8.827c-4.875,0-8.827-3.952-8.827-8.827s3.952-8.827,8.827-8.827h8.827c4.875,0,8.827,3.952,8.827,8.827
	C194.204,384.461,190.252,388.413,185.377,388.413z"/>
<g>
	<path style="fill:#00695C;" d="M158.895,379.586v22.069c-0.011,12.781-9.144,23.734-21.716,26.041l-72.916,13.242
		c4.957-12.122,12.279-23.135,21.539-32.397c18.519-18.576,43.684-28.999,69.915-28.955H158.895z"/>
	<path style="fill:#00695C;" d="M447.733,440.937l-72.916-13.242c-12.572-2.307-21.705-13.26-21.716-26.041v-22.069h3.178
		c26.231-0.044,51.396,10.377,69.915,28.955C435.453,417.802,442.776,428.816,447.733,440.937z"/>
</g>
<path d="M64.265,449.767c-4.877-0.002-8.828-3.957-8.826-8.834c0-1.141,0.222-2.273,0.653-3.33
	c5.386-13.218,13.365-25.223,23.466-35.306c20.173-20.232,47.583-31.585,76.155-31.539h3.181c4.874-0.001,8.826,3.949,8.827,8.823
	c0,0.001,0,0.003,0,0.004v22.069c0.002,17.046-12.18,31.659-28.948,34.724l-72.93,13.246
	C65.323,449.72,64.795,449.767,64.265,449.767z M150.067,388.59c-9.931,0.643-19.691,2.897-28.897,6.677
	c-10.891,4.539-20.788,11.168-29.129,19.513c-4.344,4.339-8.23,9.115-11.595,14.25l55.154-10.017
	c8.38-1.535,14.467-8.838,14.465-17.358V388.59H150.067z"/>
<g>
	<path style="fill:#00695C;" d="M282.039,436.965v0.088c-0.942,5.773-3.803,11.061-8.121,15.007c-10.137,9.299-25.703,9.299-35.84,0
		c-4.319-3.946-7.18-9.234-8.121-15.007c1.682-1.137,3.198-2.505,4.502-4.06l21.54-26.924l21.539,26.924
		C278.82,434.545,280.34,435.886,282.039,436.965z"/>
	<path style="fill:#00695C;" d="M282.481,503.173h-52.965l8.562-51.111c10.137,9.299,25.703,9.299,35.84,0L282.481,503.173z"/>
	<path style="fill:#00695C;" d="M255.998,406.069l-21.539,26.924c-1.304,1.556-2.82,2.923-4.502,4.06
		c-7.601,4.672-17.494,2.928-23.04-4.06l-28.513-50.229l5.561-3.178l2.031-1.148C204.709,381.174,229.162,406.069,255.998,406.069z"
		/>
	<path style="fill:#00695C;" d="M335.446,379.586l-30.366,53.407c-3.338,4.195-8.41,6.634-13.771,6.621
		c-3.264-0.002-6.466-0.886-9.269-2.559v-0.088c-1.7-1.079-3.219-2.42-4.502-3.972l-21.539-26.924
		c25.158,0,48.199-21.893,66.472-26.924l4.149,0.441h8.827V379.586z"/>
</g>
<path d="M255.998,467.862c-8.862,0.023-17.405-3.306-23.914-9.319c-5.775-5.268-9.595-12.338-10.837-20.056
	c-0.56-3.388,0.896-6.793,3.733-8.729c1.001-0.672,1.903-1.48,2.681-2.401l21.44-26.806c3.322-3.809,9.104-4.203,12.912-0.881
	c0.313,0.274,0.607,0.567,0.881,0.881l21.543,26.923c0.659,0.793,1.439,1.477,2.311,2.026c2.566,1.614,4.122,4.434,4.12,7.465v0.086
	c-0.001,0.481-0.042,0.961-0.12,1.435c-1.244,7.729-5.074,14.807-10.862,20.078C273.381,464.566,264.849,467.887,255.998,467.862z
	 M240.007,440.025c0.962,2.094,2.334,3.974,4.034,5.53c6.829,6.002,17.049,6.011,23.888,0.021c1.709-1.561,3.089-3.447,4.06-5.547
	c-0.431-0.453-0.845-0.921-1.241-1.405l-14.75-18.427l-14.647,18.31C240.911,439.034,240.464,439.543,240.007,440.025z"/>
<path d="M282.481,512h-52.965c-4.873,0.002-8.826-3.946-8.828-8.82c0-0.49,0.041-0.98,0.121-1.464l8.56-51.111
	c0.805-4.809,5.355-8.054,10.164-7.249c1.696,0.284,3.272,1.057,4.534,2.224c6.832,5.974,17.03,5.974,23.862,0
	c3.581-3.309,9.165-3.089,12.475,0.491c1.167,1.263,1.939,2.838,2.224,4.534l8.56,51.111c0.807,4.806-2.436,9.356-7.242,10.163
	C283.461,511.959,282.971,512,282.481,512z M239.946,494.344h32.103l-4.741-28.324c-7.346,2.422-15.275,2.422-22.62,0
	L239.946,494.344z"/>
<path d="M443.67,512h-161.19c-4.312-0.002-7.993-3.118-8.707-7.371l-8.56-51.111c-0.493-2.947,0.538-5.943,2.742-7.962
	c2.862-2.612,4.757-6.116,5.38-9.94c0.788-4.807,5.326-8.065,10.133-7.276c1.092,0.179,2.14,0.562,3.09,1.13
	c3.655,2.145,8.303,1.505,11.241-1.547l29.974-52.698c1.568-2.76,4.498-4.466,7.673-4.466h17.655
	c4.874-0.001,8.826,3.949,8.827,8.823c0,0.001,0,0.003,0,0.004v22.069c0.001,8.526,6.095,15.832,14.483,17.362l72.896,13.237
	c2.735,0.496,5.076,2.251,6.319,4.737c0.576,1.209,1.088,2.448,1.534,3.712l11.776,36.737c4.452,13.942-3.242,28.853-17.184,33.304
	C449.14,511.578,446.413,512.002,443.67,512z M289.954,494.344h153.715c4.884,0.013,8.854-3.936,8.867-8.82
	c0.002-0.921-0.139-1.838-0.419-2.715l-10.922-34.086l-67.957-12.34c-16.775-3.062-28.965-17.676-28.965-34.728v-13.242h-3.69
	l-27.836,48.939c-0.224,0.404-0.484,0.787-0.776,1.147c-5.843,7.265-15.063,10.943-24.302,9.69
	c-1.177,2.399-2.626,4.652-4.319,6.719L289.954,494.344z"/>
<path d="M447.731,449.767c-0.529,0-1.057-0.048-1.578-0.143l-72.914-13.242c-16.775-3.062-28.965-17.676-28.965-34.729v-22.069
	c-0.001-4.874,3.949-8.826,8.823-8.827c0.001,0,0.003,0,0.004,0h3.181c28.572-0.043,55.98,11.307,76.156,31.539
	c10.101,10.083,18.079,22.088,23.466,35.306c1.841,4.516-0.327,9.669-4.842,11.51C450.004,449.545,448.873,449.767,447.731,449.767
	L447.731,449.767z M361.929,388.59v13.065c0.001,8.526,6.095,15.832,14.483,17.362l55.138,10.013
	c-9.912-15.095-24.125-26.867-40.802-33.794C381.566,391.474,371.832,389.228,361.929,388.59z"/>
<path d="M220.644,448.436c-8.046,0.02-15.656-3.654-20.646-9.965c-0.28-0.353-0.53-0.728-0.75-1.121l-28.517-50.229
	c-2.405-4.23-0.932-9.608,3.293-12.022l7.638-4.349c1.702-0.963,3.677-1.331,5.612-1.043c10.458,2.461,20.396,6.757,29.354,12.69
	c11.687,8.142,25.218,13.245,39.372,14.845c4.878,0.001,8.831,3.956,8.829,8.833c0,2.003-0.682,3.947-1.933,5.512l-21.543,26.923
	c-1.85,2.243-4.013,4.208-6.422,5.837C230.639,447.007,225.694,448.424,220.644,448.436z M214.205,427.948
	c2.85,3.129,7.521,3.793,11.129,1.582c0.864-0.624,1.644-1.355,2.328-2.172l11.896-14.871c-11.104-3.631-21.731-8.582-31.656-14.745
	c-5.016-2.979-10.181-5.7-15.474-8.155L214.205,427.948z"/>
<path d="M291.308,448.44c-4.854-0.002-9.617-1.317-13.784-3.806c-0.457-0.268-0.886-0.578-1.284-0.927
	c-2.049-1.442-3.896-3.151-5.491-5.081l-21.646-27.039c-3.045-3.81-2.424-9.367,1.385-12.412c1.565-1.251,3.508-1.932,5.512-1.932
	c14.152-1.604,27.68-6.71,39.362-14.858c7.758-4.889,16.072-8.834,24.767-11.75c1.066-0.289,2.177-0.38,3.276-0.267l3.682,0.393
	h8.362c4.874,0,8.826,3.952,8.826,8.826c0,1.53-0.398,3.034-1.154,4.364l-30.371,53.405c-0.224,0.404-0.484,0.787-0.776,1.147
	C306.966,444.799,299.353,448.461,291.308,448.44z M287.265,429.849c3.557,1.713,7.814,0.935,10.534-1.927l21.836-38.392
	c-5.321,2.461-10.508,5.197-15.544,8.199c-9.924,6.167-20.551,11.12-31.656,14.754l12,14.991c0.659,0.793,1.439,1.477,2.311,2.026
	C286.929,429.612,287.101,429.729,287.265,429.849L287.265,429.849z"/>
<path d="M186.446,141.242c-4.875,0.004-8.831-3.945-8.835-8.821c-0.002-2.894,1.414-5.606,3.791-7.257
	c9.648-6.433,15.804-16.942,16.698-28.504c0.032-0.555,0.114-1.106,0.241-1.647l-0.077-6.737c0-4.875,3.952-8.827,8.827-8.827
	c4.875,0,8.827,3.952,8.827,8.827v6.535c0.024,1.135-0.051,2.27-0.224,3.392c-1.378,16.776-10.286,32.023-24.224,41.461
	C189.998,140.692,188.243,141.243,186.446,141.242z"/>
<path d="M158.981,150.069h-0.086c-4.875-0.024-8.808-3.996-8.784-8.87c0.024-4.875,3.996-8.808,8.87-8.784
	c4.875,0.024,8.808,3.995,8.784,8.87C167.742,146.127,163.822,150.045,158.981,150.069z"/>
<path d="M158.986,150.862c-2.285,0-4.543-0.884-6.245-2.586c-0.306-0.301-0.806-0.892-1.06-1.237l0.009-0.009
	c-10.745-12.767-17.116-27.686-18.871-43.664c-0.284-2.522-0.427-5.086-0.405-7.655C132.413,42.965,187.853,0,256,0
	s123.586,42.965,123.586,95.78c0,2.448-0.094,4.897-0.293,7.341c-1.345,12.31-5.508,24.091-12.043,34.315
	c-2.086,3.242-5.948,4.733-9.586,3.806H189.098c-7.896,4.978-16.806,7.931-26.099,8.656
	C161.728,150.543,160.353,150.862,158.986,150.862z M256,17.655c-58.409,0-105.931,35.048-105.931,78.125
	c-0.013,1.922,0.086,3.78,0.297,5.625c1.237,11.258,5.384,21.815,12.056,30.819c6.806-0.668,13.293-3.069,18.94-7.035
	c1.487-1.043,3.259-1.604,5.073-1.604h168.47c3.629-6.862,5.965-14.431,6.811-22.146c0.138-1.728,0.216-3.694,0.216-5.66
	C361.931,52.702,314.413,17.655,256,17.655z M256,114.758c-14.604,0-26.483-11.879-26.483-26.483V70.621
	c0.026-9.72,7.935-17.629,17.633-17.655h17.677c9.716,0.026,17.62,7.931,17.655,17.625v17.686
	C282.482,102.879,270.603,114.758,256,114.758z M247.172,70.621v17.655c0,4.867,3.962,8.827,8.827,8.827
	c4.866,0,8.827-3.962,8.827-8.827V70.621H247.172z"/>
<path d="M256.006,342.47c-14.061,0.027-27.7-4.81-38.603-13.69c-13.806-10.845-26.472-23.068-37.802-36.479
	c-13.733-16.725-20.706-32.151-20.706-45.836c0-2.461,0.094-4.923,0.301-7.285c0.327-3.22,0.491-6.362,0.647-9.44
	c1.048-20.243-0.933-40.528-5.88-60.185c-0.301-1.354-0.604-2.384-0.897-3.413c-1.953-7.258-2.962-14.738-3-22.254
	c0-0.776,0.017-1.552,0.086-2.332c-0.005-1.037,0.143-2.07,0.44-3.065c1.179-3.599,4.524-6.045,8.31-6.078
	c8.05-0.069,15.887-2.591,22.466-7.229c1.486-1.039,3.256-1.598,5.069-1.599h172.845c1.371,0,2.723,0.319,3.949,0.931
	c2.296,1.148,4.03,3.175,4.81,5.621c0.762,2.394,0.497,4.998-0.733,7.189c-1.653,2.682-3.451,5.27-5.388,7.755
	c-0.131,7.036-1.116,14.029-2.931,20.828c-0.353,1.263-0.655,2.293-0.88,3.323c-4.957,19.552-6.977,39.733-5.991,59.88
	c0.19,3.707,0.353,6.849,0.673,9.923c0.216,2.509,0.31,4.97,0.31,7.431c0,13.686-6.974,29.112-20.724,45.857
	c-11.335,13.413-24.007,25.637-37.819,36.483C283.668,337.671,270.049,342.498,256.006,342.47z M167.972,149.298
	c0.348,4.093,1.052,8.149,2.104,12.121c0.371,1.28,0.767,2.681,1.068,4.09c5.293,21.039,7.44,42.745,6.371,64.414
	c-0.216,4.112-0.397,7.552-0.741,10.914c-0.147,1.724-0.224,3.676-0.224,5.63c1.664,13.056,7.527,25.218,16.706,34.651
	c10.58,12.48,22.396,23.857,35.267,33.957c15.996,12.991,38.905,13.001,54.914,0.026c12.878-10.101,24.699-21.479,35.285-33.961
	c9.188-9.438,15.057-21.607,16.725-34.672c0-1.952-0.077-3.905-0.233-5.775c-0.336-3.216-0.517-6.655-0.69-10.026
	c-1.138-22.024,1.02-44.093,6.405-65.478c0.224-1.086,0.621-2.488,1.026-3.896c1.511-5.678,2.29-11.525,2.319-17.4
	c-0.114-0.879-0.111-1.769,0.009-2.646H189.101C182.665,145.307,175.481,148.046,167.972,149.298z"/>
<path style="fill:#FFEB3A;" d="M273.653,70.621v17.655c0,9.751-7.905,17.655-17.655,17.655c-9.751,0-17.655-7.905-17.655-17.655
	V70.621c0.015-4.869,3.958-8.813,8.827-8.827h17.655C269.695,61.807,273.638,65.752,273.653,70.621z"/>
<path d="M255.998,114.758c-14.619-0.016-26.467-11.863-26.483-26.483V70.621c0.011-9.746,7.909-17.644,17.655-17.655h17.655
	c9.746,0.011,17.644,7.909,17.655,17.655v17.655C282.465,102.895,270.618,114.742,255.998,114.758z M247.17,70.621v17.655
	c0,4.875,3.952,8.827,8.827,8.827c4.875,0,8.827-3.952,8.827-8.827V70.647L247.17,70.621z"/>
<g>
</g>
<g>
</g>
<g>
</g>
<g>
</g>
<g>
</g>
<g>
</g>
<g>
</g>
<g>
</g>
<g>
</g>
<g>
</g>
<g>
</g>
<g>
</g>
<g>
</g>
<g>
</g>
<g>
</g>
</svg>
