<?xml version="1.0" encoding="iso-8859-1"?>
<!-- Generator: Adobe Illustrator 19.0.0, SVG Export Plug-In . SVG Version: 6.00 Build 0)  -->
<svg version="1.1" id="Capa_1" xmlns="http://www.w3.org/2000/svg" xmlns:xlink="http://www.w3.org/1999/xlink" x="0px" y="0px"
	 viewBox="0 0 512 512" style="enable-background:new 0 0 512 512;" xml:space="preserve">
<path style="fill:#D2957D;" d="M395.828,355.25H389.5v12.004c0,1.65-1.35,3-3,3h-52.967c-1.65,0-3-1.35-3-3v-1.195l-5.961,4.804
	c-2.141,1.726-2.174,4.59-0.073,6.365l14.845,12.545c2.1,1.775,2.287,4.876,0.415,6.89l-80.566,86.676
	c-1.872,2.014-4.913,1.993-6.758-0.047l-78.289-86.582c-1.845-2.04-1.635-5.161,0.466-6.937l14.845-12.545
	c2.1-1.775,2.02-4.579-0.179-6.23l-7.811-5.865v2.121c0,1.65-1.35,3-3,3H125.5c-1.65,0-3-1.35-3-3V355.25h-6.328
	c-8.25,0-15,6.75-15,15V494.5c0,5.5,4.5,10,10,10h289.656c5.5,0,10-4.5,10-10V370.25C410.828,362,404.078,355.25,395.828,355.25z"/>
<g>
	<path style="fill:#775436;" d="M380.381,155.73h-19.447c0.004,26.906,0.009,69.229,0.009,69.229c0,1.015-0.021,2.024-0.051,3.032
		c11.969-0.21,21.608-9.972,21.608-21.99v-50.509C381.825,155.645,381.116,155.73,380.381,155.73z"/>
	<path style="fill:#775436;" d="M151.066,155.73h-19.447c-0.735,0-1.444-0.085-2.119-0.238v50.509
		c0,12.018,9.639,21.78,21.607,21.99c-0.031-1.008-0.051-2.018-0.051-3.032C151.057,224.959,151.063,182.637,151.066,155.73z"/>
</g>
<path style="opacity:0.15;fill:#490089;enable-background:new    ;" d="M130.344,494.5V370.254H125.5c-1.65,0-3-1.35-3-3V355.25
	h-6.328c-8.25,0-15,6.75-15,15V494.5c0,5.5,4.5,10,10,10h29.172C134.844,504.5,130.344,500,130.344,494.5z"/>
<g>
	<path style="fill:#775436;" d="M383.752,504.5v-32.615c0-1.65-1.35-3-3-3h-56.318c-1.65,0-3,1.35-3,3V504.5H383.752z"/>
	<path style="fill:#775436;" d="M101.172,420H132.5c5.799,0,10.5-4.701,10.5-10.5s-4.701-10.5-10.5-10.5h-31.328V420z"/>
</g>
<path style="fill:#D19546;" d="M410.828,393H371.5c-5.799,0-10.5,4.701-10.5,10.5s4.701,10.5,10.5,10.5h39.328V393z"/>
<path style="fill:#775436;" d="M296.5,494c0,5.799-4.701,10.5-10.5,10.5h-60c-5.799,0-10.5-4.701-10.5-10.5l0,0
	c0-5.799,4.701-10.5,10.5-10.5h60C291.799,483.5,296.5,488.201,296.5,494L296.5,494z"/>
<g>
	<path style="fill:#FFFFFF;" d="M337.5,422h-21.293l-19.52,21H337.5c5.799,0,10.5-4.701,10.5-10.5S343.299,422,337.5,422z"/>
	<path style="fill:#FFFFFF;" d="M196.109,421H174.5c-5.799,0-10.5,4.701-10.5,10.5s4.701,10.5,10.5,10.5h40.599L196.109,421z"/>
</g>
<path style="fill:#B2762F;" d="M181.467,367.254v-2.121l-13.491-10.131c-2.199-1.65-2.342-4.525-0.317-6.387l6.105-5.615H125.5
	c-1.65,0-3,1.35-3,3v21.254c0,1.65,1.35,3,3,3h52.967C180.117,370.254,181.467,368.904,181.467,367.254z"/>
<g style="opacity:0.15;">
	<path style="fill:#3D0072;" d="M142.5,367.254V346c0-1.65,1.35-3,3-3h-20c-1.65,0-3,1.35-3,3v21.254c0,1.65,1.35,3,3,3h20
		C143.85,370.254,142.5,368.904,142.5,367.254z"/>
</g>
<path style="fill:#B2762F;" d="M386.5,343h-48.003l5.854,5.558c1.994,1.894,1.874,4.855-0.268,6.58l-13.551,10.921v1.195
	c0,1.65,1.35,3,3,3H386.5c1.65,0,3-1.35,3-3V346C389.5,344.35,388.15,343,386.5,343z"/>
<path style="fill:#775436;" d="M344.352,348.558l-37.128-35.245c-3.229,1.745-6.56,3.334-9.987,4.748
	c-2.828,7.078-7.422,13.258-13.241,17.993c0.002-0.001,0.003-0.003,0.005-0.004v19.2h15.756c5.5,0,7.703,3.869,4.896,8.6
	l-43.545,73.357c-2.808,4.73-7.401,4.73-10.209,0.001l-43.549-73.359c-2.808-4.729-0.605-8.599,4.895-8.599H228v-19.2
	c-5.817-4.735-10.409-10.913-13.236-17.99c-3.145-1.298-6.201-2.751-9.18-4.327l-37.926,34.883
	c-2.024,1.861-1.882,4.736,0.317,6.387l21.302,15.996c2.199,1.65,2.279,4.454,0.179,6.23l-14.845,12.545
	c-2.101,1.775-2.311,4.896-0.466,6.937l78.289,86.582c0.072,0.08,0.156,0.136,0.231,0.209h6.342c0.06-0.059,0.127-0.101,0.185-0.162
	l80.566-86.676c1.872-2.014,1.686-5.114-0.415-6.89l-14.845-12.545c-2.101-1.775-2.067-4.64,0.073-6.365l19.512-15.725
	C346.226,353.412,346.346,350.451,344.352,348.558z"/>
<path style="fill:#FFFFFF;" d="M299.756,355.25H284V357c0,15.464-12.536,28-28,28s-28-12.536-28-28v-1.75h-15.756
	c-5.5,0-7.703,3.869-4.895,8.599l43.549,73.359c2.808,4.729,7.401,4.729,10.209-0.001l43.545-73.357
	C307.459,359.119,305.256,355.25,299.756,355.25z"/>
<path style="fill:#FFB98A;" d="M256,346c-10.617,0-20.361-3.732-28-9.95V357c0,15.464,12.536,28,28,28s28-12.536,28-28v-20.95
	C276.361,342.268,266.618,346,256,346z"/>
<g style="opacity:0.15;">
	<path style="fill:#330068;" d="M249,357v-11.549c-7.885-1.25-15.074-4.578-21-9.401V357c0,15.464,12.536,28,28,28
		c3.715,0,7.257-0.729,10.5-2.043C256.24,378.803,249,368.75,249,357z"/>
</g>
<path style="fill:#FFC7A9;" d="M340.453,155.73H171.547c-0.004,26.906-0.008,69.229-0.008,69.229
	c0,40.855,20.199,76.051,49.28,92.041h70.362c29.08-15.99,49.279-51.186,49.279-92.041
	C340.461,224.959,340.457,182.637,340.453,155.73z"/>
<path style="opacity:0.15;fill:#490089;enable-background:new    ;" d="M250.307,317C221.215,301.016,201,265.824,201,224.959
	c0,0,0.004-42.322,0.008-69.229h-29.461c-0.004,26.906-0.008,69.229-0.008,69.229c0,40.855,20.199,76.051,49.28,92.041H250.307z"/>
<g>
	<path style="fill:#D19546;" d="M171.539,224.959c0,0,0.004-42.322,0.008-69.229h-20.48c-0.004,26.906-0.01,69.229-0.01,69.229
		c0,41.781,26.25,77.646,63.707,93.101c-0.141-0.353-0.283-0.703-0.415-1.06h6.471C191.738,301.01,171.539,265.814,171.539,224.959z
		"/>
	<path style="fill:#D19546;" d="M340.453,155.73c0.004,26.906,0.008,69.229,0.008,69.229c0,40.855-20.199,76.051-49.279,92.041h6.47
		c-0.132,0.356-0.274,0.708-0.415,1.06c37.458-15.455,63.706-51.319,63.706-93.101c0,0-0.005-42.322-0.009-69.229L340.453,155.73
		L340.453,155.73z"/>
</g>
<path style="fill:#D2957D;" d="M131.619,155.73c-3.098,0-5.763-1.41-7.127-3.771c-1.364-2.361-1.256-5.373,0.291-8.058
	l10.549-18.305c0.438-0.759,0.668-1.62,0.668-2.496v-14.6c0-55.691,45.309-101,101-101h38c55.691,0,101,45.309,101,101v14.601
	c0,0.876,0.23,1.737,0.668,2.496l10.549,18.305c1.547,2.685,1.655,5.696,0.291,8.058c-1.364,2.361-4.029,3.771-7.127,3.771H131.619
	V155.73z"/>
<g style="opacity:0.15;">
	<path style="fill:#3D0072;" d="M153.951,151.959c-1.364-2.361-1.256-5.373,0.291-8.058l10.549-18.305
		c0.438-0.759,0.668-1.62,0.668-2.496v-14.6c0-55.691,45.309-101,101-101H237c-55.691,0-101,45.309-101,101v14.601
		c0,0.876-0.23,1.737-0.668,2.496l-10.549,18.305c-1.547,2.685-1.655,5.696-0.291,8.058c1.364,2.361,4.029,3.771,7.127,3.771h29.459
		C157.98,155.73,155.315,154.32,153.951,151.959z"/>
</g>
<path style="fill:#D19546;" d="M333.5,110c-5.799,0-10.5,4.701-10.5,10.5s4.701,10.5,10.5,10.5h46.282l-3.114-5.403
	c-0.438-0.759-0.668-1.62-0.668-2.496V110H333.5z"/>
<path style="fill:#FFFFFF;" d="M144.048,69H172.5c5.799,0,10.5-4.701,10.5-10.5S178.299,48,172.5,48h-16.325
	C151.336,54.448,147.25,61.492,144.048,69z"/>
<path style="fill:#775436;" d="M165.5,138c5.799,0,10.5-4.701,10.5-10.5s-4.701-10.5-10.5-10.5H136v6.101
	c0,0.876-0.23,1.737-0.668,2.496L128.184,138H165.5z"/>
<path style="fill:#D19546;" d="M289,145.23c0,5.799-4.701,10.5-10.5,10.5h-60c-5.799,0-10.5-4.701-10.5-10.5l0,0
	c0-5.799,4.701-10.5,10.5-10.5h60C284.299,134.73,289,139.432,289,145.23L289,145.23z"/>
<g>
	<ellipse style="fill:#B2762F;" cx="207.52" cy="216.26" rx="13.477" ry="13.529"/>
	<ellipse style="fill:#B2762F;" cx="304.48" cy="216.26" rx="13.477" ry="13.529"/>
</g>
<path style="fill:#775436;" d="M190.566,480.526c0,1.649-1.35,3-3,3h-56.318c-1.65,0-3-1.351-3-3V467c0-1.65,1.35-3,3-3h56.318
	c1.65,0,3,1.35,3,3L190.566,480.526L190.566,480.526z"/>
<path style="fill:#D2957D;" d="M214.349,317c6.261,16.93,22.546,29,41.651,29s35.39-12.07,41.651-29H214.349z"/>
<path style="fill:#775436;" d="M268,94.5c0,5.799-4.701,10.5-10.5,10.5h-60c-5.799,0-10.5-4.701-10.5-10.5l0,0
	c0-5.799,4.701-10.5,10.5-10.5h60C263.299,84,268,88.701,268,94.5L268,94.5z"/>
<path style="fill:#D19546;" d="M295,42.5c0,5.799-4.701,10.5-10.5,10.5h-60c-5.799,0-10.5-4.701-10.5-10.5l0,0
	c0-5.799,4.701-10.5,10.5-10.5h60C290.299,32,295,36.701,295,42.5L295,42.5z"/>
<path style="fill:#FFFFFF;" d="M322.5,79h49.102c-2.263-7.395-5.351-14.43-9.16-21H322.5c-5.799,0-10.5,4.701-10.5,10.5
	S316.701,79,322.5,79z"/>
<path d="M410.828,447.502c4.143,0,7.5-3.358,7.5-7.5V370.25c0-12.014-9.465-21.857-21.328-22.47V346c0-5.79-4.71-10.5-10.5-10.5
	h-45.01l-21.996-20.88c26.967-17.91,45.495-46.876,48.508-80.089c12.645-3.327,21.998-14.855,21.998-28.53v-45.822
	c1.611-1.188,2.976-2.692,4.002-4.468c2.72-4.708,2.612-10.522-0.287-15.555L383.5,122.432V108.5C383.5,48.673,334.827,0,275,0h-38
	c-59.827,0-108.5,48.673-108.5,108.5v13.932l-10.215,17.726c-2.9,5.031-3.007,10.846-0.287,15.554
	c1.026,1.775,2.391,3.28,4.002,4.468v45.822c0,13.675,9.354,25.202,21.998,28.53c3.033,33.46,21.81,62.616,49.104,80.492
	L170.838,335.5H125.5c-5.79,0-10.5,4.71-10.5,10.5v1.78c-11.863,0.612-21.328,10.456-21.328,22.47V494.5
	c0,9.649,7.851,17.5,17.5,17.5h289.656c9.649,0,17.5-7.851,17.5-17.5V478c0-4.143-3.357-7.5-7.5-7.5s-7.5,3.357-7.5,7.5v16.5
	c0,1.355-1.145,2.5-2.5,2.5h-9.576v-25.115c0-5.79-4.71-10.5-10.5-10.5h-56.318c-5.79,0-10.5,4.71-10.5,10.5V497h-10.191
	c0.167-0.976,0.258-1.977,0.258-3c0-9.925-8.075-18-18-18h-9.747l23.702-25.5H337.5c9.925,0,18-8.075,18-18s-8.075-18-18-18h-4.082
	l11.834-12.731c2.281-2.454,3.475-5.768,3.275-9.091c-0.199-3.323-1.782-6.47-4.343-8.634l-7.443-6.29H386.5
	c5.79,0,10.5-4.71,10.5-10.5v-4.402c3.58,0.564,6.328,3.662,6.328,7.398v15.25H371.5c-9.925,0-18,8.075-18,18s8.075,18,18,18h31.828
	v18.502C403.328,444.145,406.685,447.502,410.828,447.502z M375,206.001c0,5.06-2.616,9.507-6.559,12.097l-0.007-54.867H375V206.001
	z M368.507,123.5H333.5c-1.654,0-3-1.346-3-3s1.346-3,3-3h35v5.601C368.5,123.233,368.502,123.367,368.507,123.5z M358.019,65.521
	c1.002,1.93,1.937,3.896,2.803,5.891c0.013,0.029,0.026,0.059,0.038,0.088H322.5c-1.654,0-3-1.346-3-3s1.346-3,3-3h35.507
	C358.011,65.507,358.015,65.514,358.019,65.521z M141.829,129.343c0.846-1.463,1.4-3.163,1.592-4.843H165.5c1.654,0,3,1.346,3,3
	c0,1.654-1.346,3-3,3h-24.338L141.829,129.343z M156.244,61.424c1.166-1.99,2.404-3.938,3.714-5.839
	c0.02-0.028,0.04-0.057,0.06-0.085H172.5c1.654,0,3,1.346,3,3s-1.346,3-3,3h-16.301C156.215,61.475,156.23,61.449,156.244,61.424z
	 M143.558,218.098c-3.941-2.59-6.558-7.036-6.558-12.097V163.23h6.565L143.558,218.098z M131.619,148.23
	c-0.255,0-0.436-0.034-0.554-0.07c0.028-0.119,0.089-0.293,0.216-0.514l1.237-2.146H165.5c9.925,0,18-8.075,18-18s-8.075-18-18-18
	h-22v-1c0-2.016,0.071-4.016,0.198-6H155c4.143,0,7.5-3.357,7.5-7.5s-3.357-7.5-7.5-7.5h-9.121c0.865-3.758,1.959-7.43,3.264-11
	H172.5c9.925,0,18-8.075,18-18c0-9.798-7.873-17.777-17.624-17.98c1.522-1.437,3.089-2.825,4.704-4.158
	c0.46,0.089,0.934,0.139,1.42,0.139h13c4.143,0,7.5-3.357,7.5-7.5c0-2.016-0.799-3.842-2.094-5.19C209.438,18.163,222.855,15,237,15
	h38c16.256,0,31.554,4.174,44.885,11.5H319c-4.143,0-7.5,3.357-7.5,7.5s3.357,7.5,7.5,7.5h20c0.36,0,0.713-0.034,1.06-0.083
	c2.933,2.845,5.682,5.878,8.224,9.083H322.5c-9.925,0-18,8.075-18,18s8.075,18,18,18h43.379c1.254,5.18,2.075,10.526,2.423,16H333.5
	c-9.925,0-18,8.075-18,18s8.075,18,18,18h41.948l5.271,9.145c0.127,0.222,0.188,0.396,0.216,0.515
	c-0.118,0.036-0.299,0.07-0.554,0.07h-84.139c0.167-0.976,0.258-1.977,0.258-3c0-9.925-8.075-18-18-18h-60c-9.925,0-18,8.075-18,18
	c0,1.023,0.091,2.024,0.258,3L131.619,148.23L131.619,148.23z M215.5,145.23c0-1.654,1.346-3,3-3h60c1.654,0,3,1.346,3,3
	s-1.346,3-3,3h-60C216.846,148.23,215.5,146.885,215.5,145.23z M158.557,224.96l0.01-61.73h5.48l-0.008,61.729
	c0,19.319,4.283,37.475,11.788,53.214C164.94,263.048,158.557,244.707,158.557,224.96z M179.039,224.96l0.008-61.73h153.906
	l0.003,21.771c0,4.142,3.358,7.499,7.501,7.499c4.142,0,7.499-3.358,7.499-7.501l-0.003-21.768h5.48l0.009,61.729
	c0,19.745-6.384,38.086-17.268,53.21c7.502-15.737,11.786-33.895,11.786-53.21c0-4.143-3.357-7.5-7.5-7.5s-7.5,3.357-7.5,7.5
	c0,37.217-17.911,69.426-43.785,84.541h-66.352C196.95,294.385,179.039,262.176,179.039,224.96z M256,338.5
	c-11.419,0-22.032-5.344-28.921-14h57.841C278.031,333.156,267.419,338.5,256,338.5z M276.5,349.236V357
	c0,11.304-9.196,20.5-20.5,20.5c-11.304,0-20.5-9.196-20.5-20.5v-7.764c6.363,2.752,13.316,4.264,20.5,4.264
	C263.184,353.5,270.137,351.988,276.5,349.236z M206.888,322.724c0.722,0.341,1.44,0.685,2.171,1.011
	c2.825,5.977,6.736,11.271,11.441,15.674v8.342h-8.256c-5.393,0-9.796,2.302-12.081,6.315c-2.285,4.014-2.017,8.975,0.736,13.611
	l43.549,73.359c1.122,1.891,2.5,3.442,4.052,4.621v22.101l-66.943-74.035l12.741-10.767c2.755-2.329,4.278-5.649,4.178-9.108
	c-0.1-3.458-1.812-6.684-4.694-8.847l-18.09-13.584L206.888,322.724z M223,494c0-1.654,1.346-3,3-3h22.5v6H226
	C224.346,497,223,495.654,223,494z M198.205,434.5H174.5c-1.654,0-3-1.346-3-3s1.346-3,3-3h18.279L198.205,434.5z M130,350.5h28.809
	c-0.061,0.582-0.096,1.17-0.066,1.762c0.171,3.426,1.895,6.61,4.729,8.737l2.337,1.755H130V350.5z M108.672,406.5H132.5
	c1.654,0,3,1.346,3,3s-1.346,3-3,3h-23.828V406.5z M108.672,494.5v-67H132.5c9.925,0,18-8.075,18-18s-8.075-18-18-18h-23.828v-21.25
	c0-3.736,2.748-6.834,6.328-7.398v4.402c0,5.79,4.71,10.5,10.5,10.5h51.714l-5.617,4.746H160c-4.143,0-7.5,3.357-7.5,7.5
	s3.357,7.5,7.5,7.5h6.061c0.536,1.545,1.385,2.982,2.521,4.239l10.635,11.761H174.5c-9.925,0-18,8.075-18,18s8.075,18,18,18h37.269
	L235.73,476H226c-9.925,0-18,8.075-18,18c0,1.023,0.091,2.024,0.258,3h-97.086C109.816,497,108.672,495.855,108.672,494.5z
	 M328.934,494.5h5.5c4.143,0,7.5-3.357,7.5-7.5s-3.357-7.5-7.5-7.5h-5.5v-3.115h47.318V497h-47.318V494.5z M286,491
	c1.654,0,3,1.346,3,3s-1.346,3-3,3h-22.5v-6H286z M263.5,467.688V445.66c1.554-1.18,2.933-2.732,4.056-4.625l10.214-17.207
	c2.114-3.561,0.941-8.163-2.621-10.277c-3.561-2.115-8.163-0.941-10.277,2.621l-8.869,14.941l-40.584-68.363h5.555
	c2.757,16.85,17.41,29.75,35.027,29.75s32.271-12.9,35.027-29.75h5.555l-10.341,17.422c-2.114,3.561-0.941,8.163,2.621,10.277
	c3.561,2.114,8.164,0.941,10.277-2.621l11.961-20.15c2.753-4.638,3.021-9.6,0.736-13.613s-6.689-6.315-12.081-6.315H291.5v-8.343
	c4.705-4.403,8.615-9.696,11.441-15.673c0.985-0.44,1.96-0.898,2.93-1.364l30.727,29.168l-16.732,13.485
	c-2.768,2.232-4.38,5.482-4.42,8.915c-0.039,3.434,1.496,6.721,4.213,9.018l12.658,10.697L263.5,467.688z M337.5,429.5
	c1.654,0,3,1.346,3,3s-1.346,3-3,3h-23.602l5.577-6H337.5z M382,362.754h-35.414l2.204-1.776c2.704-2.179,4.335-5.373,4.473-8.762
	c0.023-0.576-0.013-1.147-0.074-1.716H382V362.754z M371.5,406.5c-1.654,0-3-1.346-3-3s1.346-3,3-3h31.828v6H371.5z"/>
<path d="M239.908,227.073V248c0,9.649,7.283,17.5,16.234,17.5h8.734c4.142,0,7.5-3.357,7.5-7.5s-3.358-7.5-7.5-7.5h-8.734
	c-0.298,0-1.234-0.914-1.234-2.5v-20.927c0-4.143-3.357-7.5-7.5-7.5C243.266,219.573,239.908,222.931,239.908,227.073z"/>
<path d="M228.5,216.26c0-11.595-9.41-21.028-20.977-21.028c-11.566,0-20.977,9.434-20.977,21.028
	c0,11.596,9.41,21.029,20.977,21.029S228.5,227.855,228.5,216.26z M201.547,216.26c0-3.324,2.681-6.028,5.977-6.028
	s5.977,2.704,5.977,6.028s-2.681,6.029-5.977,6.029C204.227,222.289,201.547,219.584,201.547,216.26z"/>
<path d="M304.477,195.231c-11.566,0-20.977,9.434-20.977,21.028c0,11.596,9.41,21.029,20.977,21.029s20.977-9.434,20.977-21.029
	C325.453,204.665,316.043,195.231,304.477,195.231z M304.477,222.289c-3.296,0-5.977-2.705-5.977-6.029s2.681-6.028,5.977-6.028
	s5.977,2.704,5.977,6.028C310.453,219.584,307.772,222.289,304.477,222.289z"/>
<path d="M272.201,197.502c0.813,0,1.639-0.133,2.45-0.413l46.292-16c3.915-1.354,5.991-5.624,4.639-9.539
	c-1.354-3.914-5.621-5.99-9.539-4.639l-46.292,16c-3.915,1.354-5.991,5.624-4.639,9.539
	C266.185,195.554,269.092,197.502,272.201,197.502z"/>
<path d="M234.349,197.089c0.812,0.28,1.638,0.413,2.45,0.413c3.109,0,6.016-1.948,7.089-5.052c1.353-3.915-0.724-8.186-4.639-9.539
	l-46.292-16c-3.916-1.351-8.184,0.725-9.539,4.639c-1.353,3.915,0.724,8.186,4.639,9.539L234.349,197.089z"/>
<path d="M187.566,456.5h-56.318c-5.79,0-10.5,4.71-10.5,10.5v13.526c0,5.79,4.71,10.5,10.5,10.5h56.318c5.79,0,10.5-4.71,10.5-10.5
	V467C198.066,461.21,193.356,456.5,187.566,456.5z M183.066,476.026h-47.318V471.5h47.318L183.066,476.026L183.066,476.026z"/>
<path d="M284.5,277.5h-57c-4.143,0-7.5,3.357-7.5,7.5s3.357,7.5,7.5,7.5h57c4.143,0,7.5-3.357,7.5-7.5S288.643,277.5,284.5,277.5z"
	/>
<path d="M275.5,94.5c0-9.925-8.075-18-18-18h-60c-9.925,0-18,8.075-18,18s8.075,18,18,18h60C267.425,112.5,275.5,104.425,275.5,94.5
	z M194.5,94.5c0-1.654,1.346-3,3-3h60c1.654,0,3,1.346,3,3s-1.346,3-3,3h-60C195.846,97.5,194.5,96.154,194.5,94.5z"/>
<path d="M224.5,60.5h60c9.925,0,18-8.075,18-18s-8.075-18-18-18h-60c-9.925,0-18,8.075-18,18S214.575,60.5,224.5,60.5z M224.5,39.5
	h60c1.654,0,3,1.346,3,3s-1.346,3-3,3h-60c-1.654,0-3-1.346-3-3S222.846,39.5,224.5,39.5z"/>
<path d="M282.5,101c0,4.143,3.357,7.5,7.5,7.5h13c4.143,0,7.5-3.357,7.5-7.5s-3.357-7.5-7.5-7.5h-13
	C285.857,93.5,282.5,96.857,282.5,101z"/>
<path d="M134,448.5c4.143,0,7.5-3.357,7.5-7.5s-3.357-7.5-7.5-7.5h-13c-4.143,0-7.5,3.357-7.5,7.5s3.357,7.5,7.5,7.5H134z"/>
<path d="M375,433.5c-4.143,0-7.5,3.357-7.5,7.5s3.357,7.5,7.5,7.5h13c4.143,0,7.5-3.357,7.5-7.5s-3.357-7.5-7.5-7.5H375z"/>
<path d="M366,479.5h-13c-4.143,0-7.5,3.357-7.5,7.5s3.357,7.5,7.5,7.5h13c4.143,0,7.5-3.357,7.5-7.5S370.143,479.5,366,479.5z"/>
<g>
</g>
<g>
</g>
<g>
</g>
<g>
</g>
<g>
</g>
<g>
</g>
<g>
</g>
<g>
</g>
<g>
</g>
<g>
</g>
<g>
</g>
<g>
</g>
<g>
</g>
<g>
</g>
<g>
</g>
</svg>
