<svg height="512" viewBox="0 0 512 512" width="512" xmlns="http://www.w3.org/2000/svg"><g id="filled_outline" data-name="filled outline"><g fill="#5d8668"><path d="m360 488h88v-40a64 64 0 0 0 -64-64h-23.276z"/><path d="m160 488h-96v-40a64 64 0 0 1 64-64h32z"/><path d="m183.999 327.998 72.001-72 72 72v56h-144.001z"/></g><path d="m215.999 311.998h80v80h-80z" fill="#f6d3bc"/><path d="m216 333.208a79.54 79.54 0 0 0 80 0v-21.208h-80z" fill="#eccbb4"/><path d="m320 228.345h-128a48 48 0 0 1 -48-48v-14.385a112 112 0 0 1 112-112 112 112 0 0 1 112 112v14.385a48 48 0 0 1 -48 48z" fill="#9b8268"/><path d="m176 160h160a0 0 0 0 1 0 0v88a80 80 0 0 1 -80 80 80 80 0 0 1 -80-80v-88a0 0 0 0 1 0 0z" fill="#f6d3bc"/><circle cx="215.999" cy="215.998" fill="#9b8268" r="16"/><circle cx="296" cy="215.998" fill="#9b8268" r="16"/><path d="m256 288a52.885 52.885 0 0 1 -37.657-15.6 8 8 0 0 1 11.313-11.313 37.25 37.25 0 0 0 52.687 0 8 8 0 0 1 11.313 11.313 52.885 52.885 0 0 1 -37.656 15.6z" fill="#9b8268"/><path d="m276.541 137.326-20.541 14.674-20.541-14.672a84.677 84.677 0 0 1 -35.459-68.906v-20.422l56-24 56 24v20.422a84.679 84.679 0 0 1 -35.459 68.904z" fill="#5d8668"/><path d="m235.458 103.288 20.542 14.672 20.541-14.672a84.587 84.587 0 0 0 34.31-55.782l-54.851-23.506-54.852 23.506a84.587 84.587 0 0 0 34.31 55.782z" fill="#6a9876"/><path d="m256 63.064a22.63 22.63 0 0 0 21.523 15.636 22.626 22.626 0 0 0 -8.223 25.3 22.629 22.629 0 0 0 -26.6 0 22.625 22.625 0 0 0 -8.22-25.3 22.628 22.628 0 0 0 21.52-15.636z" fill="#c94536"/><path d="m354.334 236.794-18.334 9.167v-56h7.278a24.721 24.721 0 0 1 24.722 24.721 24.723 24.723 0 0 1 -13.666 22.112z" fill="#eccbb4"/><path d="m157.665 236.794 18.335 9.167v-56h-7.278a24.721 24.721 0 0 0 -24.722 24.721 24.723 24.723 0 0 0 13.665 22.112z" fill="#eccbb4"/><path d="m256 408-72-24v-56l28.137 12.5a73.859 73.859 0 0 1 43.863 67.5z" fill="#6a9876"/><path d="m256 408 72-24v-56l-28.137 12.5a73.857 73.857 0 0 0 -43.863 67.5z" fill="#6a9876"/><path d="m127.999 383.998h256v104h-256z" fill="#6a9876"/><path d="m315.148 423.35a7.989 7.989 0 0 0 4.852-7.35v-32h-16v26.727l-51.149 21.922a7.988 7.988 0 0 0 -4.851 7.351v48h16v-42.728z" fill="#5d8668"/><path d="m184 384h-64a16 16 0 0 1 -16-16 16 16 0 0 1 16-16h64z" fill="#ca9c49"/><path d="m328 384h64a16 16 0 0 0 16-16 16 16 0 0 0 -16-16h-64z" fill="#ca9c49"/><path d="m416 455.999h32v32h-32z" fill="#ca9c49"/><path d="m96 464a23.726 23.726 0 0 0 -31.655-22.638 64.688 64.688 0 0 0 -.345 6.638v38.53a23.769 23.769 0 0 0 32-22.53z" fill="#c94536"/><path d="m280 447.999h16v16h-16z" fill="#5d8668"/><circle cx="215.999" cy="216.002" r="16"/><circle cx="296" cy="216.002" r="16"/><path d="m218.343 261.088a8 8 0 0 0 0 11.313 53.247 53.247 0 0 0 75.313 0 8 8 0 0 0 -11.313-11.313 37.25 37.25 0 0 1 -52.687 0 8 8 0 0 0 -11.313 0z"/><path d="m235.093 101.525a8 8 0 0 0 12.313 8.946 14.594 14.594 0 0 1 17.195 0 8 8 0 0 0 12.313-8.946 14.563 14.563 0 0 1 5.312-16.344 8 8 0 0 0 -4.7-14.476 14.582 14.582 0 0 1 -13.906-10.1 8.006 8.006 0 0 0 -15.227 0 14.582 14.582 0 0 1 -13.906 10.1 8 8 0 0 0 -4.7 14.476 14.563 14.563 0 0 1 5.306 16.344zm20.914-23.633a30.159 30.159 0 0 0 7.414 5.391 30.663 30.663 0 0 0 -2.836 8.717 30.688 30.688 0 0 0 -9.164 0 30.663 30.663 0 0 0 -2.836-8.719 30.525 30.525 0 0 0 7.422-5.389z"/><path d="m448 496a8 8 0 0 0 8-8v-40a72.1 72.1 0 0 0 -44.243-66.422 23.964 23.964 0 0 0 -19.757-37.578h-56v-16a7.923 7.923 0 0 0 -.546-2.741c-.069-.187-.131-.365-.214-.546a7.9 7.9 0 0 0 -1.522-2.276c-.026-.028-.035-.066-.062-.093l-13.883-13.883a87.576 87.576 0 0 0 24.076-57.478l14.065-7.03a32.355 32.355 0 0 0 14.432-43.977 55.714 55.714 0 0 0 3.654-19.654v-14.322a117.837 117.837 0 0 0 -56-101.219v-16.781a7.99 7.99 0 0 0 -4.852-7.352l-56-24a8.016 8.016 0 0 0 -6.3 0l-56 24a7.99 7.99 0 0 0 -4.848 7.352v16.59a120.115 120.115 0 0 0 -56 101.41v14.32a55.714 55.714 0 0 0 3.654 19.656 32.355 32.355 0 0 0 14.432 43.977l14.065 7.03a87.576 87.576 0 0 0 24.076 57.478l-13.883 13.883c-.027.027-.035.065-.062.093a7.915 7.915 0 0 0 -1.522 2.276c-.083.181-.145.359-.214.546a7.923 7.923 0 0 0 -.546 2.741v16h-56a23.964 23.964 0 0 0 -19.757 37.578 72.164 72.164 0 0 0 -43.844 58.9c0 .022-.014.042-.016.064s0 .043 0 .064a72.338 72.338 0 0 0 -.383 7.394v40a8 8 0 0 0 8 8zm-8-16h-16v-16h16zm-64 0h-112v-34.724l51.148-21.922a7.99 7.99 0 0 0 4.852-7.354v-20.9l9.289-3.1h46.711zm-72-158.337c1.274-.833 2.5-1.728 3.724-2.624l6.382 6.382-10.106 4.491zm-16 16.143a81.805 81.805 0 0 0 -32 35.051 81.814 81.814 0 0 0 -32-35.051v-7.916a86.828 86.828 0 0 0 64 0zm-80-16.143v8.249l-10.106-4.491 6.382-6.382c1.224.896 2.45 1.791 3.724 2.624zm-16 30.337v-11.685l16.891 7.508a65.93 65.93 0 0 1 38.109 48.75l-55-18.336zm111.11-4.179 16.89-7.506v37.922l-55 18.336a65.926 65.926 0 0 1 38.109-48.75zm88.89 12.179a8 8 0 0 1 0 16h-56v-16zm-41.242-130.357-6.758 3.375v-35.039a16.723 16.723 0 0 1 6.758 31.664zm9.242-63.643v14.32a39.774 39.774 0 0 1 -.528 6.1 32.313 32.313 0 0 0 -15.472-4.384v-22.036a8 8 0 0 0 -8-8h-66.242l11.429-8.164a92.768 92.768 0 0 0 37.493-60.75 102.944 102.944 0 0 1 41.32 82.914zm-152-112.725 48-20.57 48 20.57v15.149a76.849 76.849 0 0 1 -32.11 62.4l-15.89 11.35-15.891-11.352a76.849 76.849 0 0 1 -32.109-62.398zm-56 112.725a104.146 104.146 0 0 1 41.317-82.933 92.772 92.772 0 0 0 37.5 60.769l11.424 8.164h-66.241a8 8 0 0 0 -8 8v22.034a32.313 32.313 0 0 0 -15.472 4.388 39.774 39.774 0 0 1 -.528-6.1zm0 48.687a16.743 16.743 0 0 1 16-16.71v35.039l-6.757-3.375a16.622 16.622 0 0 1 -9.243-14.952zm32 31.274v-77.961h144v80a72 72 0 0 1 -144 0zm-64 130.039a8 8 0 1 1 0-16h56v16zm0 16.571v87.429h-20.45a31.647 31.647 0 0 0 -25.268-47.769 56.147 56.147 0 0 1 45.718-39.658zm-48 55.429a16 16 0 0 1 0 32zm64-56h46.71l70.758 23.586c.012 0 .025 0 .037.006a7.83 7.83 0 0 0 4.989 0c.012 0 .025 0 .037-.006l45.469-15.154v10.3l-51.149 21.922a7.988 7.988 0 0 0 -4.851 7.346v40h-112zm256 .571a56.084 56.084 0 0 1 48 55.429h-24a8 8 0 0 0 -8 8v24h-16z"/><path d="m280 448.002h16v16h-16z"/></g></svg>