<?xml version="1.0" encoding="iso-8859-1"?>
<!-- Generator: Adobe Illustrator 19.0.0, SVG Export Plug-In . SVG Version: 6.00 Build 0)  -->
<svg version="1.1" id="Layer_1" xmlns="http://www.w3.org/2000/svg" xmlns:xlink="http://www.w3.org/1999/xlink" x="0px" y="0px"
	 viewBox="0 0 512 512" style="enable-background:new 0 0 512 512;" xml:space="preserve">
<g>
	<polygon style="fill:#35495E;" points="0,105.931 512,105.931 512,0 0,0 	"/>
	<polygon style="fill:#BDC3C7;" points="0,105.931 0,423.724 44.138,423.724 44.138,256 467.862,256 467.862,423.724 512,423.724 
		512,105.931 	"/>
	<path style="fill:#E64C3C;" d="M79.448,52.966c0,14.627-11.855,26.483-26.483,26.483S26.483,67.593,26.483,52.966
		s11.855-26.483,26.483-26.483S79.448,38.338,79.448,52.966"/>
	<path style="fill:#F0C419;" d="M158.897,52.966c0,14.627-11.855,26.483-26.483,26.483s-26.483-11.855-26.483-26.483
		s11.855-26.483,26.483-26.483S158.897,38.338,158.897,52.966"/>
	<path style="fill:#24AE5F;" d="M238.345,52.966c0,14.627-11.855,26.483-26.483,26.483c-14.627,0-26.483-11.855-26.483-26.483
		s11.855-26.483,26.483-26.483C226.489,26.483,238.345,38.338,238.345,52.966"/>
	<polygon style="fill:#35495E;" points="44.138,256 467.862,256 467.862,185.379 44.138,185.379 	"/>
	<polygon style="fill:#ECF0F1;" points="44.138,512 467.862,512 467.862,256 44.138,256 	"/>
	<path style="fill:#E64C3C;" d="M88.276,229.517h-8.828c-4.873,0-8.828-3.955-8.828-8.828c0-4.873,3.955-8.828,8.828-8.828h8.828
		c4.873,0,8.828,3.955,8.828,8.828C97.103,225.562,93.149,229.517,88.276,229.517"/>
	<path style="fill:#F0C419;" d="M132.414,229.517h-8.828c-4.873,0-8.828-3.955-8.828-8.828c0-4.873,3.955-8.828,8.828-8.828h8.828
		c4.873,0,8.828,3.955,8.828,8.828C141.241,225.562,137.287,229.517,132.414,229.517"/>
	<g>
		<path style="fill:#24AE5F;" d="M176.552,229.517h-8.828c-4.873,0-8.828-3.955-8.828-8.828c0-4.873,3.955-8.828,8.828-8.828h8.828
			c4.873,0,8.828,3.955,8.828,8.828C185.379,225.562,181.425,229.517,176.552,229.517"/>
		<path style="fill:#24AE5F;" d="M291.31,406.069h-17.655c-4.873,0-8.828-3.955-8.828-8.828c0-4.873,3.955-8.828,8.828-8.828h17.655
			c4.873,0,8.828,3.955,8.828,8.828C300.138,402.114,296.183,406.069,291.31,406.069"/>
	</g>
	<path style="fill:#894B9D;" d="M414.897,441.379h-17.655c-4.873,0-8.828-3.955-8.828-8.828s3.955-8.828,8.828-8.828h17.655
		c4.873,0,8.828,3.955,8.828,8.828S419.769,441.379,414.897,441.379"/>
	<path style="fill:#4482C3;" d="M414.897,406.069h-88.276c-4.873,0-8.828-3.955-8.828-8.828c0-4.873,3.955-8.828,8.828-8.828h88.276
		c4.873,0,8.828,3.955,8.828,8.828C423.724,402.114,419.769,406.069,414.897,406.069"/>
	<path style="fill:#E64C3C;" d="M361.931,441.379h-88.276c-4.873,0-8.828-3.955-8.828-8.828s3.955-8.828,8.828-8.828h88.276
		c4.873,0,8.828,3.955,8.828,8.828S366.804,441.379,361.931,441.379"/>
	<path style="fill:#894B9D;" d="M291.31,335.448h-17.655c-4.873,0-8.828-3.955-8.828-8.828c0-4.873,3.955-8.828,8.828-8.828h17.655
		c4.873,0,8.828,3.955,8.828,8.828C300.138,331.493,296.183,335.448,291.31,335.448"/>
	<path style="fill:#E64C3C;" d="M414.897,370.759h-17.655c-4.873,0-8.828-3.955-8.828-8.828s3.955-8.828,8.828-8.828h17.655
		c4.873,0,8.828,3.955,8.828,8.828S419.769,370.759,414.897,370.759"/>
	<path style="fill:#4482C3;" d="M414.897,335.448h-88.276c-4.873,0-8.828-3.955-8.828-8.828c0-4.873,3.955-8.828,8.828-8.828h88.276
		c4.873,0,8.828,3.955,8.828,8.828C423.724,331.493,419.769,335.448,414.897,335.448"/>
	<path style="fill:#F0C419;" d="M361.931,370.759h-88.276c-4.873,0-8.828-3.955-8.828-8.828s3.955-8.828,8.828-8.828h88.276
		c4.873,0,8.828,3.955,8.828,8.828S366.804,370.759,361.931,370.759"/>
	<polygon style="fill:#FFFFFF;" points="97.103,441.379 220.69,441.379 220.69,317.793 97.103,317.793 	"/>
	<g>
		<path style="fill:#24AE5F;" d="M167.724,414.897c-2.26,0-4.52-0.865-6.241-2.586L126.173,377c-3.452-3.452-3.452-9.031,0-12.482
			c3.452-3.452,9.031-3.452,12.482,0l35.31,35.31c3.452,3.452,3.452,9.031,0,12.482
			C172.244,414.031,169.984,414.897,167.724,414.897"/>
		<path style="fill:#24AE5F;" d="M150.069,397.241c-2.26,0-4.52-0.865-6.241-2.586c-3.452-3.452-3.452-9.031,0-12.482l35.31-35.31
			c3.452-3.452,9.031-3.452,12.482,0c3.452,3.452,3.452,9.031,0,12.482l-35.31,35.31
			C154.589,396.376,152.329,397.241,150.069,397.241"/>
		<path style="fill:#24AE5F;" d="M191.62,346.862c-3.452-3.452-9.031-3.452-12.482,0c-3.452,3.452-3.452,9.031,0,12.482l35.31,35.31
			c1.721,1.721,3.981,2.586,6.241,2.586v-21.31L191.62,346.862z"/>
		<path style="fill:#24AE5F;" d="M127.116,363.698l-30.014,22.51v19.862h0.009c1.845,0,3.699-0.574,5.288-1.765l35.31-26.483
			c3.902-2.922,4.687-8.457,1.766-12.359C136.562,361.571,131.027,360.768,127.116,363.698"/>
	</g>
</g>
<g>
</g>
<g>
</g>
<g>
</g>
<g>
</g>
<g>
</g>
<g>
</g>
<g>
</g>
<g>
</g>
<g>
</g>
<g>
</g>
<g>
</g>
<g>
</g>
<g>
</g>
<g>
</g>
<g>
</g>
</svg>
