<svg id="_x33_0" enable-background="new 0 0 64 64" height="512" viewBox="0 0 64 64" width="512" xmlns="http://www.w3.org/2000/svg"><g><g><g><path d="m40.81 27.19c-2.09-.45-4.13-1.07-6.1-1.9-.92-.39-1.82-.82-2.71-1.29-.89.47-1.79.9-2.71 1.29-1.97.83-4.01 1.45-6.1 1.9-1.71.38-3.44.65-5.19.81v14 1.56c0 1.95.29 3.83.83 5.61 1.86 6.17 6.74 11.09 13.17 12.83 6.43-1.74 11.31-6.66 13.17-12.83.54-1.78.83-3.66.83-5.61v-1.56-14c-1.75-.16-3.48-.43-5.19-.81z" fill="#fcd770"/></g><g><path d="m18.83 49.17-12.83 12.83c-1.1 0-2.1-.45-2.83-1.17-.72-.73-1.17-1.73-1.17-2.83l16-16v1.56c0 1.95.29 3.83.83 5.61z" fill="#b27946"/></g><g><path d="m46 42 16 16c0 1.1-.45 2.1-1.17 2.83-.73.72-1.73 1.17-2.83 1.17l-12.83-12.83c.54-1.78.83-3.66.83-5.61z" fill="#b27946"/></g><g><path d="m32 28c-3.05 1.41-6.4 2.38-10 3v12.75c0 6.45 4.06 12.16 10 14.25 5.94-2.09 10-7.8 10-14.25v-12.71c-3.6-.62-6.95-1.63-10-3.04z" fill="#ffeaa7"/></g><g><path d="m46 22-5.19 5.19c-2.09-.45-4.13-1.07-6.1-1.9l7.29-7.29z" fill="#b27946"/></g><g><path d="m22 18 7.29 7.29c-1.97.83-4.01 1.45-6.1 1.9l-5.19-5.19z" fill="#b27946"/></g><g><path d="m14 10-4 4-3.17-3.17c-.53-.53-.83-1.25-.83-2 0-.78.32-1.49.83-2s1.22-.83 2-.83c.75 0 1.47.3 2 .83z" fill="#b27946"/></g><g><path d="m50 10 4 4 3.17-3.17c.53-.53.83-1.25.83-2 0-.78-.32-1.49-.83-2s-1.22-.83-2-.83c-.75 0-1.47.3-2 .83z" fill="#b27946"/></g><g><path d="m14 10 1 1 6 6 1 1-4 4-1-1-6-6-1-1z" fill="#656d78"/></g><g><path d="m43 17 6-6 1-1 4 4-1 1-6 6-1 1-4-4z" fill="#656d78"/></g><g><path d="m53 15c1.37 1.37 3.1 2.32 4.97 2.74-.36 4.38-3.85 7.87-8.23 8.23-.42-1.87-1.37-3.6-2.74-4.97z" fill="#656d78"/></g><g><path d="m49 11-6 6c-1.37-1.37-3.1-2.32-4.97-2.74.36-4.38 3.85-7.87 8.23-8.23.42 1.87 1.37 3.6 2.74 4.97z" fill="#656d78"/></g><g><path d="m25.97 14.26c-1.87.42-3.6 1.37-4.97 2.74l-6-6c1.37-1.37 2.32-3.1 2.74-4.97 4.38.36 7.87 3.85 8.23 8.23z" fill="#656d78"/></g><g><path d="m11 15 6 6c-1.37 1.37-2.32 3.1-2.74 4.97-4.38-.36-7.87-3.85-8.23-8.23 1.87-.42 3.6-1.37 4.97-2.74z" fill="#656d78"/></g><g><path d="m60.24 18h1.76c0 3.32-1.34 6.32-3.51 8.49s-5.17 3.51-8.49 3.51v-1.76c0-.77-.09-1.53-.26-2.27 4.38-.36 7.87-3.85 8.23-8.23.74.17 1.5.26 2.27.26z" fill="#e6e9ed"/></g><g><path d="m46 3.76c0 .77.09 1.53.26 2.27-4.38.36-7.87 3.85-8.23 8.23-.74-.17-1.5-.26-2.27-.26h-1.76c0-3.32 1.34-6.32 3.51-8.49s5.17-3.51 8.49-3.51z" fill="#e6e9ed"/></g><g><path d="m14.26 25.97c-.17.74-.26 1.5-.26 2.27v1.76c-3.32 0-6.32-1.34-8.49-3.51s-3.51-5.17-3.51-8.49h1.76c.77 0 1.53-.09 2.27-.26.36 4.38 3.85 7.87 8.23 8.23z" fill="#e6e9ed"/></g><g><path d="m30 14h-1.76c-.77 0-1.53.09-2.27.26-.36-4.38-3.85-7.87-8.23-8.23.17-.74.26-1.5.26-2.27v-1.76c3.32 0 6.32 1.34 8.49 3.51s3.51 5.17 3.51 8.49z" fill="#e6e9ed"/></g></g><path d="m50 31c7.168 0 13-5.832 13-13v-1h-2.758c-2.132 0-4.152-.72-5.788-2.04l3.425-3.425c.723-.722 1.121-1.684 1.121-2.707 0-2.11-1.718-3.828-3.828-3.828-1.022 0-1.984.398-2.707 1.121l-3.425 3.425c-1.32-1.637-2.04-3.656-2.04-5.788v-2.758h-1c-7.168 0-13 5.832-13 13v1h2.758c2.132 0 4.152.72 5.788 2.04l-7.054 7.054c-.689-.306-1.366-.625-2.019-.975l-.473-.254-.473.254c-.652.35-1.33.67-2.019.975l-7.054-7.054c1.637-1.32 3.656-2.04 5.788-2.04h2.758v-1c0-7.168-5.832-13-13-13h-1v2.758c0 2.132-.72 4.152-2.04 5.788l-3.425-3.425c-.722-.723-1.684-1.121-2.707-1.121-2.11 0-3.828 1.718-3.828 3.828 0 1.022.398 1.984 1.121 2.707l3.425 3.425c-1.637 1.32-3.656 2.04-5.788 2.04h-2.758v1c0 7.168 5.832 13 13 13h1v-2.758c0-2.132.72-4.152 2.04-5.788l4.115 4.115c-1.058.181-2.138.331-3.248.435l-.907.085v14.497l-16 16v.414c0 2.757 2.243 5 5 5h.414l12.015-12.015c2.277 5.759 7.121 10.305 13.311 11.979l.26.072.261-.071c6.19-1.674 11.033-6.22 13.311-11.979l12.014 12.014h.414c2.757 0 5-2.243 5-5v-.414l-16-16v-14.497l-.907-.085c-1.11-.104-2.19-.254-3.248-.435l4.115-4.115c1.32 1.637 2.04 3.656 2.04 5.788v2.758zm10.955-12c-.477 5.27-4.686 9.479-9.955 9.955v-.713c0-.482-.041-.957-.1-1.427 4.021-.767 7.149-3.894 7.915-7.915.471.059.945.1 1.427.1zm-14.955 1.586-2.586-2.586 6.586-6.586 2.586 2.586zm7.879-13.051c.34-.34.811-.535 1.293-.535 1.008 0 1.828.82 1.828 1.828 0 .481-.195.953-.535 1.293l-2.465 2.465-2.586-2.586zm-18.834 5.465c.476-5.27 4.685-9.479 9.955-9.955v.713c0 .482.041.957.1 1.427-4.021.767-7.149 3.894-7.915 7.915-.471-.059-.945-.1-1.427-.1zm4.095.52c.601-3.25 3.13-5.779 6.381-6.381.438 1.393 1.146 2.689 2.1 3.826l-4.655 4.655c-1.137-.953-2.434-1.662-3.826-2.1zm-8.14 42.987c-4.839-2.295-8-7.255-8-12.761v-11.91c2.882-.543 5.554-1.334 8-2.332zm2-27c2.499 1.028 5.173 1.831 8 2.369v11.87c0 5.506-3.161 10.466-8 12.761zm-21.586-15.507 2.586-2.586 6.586 6.586-2.586 2.586zm7.586-10.955c5.27.476 9.479 4.685 9.955 9.955h-.713c-.482 0-.957.041-1.427.1-.767-4.021-3.894-7.149-7.915-7.915.059-.471.1-.945.1-1.427zm-.52 4.095c3.25.601 5.779 3.13 6.381 6.381-1.393.438-2.689 1.146-3.826 2.1l-4.655-4.655c.953-1.137 1.662-2.434 2.1-3.826zm-11.48 1.688c0-1.008.82-1.828 1.828-1.828.481 0 .953.195 1.293.535l2.465 2.465-2.586 2.586-2.465-2.465c-.34-.34-.535-.811-.535-1.293zm6 20.127c-5.27-.476-9.479-4.685-9.955-9.955h.713c.482 0 .957-.041 1.427-.1.767 4.021 3.894 7.149 7.915 7.915-.059.471-.1.945-.1 1.427zm.52-4.095c-3.25-.601-5.779-3.13-6.381-6.381 1.393-.438 2.689-1.146 3.826-2.1l4.655 4.655c-.953 1.137-1.662 2.434-2.1 3.826zm5.894-2.86 2.586-2.586 5.492 5.492c-1.275.465-2.599.868-3.98 1.192zm-13.803 38.975c-1.343-.175-2.411-1.243-2.586-2.586l14.009-14.009c.062 1.539.292 3.042.685 4.487zm13.389-17.414v-14.659c4.41-.499 8.432-1.607 12-3.289v1.721c-2.736 1.197-5.808 2.106-9.169 2.681l-.831.141v13.59c0 6.6 3.993 12.504 10 14.932v1.951c-7.124-2.512-12-9.342-12-17.068zm39.389 17.414-12.108-12.108c.393-1.445.623-2.947.685-4.487l14.009 14.009c-.175 1.343-1.243 2.411-2.586 2.586zm-13.389-17.414c0 7.727-4.876 14.557-12 17.069v-1.951c6.007-2.428 10-8.332 10-14.932v-13.55l-.831-.142c-3.281-.561-6.355-1.484-9.169-2.72v-1.722c3.568 1.682 7.59 2.79 12 3.289zm-8.492-18.655 5.492-5.492 2.586 2.586-4.099 4.099c-1.38-.325-2.704-.728-3.979-1.193zm11.872-3.872 4.655-4.655c1.137.954 2.433 1.662 3.826 2.1-.601 3.25-3.13 5.779-6.381 6.381-.438-1.392-1.147-2.689-2.1-3.826z"/></g></svg>