<svg id="Layer_3" enable-background="new 0 0 64 64" height="512" viewBox="0 0 64 64" width="512" xmlns="http://www.w3.org/2000/svg"><path d="m46 39-37-37h-7v7l37 37" fill="#758190"/><path d="m44 49 9 9 5-5-9-9" fill="#f5b953"/><path d="m52.05 54.879h9.899v4.243h-9.899z" fill="#e47c6e" transform="matrix(.707 -.707 .707 .707 -23.61 57)"/><path d="m35.308 41.672h18.385v5.657h-18.385z" fill="#e47c6e" transform="matrix(.707 -.707 .707 .707 -18.433 44.5)"/><path d="m18 39 37-37h7v7l-37 37" fill="#c1c8d1"/><path d="m20 49-9 9-5-5 9-9" fill="#f5b953"/><path d="m4.879 52.05h4.243v9.899h-4.243z" fill="#e47c6e" transform="matrix(.707 -.707 .707 .707 -38.255 21.645)"/><path d="m16.672 35.308h5.657v18.385h-5.657z" fill="#e47c6e" transform="matrix(.707 -.707 .707 .707 -25.755 26.822)"/><path d="m9 63c-.256 0-.512-.098-.707-.293l-7-7c-.391-.391-.391-1.023 0-1.414l3-3c.391-.391 1.023-.391 1.414 0l7 7c.391.391.391 1.023 0 1.414l-3 3c-.195.195-.451.293-.707.293zm-5.586-8 5.586 5.586 1.586-1.586-5.586-5.586z"/><path d="m4.136 47.5h12.728v2h-12.728z" transform="matrix(.707 -.707 .707 .707 -31.219 21.63)"/><path d="m9.136 52.5h12.728v2h-12.728z" transform="matrix(.707 -.707 .707 .707 -33.29 26.63)"/><path d="m24 54c-.256 0-.512-.098-.707-.293l-13-13c-.391-.391-.391-1.023 0-1.414l4-4c.391-.391 1.023-.391 1.414 0l13 13c.391.391.391 1.023 0 1.414l-4 4c-.195.195-.451.293-.707.293zm-11.586-14 11.586 11.586 2.586-2.586-11.586-11.586z"/><path d="m25.707 46.707-1.414-1.414 36.707-36.707v-5.586h-5.586l-36.707 36.707-1.414-1.414 37-37c.187-.188.442-.293.707-.293h7c.552 0 1 .447 1 1v7c0 .266-.105.52-.293.707z"/><path d="m12.509 21.5h57.983v2h-57.983z" transform="matrix(.707 -.707 .707 .707 -3.755 35.935)"/><path d="m10.5 48.964h2v7.071h-2z" transform="matrix(.707 -.707 .707 .707 -33.755 23.509)"/><path d="m13.5 45.964h2v7.071h-2z" transform="matrix(.707 -.707 .707 .707 -30.755 24.751)"/><path d="m55 63c-.256 0-.512-.098-.707-.293l-3-3c-.391-.391-.391-1.023 0-1.414l7-7c.391-.391 1.023-.391 1.414 0l3 3c.391.391.391 1.023 0 1.414l-7 7c-.195.195-.451.293-.707.293zm-1.586-4 1.586 1.586 5.586-5.586-1.586-1.586z"/><path d="m52.5 42.136h2v12.728h-2z" transform="matrix(.707 -.707 .707 .707 -18.625 52.036)"/><path d="m47.5 47.136h2v12.728h-2z" transform="matrix(.707 -.707 .707 .707 -23.625 49.965)"/><path d="m40 54c-.256 0-.512-.098-.707-.293l-4-4c-.391-.391-.391-1.023 0-1.414l13-13c.391-.391 1.023-.391 1.414 0l4 4c.391.391.391 1.023 0 1.414l-13 13c-.195.195-.451.293-.707.293zm-2.586-5 2.586 2.586 11.586-11.586-2.586-2.586z"/><path d="m34.5 37.55h2v9.899h-2z" transform="matrix(.707 -.707 .707 .707 -19.654 37.55)"/><path d="m24.293 32.707-23-23c-.188-.187-.293-.441-.293-.707v-7c0-.553.448-1 1-1h7c.265 0 .52.105.707.293l23 23-1.414 1.414-22.707-22.707h-5.586v5.586l22.707 22.707z"/><path d="m41.5 30.55h2v9.899h-2z" transform="matrix(.707 -.707 .707 .707 -12.654 40.45)"/><path d="m14.5-3.592h2v38.184h-2z" transform="matrix(.707 -.707 .707 .707 -6.42 15.5)"/><path d="m38 33.343h2v11.314h-2z" transform="matrix(.707 -.707 .707 .707 -16.154 39)"/><path d="m48.964 51.5h7.071v2h-7.071z" transform="matrix(.707 -.707 .707 .707 -21.746 52.5)"/><path d="m45.964 48.5h7.071v2h-7.071z" transform="matrix(.707 -.707 .707 .707 -20.504 49.5)"/></svg>