<svg id="Capa_1" enable-background="new 0 0 507.847 507.847" height="512" viewBox="0 0 507.847 507.847" width="512" xmlns="http://www.w3.org/2000/svg"><g><g><path d="m126.049 175.474h-38.764v-148.592c0-10.704 8.678-19.382 19.382-19.382 10.704 0 19.382 8.677 19.382 19.382z" fill="#736e6e"/></g><g><path d="m76.495 139.232h60.344v36.242h-60.344z" fill="#80b6fc"/></g><g><path d="m246.409 500.347h-177.295c-8.291 0-15.012-6.721-15.012-15.012v-294.849c0-8.291 6.721-15.012 15.012-15.012h177.295c8.291 0 15.012 6.721 15.012 15.012v294.849c0 8.291-6.721 15.012-15.012 15.012z" fill="#f7e365"/></g><g><path d="m223.312 285.22h-131.102c-2.72 0-4.925-2.205-4.925-4.925v-63.457c0-2.72 2.205-4.925 4.925-4.925h131.102c2.72 0 4.925 2.205 4.925 4.925v63.457c0 2.72-2.205 4.925-4.925 4.925z" fill="#f7f7f7"/></g><g><path d="m215.413 351.461h-115.304c-5.024 0-9.096-4.073-9.096-9.096v-13.305c0-5.024 4.073-9.096 9.096-9.096h115.304c5.024 0 9.096 4.073 9.096 9.096v13.306c0 5.023-4.072 9.095-9.096 9.095z" fill="#9ec8fc"/></g><g><path d="m284.993 175.474h-38.764v-148.592c0-10.704 8.677-19.382 19.382-19.382 10.704 0 19.382 8.677 19.382 19.382z" fill="#736e6e"/></g><g><path d="m235.439 139.232h60.344v36.242h-60.344z" fill="#80b6fc"/></g><g><path d="m405.353 500.347h-177.295c-8.291 0-15.012-6.721-15.012-15.012v-294.849c0-8.291 6.721-15.012 15.012-15.012h177.295c8.291 0 15.012 6.721 15.012 15.012v294.849c0 8.291-6.721 15.012-15.012 15.012z" fill="#f7e365"/></g><g><path d="m405.353 175.474h-30c8.291 0 15.012 6.721 15.012 15.012v294.849c0 8.291-6.721 15.012-15.012 15.012h30c8.291 0 15.012-6.721 15.012-15.012v-294.849c0-8.291-6.721-15.012-15.012-15.012z" fill="#f5de46"/></g><g><path d="m382.256 285.22h-131.102c-2.72 0-4.925-2.205-4.925-4.925v-63.457c0-2.72 2.205-4.925 4.925-4.925h131.102c2.72 0 4.925 2.205 4.925 4.925v63.457c0 2.72-2.205 4.925-4.925 4.925z" fill="#f7f7f7"/></g><g><path d="m382.256 211.913h-30c2.72 0 4.925 2.205 4.925 4.925v63.457c0 2.72-2.205 4.925-4.925 4.925h30c2.72 0 4.925-2.205 4.925-4.925v-63.457c0-2.72-2.205-4.925-4.925-4.925z" fill="#e8e8e8"/></g><g><path d="m374.357 351.461h-115.304c-5.024 0-9.096-4.073-9.096-9.096v-13.305c0-5.024 4.073-9.096 9.096-9.096h115.304c5.024 0 9.096 4.073 9.096 9.096v13.306c0 5.023-4.072 9.095-9.096 9.095z" fill="#9ec8fc"/></g><g><path d="m443.28 223.957h-22.915v60.344h22.915c5.78 0 10.466-4.686 10.466-10.466v-39.412c-.001-5.78-4.686-10.466-10.466-10.466z" fill="#736e6e"/></g><g><path d="m424.445 361.633h18.835c5.78 0 10.466-4.686 10.466-10.466v-19.412c0-5.78-4.686-10.466-10.466-10.466h-18.835" fill="#736e6e"/></g><g><circle cx="94.785" cy="385.705" r="7.5"/><circle cx="94.785" cy="423.119" r="7.5"/><circle cx="94.785" cy="460.532" r="7.5"/><circle cx="136.839" cy="385.705" r="7.5"/><circle cx="136.839" cy="423.119" r="7.5"/><circle cx="136.839" cy="460.532" r="7.5"/><circle cx="178.892" cy="385.705" r="7.5"/><circle cx="178.892" cy="423.119" r="7.5"/><circle cx="178.892" cy="460.532" r="7.5"/><circle cx="253.729" cy="385.705" r="7.5"/><circle cx="253.729" cy="423.119" r="7.5"/><circle cx="253.729" cy="460.532" r="7.5"/><circle cx="295.783" cy="385.705" r="7.5"/><circle cx="295.783" cy="423.119" r="7.5"/><circle cx="295.783" cy="460.532" r="7.5"/><circle cx="337.836" cy="385.705" r="7.5"/><circle cx="337.836" cy="423.119" r="7.5"/><circle cx="337.836" cy="460.532" r="7.5"/><circle cx="379.89" cy="385.705" r="7.5"/><circle cx="379.89" cy="423.119" r="7.5"/><circle cx="379.89" cy="460.532" r="7.5"/><path d="m443.279 291.801c9.907 0 17.966-8.06 17.966-17.966v-39.412c0-9.906-8.06-17.966-17.966-17.966h-15.415v-25.971c0-12.413-10.099-22.512-22.512-22.512h-102.07v-28.742c0-4.142-3.358-7.5-7.5-7.5h-3.29v-10.246c0-4.142-3.358-7.5-7.5-7.5s-7.5 3.358-7.5 7.5v10.246h-23.764v-104.85c0-6.552 5.33-11.882 11.882-11.882s11.882 5.33 11.882 11.882v64.605c0 4.142 3.358 7.5 7.5 7.5s7.5-3.358 7.5-7.5v-64.605c.001-14.823-12.058-26.882-26.881-26.882s-26.882 12.059-26.882 26.882v104.851h-3.29c-4.142 0-7.5 3.358-7.5 7.5v28.745c-.729.004-83.6-.003-83.6-.003v-28.742c0-4.142-3.358-7.5-7.5-7.5h-3.29v-104.851c0-14.823-12.059-26.882-26.882-26.882s-26.882 12.059-26.882 26.882v104.851h-3.29c-4.142 0-7.5 3.358-7.5 7.5v28.745c-12.358.064-22.394 10.136-22.394 22.509v174.533c0 4.142 3.358 7.5 7.5 7.5s7.5-3.358 7.5-7.5v-174.534c0-4.142 3.37-7.512 7.512-7.512h137.726c-.835 2.351-1.294 4.878-1.294 7.512v13.926h-113.335c-6.852 0-12.425 5.574-12.425 12.425v63.457c0 6.851 5.574 12.425 12.425 12.425h113.335v19.743h-105.436c-9.151 0-16.596 7.445-16.596 16.596v13.306c0 9.151 7.445 16.596 16.596 16.596h105.437v126.374c0 2.634.459 5.161 1.294 7.512h-137.726c-4.142 0-7.512-3.37-7.512-7.512v-90.314c0-4.142-3.358-7.5-7.5-7.5s-7.5 3.358-7.5 7.5v90.315c0 12.413 10.099 22.512 22.512 22.512h336.239c12.413 0 22.512-10.099 22.512-22.512v-116.202h15.415c9.907 0 17.966-8.06 17.966-17.966v-19.412c0-9.906-8.06-17.966-17.966-17.966h-15.415v-21.989h15.414zm0-60.343c1.636 0 2.966 1.331 2.966 2.966v39.412c0 1.635-1.331 2.966-2.966 2.966h-15.415v-45.343h15.415zm-200.34-63.484v-21.242h45.344v21.242zm-158.944-21.242h45.344v21.242h-45.344zm10.79-119.85c0-6.552 5.33-11.882 11.882-11.882s11.882 5.33 11.882 11.882v104.851h-23.764zm0 250.838v-58.308h110.761v58.308zm5.324 66.241c-.88 0-1.596-.716-1.596-1.596v-13.305c0-.88.716-1.596 1.596-1.596h105.437v16.498h-105.437zm312.756 141.374c0 4.142-3.37 7.512-7.512 7.512h-177.295c-4.142 0-7.512-3.37-7.512-7.512v-294.849c0-4.142 3.37-7.512 7.512-7.512h177.295c4.142 0 7.512 3.37 7.512 7.512zm30.414-156.545c1.636 0 2.966 1.33 2.966 2.966v19.412c0 1.635-1.331 2.966-2.966 2.966h-15.415v-25.344z"/><path d="m382.256 204.413h-131.102c-6.852 0-12.425 5.574-12.425 12.425v63.457c0 6.852 5.574 12.425 12.425 12.425h131.102c6.851 0 12.425-5.574 12.425-12.425v-63.457c0-6.852-5.574-12.425-12.425-12.425zm-2.575 73.307h-125.952v-58.308h125.952z"/><path d="m374.357 312.463h-115.304c-9.151 0-16.596 7.445-16.596 16.596v13.306c0 9.151 7.445 16.596 16.596 16.596h115.304c9.151 0 16.596-7.445 16.596-16.596v-13.305c0-9.152-7.445-16.597-16.596-16.597zm1.596 29.902c0 .88-.716 1.596-1.596 1.596h-115.304c-.88 0-1.596-.716-1.596-1.596v-13.305c0-.88.716-1.596 1.596-1.596h115.304c.88 0 1.596.716 1.596 1.596z"/></g></g></svg>