<?xml version="1.0" encoding="iso-8859-1"?>
<!-- Generator: Adobe Illustrator 19.0.0, SVG Export Plug-In . SVG Version: 6.00 Build 0)  -->
<svg version="1.1" id="Capa_1" xmlns="http://www.w3.org/2000/svg" xmlns:xlink="http://www.w3.org/1999/xlink" x="0px" y="0px"
	 viewBox="0 0 512.004 512.004" style="enable-background:new 0 0 512.004 512.004;" xml:space="preserve">
<g>
	<g>
		<polygon style="fill:#F0C419;" points="256.002,397.245 194.209,397.245 194.209,472.836 256.002,472.836 317.795,472.836 
			317.795,397.245 		"/>
		<g>
			<path style="fill:#8697CB;" d="M47.671,430.795c-3.8-0.002-7.173-2.434-8.375-6.039c-4.96-12.642-1.956-27.022,7.651-36.62
				c4.428-4.367,9.744-7.729,15.586-9.858c2.989-1.006,6.288-0.342,8.654,1.744s3.44,5.275,2.817,8.366
				c-0.623,3.092-2.848,5.616-5.837,6.623c-5.011,1.303-9.216,4.704-11.537,9.332c-2.322,4.628-2.534,10.032-0.583,14.827
				c0.895,2.693,0.442,5.651-1.216,7.953S50.508,430.791,47.671,430.795z"/>
			<path style="fill:#8697CB;" d="M111.23,430.795c-2.837-0.004-5.5-1.37-7.159-3.672c-1.659-2.302-2.111-5.261-1.216-7.953
				c1.859-4.792,1.608-10.147-0.691-14.745c-2.299-4.598-6.433-8.01-11.383-9.398c-2.992-0.998-5.225-3.516-5.856-6.606
				c-0.632-3.09,0.433-6.283,2.793-8.375c2.36-2.092,5.657-2.767,8.65-1.769c5.843,2.129,11.158,5.491,15.586,9.858
				c9.607,9.599,12.612,23.979,7.651,36.621C118.402,428.361,115.03,430.793,111.23,430.795z"/>
			<path style="fill:#8697CB;" d="M464.333,430.795c-2.837-0.004-5.5-1.37-7.159-3.672c-1.659-2.302-2.111-5.261-1.216-7.953
				c1.859-4.792,1.608-10.147-0.691-14.745c-2.299-4.598-6.433-8.01-11.383-9.398c-4.625-1.543-7.124-6.543-5.582-11.168
				c1.543-4.625,6.543-7.124,11.168-5.582c5.843,2.129,11.158,5.491,15.586,9.858c9.607,9.599,12.612,23.979,7.651,36.621
				C471.506,428.361,468.133,430.793,464.333,430.795z"/>
			<path style="fill:#8697CB;" d="M400.774,430.795c-3.8-0.002-7.173-2.434-8.375-6.039c-4.96-12.642-1.956-27.022,7.651-36.62
				c4.428-4.367,9.743-7.729,15.586-9.858c4.621-1.556,9.628,0.929,11.183,5.55c1.556,4.621-0.929,9.627-5.55,11.183
				c-5.011,1.303-9.216,4.704-11.537,9.332c-2.322,4.628-2.534,10.032-0.583,14.827c0.895,2.693,0.442,5.651-1.216,7.953
				C406.275,429.425,403.612,430.791,400.774,430.795z"/>
		</g>
		<path style="fill:#F0C419;" d="M432.554,379.59c-4.875,0-8.828-3.952-8.828-8.828v-52.966
			c-0.016-14.619-11.863-26.467-26.483-26.483H114.761c-14.619,0.016-26.467,11.863-26.483,26.483v52.966
			c0,4.875-3.952,8.828-8.828,8.828c-4.875,0-8.828-3.952-8.828-8.828v-52.966c0.029-24.365,19.773-44.109,44.138-44.138h282.483
			c24.365,0.029,44.109,19.773,44.138,44.138v52.966C441.381,375.638,437.429,379.59,432.554,379.59z"/>
		<path style="fill:#7D6599;" d="M176.554,220.694H335.45v176.552c0,9.751-7.905,17.655-17.655,17.655H194.209
			c-9.751,0-17.655-7.905-17.655-17.655V220.694z"/>
		<rect x="176.554" y="344.28" style="fill:#8697CB;" width="158.897" height="35.31"/>
		<path style="fill:#7D6599;" d="M317.795,467.866v44.138h-26.483c-19.483-0.045-35.265-15.828-35.31-35.31
			c-0.045,19.483-15.828,35.265-35.31,35.31h-26.483v-44.138H317.795z"/>
		<circle style="fill:#F0C419;" cx="286.899" cy="295.728" r="13.241"/>
		<g>
			<circle style="fill:#7D6599;" cx="79.45" cy="379.59" r="17.655"/>
			<circle style="fill:#7D6599;" cx="432.554" cy="379.59" r="17.655"/>
		</g>
		<rect x="247.174" y="414.901" style="fill:#F29C1F;" width="17.655" height="52.966"/>
		<path style="fill:#F0C419;" d="M397.243,132.418c24.377,0,44.138,19.761,44.138,44.138s-19.761,44.138-44.138,44.138H114.761
			c-24.377,0-44.138-19.761-44.138-44.138s19.761-44.138,44.138-44.138H397.243z"/>
		<path style="fill:#8697CB;" d="M397.243,141.245c-0.001-38.645-15.835-75.601-43.813-102.259S287.774-1.701,249.174,0.165
			c-75.968,3.577-134.414,69.017-134.414,145.069v66.632c0,19.501,15.809,35.31,35.31,35.31h211.862
			c19.501,0,35.31-15.809,35.31-35.31V141.245z"/>
		<circle style="fill:#35495E;" cx="256.002" cy="123.59" r="97.103"/>
		<g>
			<path style="fill:#F0C419;" d="M194.209,97.107h26.483c4.875,0,8.828,3.952,8.828,8.828l0,0c0,4.875-3.952,8.828-8.828,8.828
				h-26.483c-4.875,0-8.828-3.952-8.828-8.828l0,0C185.381,101.06,189.334,97.107,194.209,97.107z"/>
			<path style="fill:#F0C419;" d="M291.312,97.107h26.483c4.875,0,8.828,3.952,8.828,8.828l0,0c0,4.875-3.952,8.828-8.828,8.828
				h-26.483c-4.875,0-8.828-3.952-8.828-8.828l0,0C282.485,101.06,286.437,97.107,291.312,97.107z"/>
		</g>
	</g>
	<path style="fill:#FF5364;" d="M300.14,141.245c0,24.377-19.761,44.138-44.138,44.138c-24.377,0-44.138-19.761-44.138-44.138
		H300.14z"/>
</g>
<g>
</g>
<g>
</g>
<g>
</g>
<g>
</g>
<g>
</g>
<g>
</g>
<g>
</g>
<g>
</g>
<g>
</g>
<g>
</g>
<g>
</g>
<g>
</g>
<g>
</g>
<g>
</g>
<g>
</g>
</svg>
