<?xml version="1.0" encoding="iso-8859-1"?>
<!-- Generator: Adobe Illustrator 19.0.0, SVG Export Plug-In . SVG Version: 6.00 Build 0)  -->
<svg version="1.1" id="Capa_1" xmlns="http://www.w3.org/2000/svg" xmlns:xlink="http://www.w3.org/1999/xlink" x="0px" y="0px"
	 viewBox="0 0 512.001 512.001" style="enable-background:new 0 0 512.001 512.001;" xml:space="preserve">
<path style="fill:#48AEF9;" d="M430.673,479.13c-5.767-28.961-12.548-63.019-14.219-71.414
	c-4.278-21.429-20.023-30.142-28.697-33.378c-0.105-0.031-5.939-1.752-5.834-1.721l0,0c-0.669-0.197-57.723-17.213-60.757-18.108
	l0,0H191.123l0,0l0,0l0,0c-3.565,1.052-60.168,17.882-60.935,18.108l0,0c-2.048,0.604-6.093,1.797-5.834,1.721
	c-8.674,3.236-24.418,11.949-28.697,33.378c0,0-8.631,43.48-14.331,72.178c-2.525,12.711,7.201,24.554,20.16,24.554h308.408
	C423.256,504.449,433.282,492.235,430.673,479.13z"/>
<path style="fill:#3997EE;" d="M108.325,479.895c5.7-28.697,14.331-81.178,14.331-81.178c3.377-16.915,13.897-25.904,22.446-30.533
	c-19.428,5.775-20.853,6.185-20.749,6.155c-8.674,3.236-24.418,11.949-28.697,33.378c0,0-8.631,43.48-14.331,72.178
	c-2.525,12.711,7.201,24.554,20.16,24.554h27C115.526,504.449,105.8,492.606,108.325,479.895z"/>
<path style="fill:#EDB87E;" d="M260.516,321.691c-15.984,0.75-31.165-2.584-44.633-9.053c0,8.607,0,21.752,0,30.349l0,0
	l16.249,36.438l6.235,14.752c24.648,0.105,10.598,0.045,35.246,0.151l22.271-51.462v-29.88
	C285.048,318.042,273.103,321.1,260.516,321.691z"/>
<path style="fill:#E4A970;" d="M265.366,394.177l-6.235-14.752l-12.814-28.735c-2.265-5.079-3.435-10.577-3.435-16.138v-13.697
	c-9.52-1.364-18.594-4.18-27-8.217v30.349l16.249,36.438l6.235,14.752c21.236,0.091,13.766,0.059,27.049,0.116L265.366,394.177z"/>
<path style="fill:#647892;" d="M247.574,7.668c-72.026,4.547-127.692,65.178-127.692,137.346c0,10.903,0,32.342,0,42.433h273.002
	c0-9.125,0-33.98,0-43.557C392.884,65.707,326.813,2.665,247.574,7.668z"/>
<path style="fill:#4D6682;" d="M191.216,145.014c0-62.886,42.27-117.005,100.798-132.896c-14.053-3.804-28.994-5.425-44.44-4.45
	c-72.026,4.547-127.692,65.178-127.692,137.346c0,10.903,0,32.342,0,42.433h71.334v-29.643v-12.79H191.216z"/>
<polygon style="fill:#FAC149;" points="274.038,391.448 238.351,391.448 233.521,395.012 242.472,421.448 269.849,421.448 
	278.844,395.013 "/>
<path style="fill:#F8A748;" d="M264.21,391.448h-25.859l-4.83,3.563l8.951,26.437h27.376l-8.543-20.752
	C260.159,397.31,261.333,393.571,264.21,391.448L264.21,391.448z"/>
<path style="fill:#F4C48B;" d="M347.795,158.603L315.4,133.38c-5.466-4.255-11.848-5.077-17.5-2.883l0,0
	c-22.044,8.522-80.093,29.16-129.592,31.124l0.007,0.014c0,0-7.43,0.454-7.43,6.341v59.977c0,54.727,45.359,99.305,100.028,96.754
	c50.64-2.362,90.974-44.162,90.974-95.396v-60.167C351.884,162.263,347.796,158.604,347.795,158.603z"/>
<path style="fill:#EDB87E;" d="M188.008,229.313v-60.167c0-4.866,2.039-8.112,3.237-9.601c-7.738,1.048-15.437,1.78-22.938,2.078
	l0.007,0.014c0,0-7.431,0.454-7.431,6.341v59.977c0,54.727,45.359,99.305,100.028,96.754c3.052-0.142,6.065-0.431,9.036-0.854
	C223.627,317.27,188.008,277.457,188.008,229.313z"/>
<polygon style="fill:#FAC149;" points="280.695,504.449 269.849,421.448 256.269,421.448 242.689,421.448 231.843,504.449 "/>
<polygon style="fill:#F8A748;" points="269.849,421.448 256.269,421.448 242.689,421.448 231.843,504.449 259.018,504.449 
	269.857,421.512 "/>
<g>
	<path style="fill:#3997EE;" d="M295.884,337.683l-22.049,53.765l18.49,13.605c4.251,3.153,10.339,1.303,12.118-3.681l16.723-46.864
		L295.884,337.683z"/>
	<path style="fill:#3997EE;" d="M215.883,337.683l22.571,53.765l-18.49,13.605c-4.251,3.153-10.339,1.303-12.118-3.681
		l-16.723-46.864L215.883,337.683z"/>
</g>
<path style="fill:#FAC149;" d="M378.87,170.701v64.004c12.647-5.161,21.559-17.541,21.559-32.002
	C400.43,188.242,391.517,175.862,378.87,170.701z"/>
<path style="fill:#F8A748;" d="M378.87,199.455v35.25c12.647-5.161,21.559-17.541,21.559-32.001c0-6.441-1.777-12.464-4.856-17.625
	C391.74,191.505,385.884,196.593,378.87,199.455z"/>
<path style="fill:#FAC149;" d="M134.1,170.701v64.004C105.335,223.01,105.27,182.423,134.1,170.701z"/>
<path style="fill:#F8A748;" d="M118.087,183.895c-11.83,18.054-4.302,42.549,16.013,50.808v-37.567
	C127.495,194.442,121.923,189.778,118.087,183.895z"/>
<path style="fill:#3997EE;" d="M247.162,305.452h18.073c7.293,0,13.589-5.604,13.91-12.889c0.341-7.734-5.828-14.111-13.486-14.111
	h-18.92c-7.658,0-13.827,6.377-13.486,14.111C233.573,299.849,239.869,305.452,247.162,305.452z"/>
<path style="fill:#1E88D8;" d="M256.212,292.563c-0.31-7.039,4.777-12.936,11.466-13.943c-0.661-0.099-1.332-0.168-2.02-0.168
	h-18.92c-7.658,0-13.827,6.377-13.486,14.111c0.321,7.286,6.617,12.889,13.91,12.889h18.073c0.831,0,1.646-0.082,2.443-0.221
	C261.475,304.145,256.497,299.019,256.212,292.563z"/>
<path style="fill:#F8A748;" d="M134.007,234.7v-63.993c0-7.293,5.604-13.589,12.89-13.91c7.734-0.341,14.11,5.828,14.11,13.487
	v64.84c0,7.659-6.377,13.827-14.11,13.487C139.61,248.289,134.007,241.993,134.007,234.7z"/>
<path style="fill:#F38D1A;" d="M146.897,209.109c-7.286-0.321-12.89-6.617-12.89-13.91v39.5c0,7.293,5.604,13.589,12.89,13.91
	c7.734,0.341,14.11-5.828,14.11-13.486v-39.5C161.008,203.281,154.631,209.45,146.897,209.109z"/>
<path style="fill:#F8A748;" d="M351.925,234.7v-63.993c0-7.293,5.608-13.589,12.9-13.91c7.74-0.34,14.122,5.828,14.122,13.487v64.84
	c0,7.659-6.382,13.827-14.122,13.487C357.533,248.289,351.925,241.993,351.925,234.7z"/>
<path style="fill:#F38D1A;" d="M364.825,209.109c-7.292-0.321-12.9-6.617-12.9-13.91v39.5c0,7.293,5.608,13.589,12.9,13.91
	c7.74,0.34,14.122-5.828,14.122-13.487v-39.5C378.946,203.281,372.565,209.45,364.825,209.109z"/>
<path d="M438.276,477.712l-4.468-22.438c-0.809-4.061-4.757-6.703-8.82-5.891c-4.062,0.809-6.699,4.758-5.891,8.82l4.468,22.439
	c1.686,8.473-4.799,16.357-13.426,16.357h-43.655v-34.06c0-4.143-3.357-7.5-7.5-7.5c-4.142,0-7.5,3.357-7.5,7.5v34.06h-64.419
	l-9.715-75.234l5.02-14.754c3.129,1.73,9.121,9.461,19.117,6.428c4.622-1.405,8.361-4.916,10.014-9.547
	c8.859-24.827,9.692-27.16,14.34-40.185c15.845,4.674,53.594,15.809,54.137,15.969l0.018-0.058c1.046,0.384,2.202,0.717,5.559,1.702
	c7.477,2.842,20.253,10.186,23.765,27.775l2.94,14.767c0.809,4.063,4.757,6.701,8.819,5.892c4.063-0.809,6.7-4.757,5.892-8.819
	l-2.941-14.773c-4.973-24.91-23.105-35.117-33.47-38.984c-0.469-0.174,3.88,1.131-66.161-19.535l-20.617-13.942v-13.102
	c25.829-13.449,45.105-37.511,52.254-66.344c2.808,1.386,5.954,2.185,9.291,2.185c10.162,0,18.666-7.223,20.654-16.803
	c13.456-7.315,21.924-21.354,21.924-36.938c0-9.05-2.858-17.578-7.889-24.573v-34.3c0-38.516-15.081-74.723-42.466-101.95
	C330.37,14.852,294.406,0,256.197,0c-31.747,0-62.131,10.283-87.665,30.197c-3.266,2.548-3.849,7.261-1.301,10.526
	c2.548,3.267,7.26,3.849,10.527,1.302C200.334,24.417,227.446,15,256.195,15c34.215,0,66.432,13.306,90.778,37.514
	c24.532,24.391,38.042,56.819,38.042,91.312v18.719c-2.142-5.597-6.592-10.045-12.189-12.185v-6.534
	c0-64.314-52.322-116.638-116.637-116.638S139.551,79.513,139.551,143.826v6.535c-5.598,2.14-10.047,6.588-12.189,12.184v-17.22
	c0-29.125,9.364-56.72,27.081-79.802c2.522-3.285,1.903-7.994-1.382-10.516c-3.287-2.523-7.994-1.903-10.516,1.383
	c-19.746,25.724-30.182,56.477-30.182,88.935v32.802c-5.03,6.994-7.888,15.522-7.888,24.572c0,15.582,8.468,29.622,21.924,36.938
	c1.52,7.325,6.857,13.252,13.823,15.647c1.992,9.295,6.64,17.953,13.588,25.24c6.615,6.939,15.085,12.198,24.594,15.459
	c2.307,2.709,4.757,5.307,7.347,7.779c6.881,6.567,14.468,12.057,22.57,16.411v13.647l-20.306,13.732
	c-79.643,23.487-63.862,18.849-65.976,19.46l0.007,0.024c-0.167,0.06-0.33,0.124-0.487,0.189l-0.018-0.048
	c-10.366,3.867-28.498,14.073-33.473,38.993l-14.358,72.31c-3.449,17.366,9.846,33.519,27.52,33.519h72.388
	c4.142,0,7.5-3.357,7.5-7.5s-3.358-7.5-7.5-7.5h-12.723v-34.06c0-4.143-3.358-7.5-7.5-7.5s-7.5,3.357-7.5,7.5v34.06h-44.664
	c-8.238,0-14.409-7.528-12.807-15.597l14.356-72.303c3.512-17.594,16.291-24.938,23.768-27.778
	c9.591-2.829,43.822-12.927,59.871-17.661c3.396,9.517,11.029,30.907,14.357,40.232c1.611,4.513,5.181,8.079,10.015,9.547
	c8.791,2.673,13.521-2.528,19.164-6.464l5.054,14.928l-9.696,75.096h-16.696c-4.142,0-7.5,3.357-7.5,7.5s3.358,7.5,7.5,7.5
	c9.625,0,190.936,0,201.521,0C428.252,512,441.805,495.441,438.276,477.712z M386.42,185.107c0.152,0.212,0.315,0.415,0.487,0.609
	c3.796,4.705,5.996,10.639,5.996,16.983c0,6.621-2.376,12.81-6.483,17.605V185.107z M125.957,220.306
	c-4.107-4.796-6.483-10.984-6.483-17.605c0-6.345,2.201-12.279,5.997-16.985c0.172-0.194,0.334-0.396,0.485-0.607L125.957,220.306
	L125.957,220.306z M153.147,235.347c0,3.36-2.734,6.095-6.094,6.095c-3.361,0-6.095-2.734-6.095-6.095v-0.645v-64.004v-0.645
	c0-3.36,2.734-6.095,6.095-6.095c3.36,0,6.094,2.734,6.094,6.095V235.347z M312.143,357.465c-1.335,3.74-13.158,36.871-14.77,41.388
	c-0.084,0.242-0.372,0.331-0.586,0.178l-13.701-10.163l17.168-39.443L312.143,357.465z M359.232,170.053
	c0-3.36,2.733-6.095,6.094-6.095c3.36,0,6.095,2.734,6.095,6.095v0.645v64.004v0.645c0,3.36-2.734,6.095-6.095,6.095
	c-3.36,0-6.094-2.734-6.094-6.095V170.053z M155.532,254.648c0.383-0.169,0.757-0.353,1.128-0.544
	c0.847,3.269,1.854,6.493,3.009,9.661C157.855,260.878,156.465,257.82,155.532,254.648z M167.165,154.282
	c-1.671,0.161-3.334,0.567-4.899,1.196c-2.143-2.236-4.77-3.993-7.714-5.118v-6.534c0-56.043,45.594-101.638,101.638-101.638
	c56.042,0,101.637,45.594,101.637,101.638v6.535c-1.874,0.717-3.616,1.691-5.191,2.883c-0.059-0.056-0.116-0.108-0.15-0.139
	c-0.128-0.114-0.259-0.224-0.395-0.329l-32.355-25.192c-7.395-5.756-16.435-7.201-24.789-3.955
	c-22.141,8.559-78.837,28.673-127.017,30.585C167.672,154.223,167.417,154.246,167.165,154.282z M204.249,299.811h21.976
	c3.033,7.935,10.704,13.595,19.692,13.595h19.052c11.632,0,21.095-9.463,21.095-21.095s-9.463-21.095-21.095-21.095h-19.052
	c-8.988,0-16.659,5.66-19.692,13.595h-24.489c-5.051,0-9.955-0.645-14.587-1.85c-12.085-15.638-18.836-35.072-18.836-55.006v-58.667
	c0.151-0.036,0.302-0.064,0.436-0.081c0.17-0.006,0.338-0.018,0.505-0.034c50.258-2.171,108.373-22.766,131.113-31.557
	c3.37-1.309,6.979-0.668,10.155,1.806l32.014,24.927c0.28,0.347,1.53,2.064,1.53,4.874v60.089c0,49.006-39.754,88.252-88.599,87.869
	C236.488,317.02,218.735,310.69,204.249,299.811z M239.823,292.311c0-3.36,2.734-6.095,6.095-6.095h19.052
	c3.36,0,6.095,2.734,6.095,6.095c0,3.36-2.734,6.095-6.095,6.095h-19.052C242.557,298.405,239.823,295.671,239.823,292.311z
	 M215.491,399.029c-0.207,0.159-0.498,0.065-0.586-0.177c-3.581-10.034-11.442-32.064-14.769-41.388l11.924-8.064
	c28.973,65.533-0.824-1.996,17.202,39.415L215.491,399.029z M223.321,335.755v-9.024c10.474,3.593,21.543,5.456,32.877,5.456
	c10.771,0,21.858-1.686,32.581-5.245v9.233l-19.943,47.664H243.51C217.455,321.783,224.597,338.795,223.321,335.755z
	 M269.304,398.84l-4.987,14.659h-16.315l-4.963-14.659H269.304z M240.439,497l8.844-68.501h13.81L271.94,497H240.439z"/>
<g>
</g>
<g>
</g>
<g>
</g>
<g>
</g>
<g>
</g>
<g>
</g>
<g>
</g>
<g>
</g>
<g>
</g>
<g>
</g>
<g>
</g>
<g>
</g>
<g>
</g>
<g>
</g>
<g>
</g>
</svg>
