<?xml version="1.0" encoding="iso-8859-1"?>
<!-- Generator: Adobe Illustrator 19.0.0, SVG Export Plug-In . SVG Version: 6.00 Build 0)  -->
<svg version="1.1" id="Capa_1" xmlns="http://www.w3.org/2000/svg" xmlns:xlink="http://www.w3.org/1999/xlink" x="0px" y="0px"
	 viewBox="0 0 512 512" style="enable-background:new 0 0 512 512;" xml:space="preserve">
<g>
	<polygon style="fill:#BDDCF3;" points="486.4,291.354 486.4,432.759 415.505,432.759 415.505,468.113 344.619,468.113 
		344.619,503.467 309.171,503.467 309.171,468.113 273.724,468.113 273.724,503.467 238.276,503.467 238.276,468.113 
		202.829,468.113 202.829,503.467 167.381,503.467 167.381,468.113 96.495,468.113 96.495,432.759 25.6,432.759 25.6,291.354 
		61.047,291.354 61.047,397.406 96.495,397.406 96.495,362.061 131.942,362.061 131.942,220.646 167.381,220.646 167.381,326.707 
		202.829,326.707 202.829,114.594 239.957,114.594 239.957,8.533 275.405,8.533 275.405,114.594 309.171,114.594 309.171,326.707 
		344.619,326.707 344.619,220.646 380.058,220.646 380.058,362.061 415.505,362.061 415.505,397.406 450.953,397.406 
		450.953,291.354 	"/>
	<g>
		
			<rect x="238.276" y="291.328" style="fill:none;stroke:#000000;stroke-width:2;stroke-linecap:round;stroke-linejoin:round;" width="35.447" height="70.707"/>
		
			<rect x="202.829" y="362.069" style="fill:none;stroke:#000000;stroke-width:2;stroke-linecap:round;stroke-linejoin:round;" width="35.447" height="35.354"/>
		
			<rect x="273.749" y="362.069" style="fill:none;stroke:#000000;stroke-width:2;stroke-linecap:round;stroke-linejoin:round;" width="35.447" height="35.354"/>
	</g>
	<g>
		<polygon style="fill:#0086C3;" points="486.4,291.328 486.4,432.725 415.488,432.725 415.488,468.139 344.576,468.139 
			344.576,503.467 309.163,503.467 309.163,468.139 273.749,468.139 273.749,503.467 238.251,503.467 238.251,468.139 
			202.837,468.139 202.837,503.467 167.424,503.467 167.424,468.139 96.512,468.139 96.512,432.725 25.6,432.725 25.6,291.328 
			61.013,291.328 61.013,397.397 96.512,397.397 96.512,362.069 131.925,362.069 131.925,220.672 167.424,220.672 167.424,326.741 
			202.837,326.741 202.837,114.603 239.957,114.603 239.957,8.533 275.371,8.533 275.371,114.603 309.163,114.603 309.163,326.741 
			344.576,326.741 344.576,220.672 380.075,220.672 380.075,362.069 415.488,362.069 415.488,397.397 450.987,397.397 
			450.987,291.328 		"/>
		<polygon style="fill:#00B3F2;" points="452.267,291.328 452.267,432.725 381.355,432.725 381.355,468.139 310.443,468.139 
			310.443,503.467 309.163,503.467 309.163,468.139 239.616,468.139 239.616,503.467 238.251,503.467 238.251,468.139 
			168.704,468.139 168.704,503.467 167.424,503.467 167.424,468.139 96.512,468.139 96.512,432.725 25.6,432.725 25.6,291.328 
			26.88,291.328 26.88,397.397 96.512,397.397 96.512,362.069 131.925,362.069 131.925,220.672 133.291,220.672 133.291,326.741 
			202.837,326.741 202.837,114.603 239.957,114.603 239.957,8.533 241.237,8.533 241.237,114.603 275.029,114.603 275.029,326.741 
			344.576,326.741 344.576,220.672 345.941,220.672 345.941,362.069 381.355,362.069 381.355,397.397 450.987,397.397 
			450.987,291.328 		"/>
		<g>
			<rect x="238.276" y="291.328" style="fill:#FFE749;" width="35.447" height="70.707"/>
			<rect x="202.829" y="362.069" style="fill:#FFE749;" width="35.447" height="35.354"/>
			<rect x="273.749" y="362.069" style="fill:#FFE749;" width="35.447" height="35.354"/>
			<rect x="131.942" y="220.646" style="fill:#FFE749;" width="35.447" height="35.354"/>
		</g>
		<rect x="25.6" y="291.328" style="fill:#EB3A76;" width="35.447" height="35.354"/>
		<rect x="344.576" y="220.646" style="fill:#FFE749;" width="35.447" height="35.354"/>
		<g>
			<rect x="450.953" y="291.328" style="fill:#EB3A76;" width="35.447" height="35.354"/>
			<rect x="167.381" y="468.113" style="fill:#EB3A76;" width="35.447" height="35.354"/>
			<rect x="202.829" y="432.759" style="fill:#EB3A76;" width="35.447" height="35.354"/>
			<rect x="273.749" y="432.759" style="fill:#EB3A76;" width="35.447" height="35.354"/>
			<rect x="309.163" y="468.113" style="fill:#EB3A76;" width="35.447" height="35.354"/>
		</g>
		<g>
			<path d="M486.4,282.817h-35.45c-2.264-0.001-4.435,0.897-6.035,2.498s-2.499,3.772-2.498,6.035v97.525h-18.375v-26.817
				c0.001-2.264-0.897-4.435-2.498-6.035c-1.601-1.601-3.772-2.499-6.035-2.498h-26.917V220.65c0.001-2.264-0.897-4.435-2.498-6.035
				s-3.772-2.499-6.035-2.498h-35.442c-2.264-0.001-4.435,0.897-6.035,2.498c-1.601,1.601-2.499,3.772-2.498,6.035v97.525H317.7
				V114.592c0.001-2.264-0.897-4.435-2.498-6.035c-1.601-1.601-3.772-2.499-6.035-2.498h-25.225V8.533
				c0.001-2.264-0.897-4.435-2.498-6.035c-1.601-1.601-3.772-2.499-6.035-2.498h-35.45c-2.264-0.001-4.435,0.897-6.035,2.498
				c-1.601,1.601-2.499,3.772-2.498,6.035v97.525h-28.592c-2.264-0.001-4.435,0.897-6.035,2.498
				c-1.601,1.601-2.499,3.772-2.498,6.035v203.583h-18.383V220.65c0.001-2.264-0.897-4.435-2.498-6.035
				c-1.601-1.601-3.772-2.499-6.035-2.498h-35.442c-2.264-0.001-4.435,0.897-6.035,2.498c-1.601,1.601-2.499,3.772-2.498,6.035
				v132.875H96.492c-2.264-0.001-4.435,0.897-6.035,2.498c-1.601,1.601-2.499,3.772-2.498,6.035v26.817H69.583V291.35
				c0.001-2.264-0.897-4.435-2.498-6.035c-1.601-1.601-3.772-2.499-6.035-2.498H25.6c-2.264-0.001-4.435,0.897-6.035,2.498
				s-2.499,3.772-2.498,6.035v141.408c-0.001,2.264,0.897,4.435,2.498,6.035c1.601,1.601,3.772,2.499,6.035,2.498h62.358v26.825
				c-0.001,2.264,0.897,4.435,2.498,6.035c1.601,1.601,3.772,2.499,6.035,2.498h62.358v26.817c-0.001,2.264,0.897,4.435,2.498,6.035
				c1.601,1.601,3.772,2.499,6.035,2.498h35.45c2.264,0.001,4.435-0.897,6.035-2.498c1.601-1.601,2.499-3.772,2.498-6.035V476.65
				h18.375v26.817c-0.001,2.264,0.897,4.435,2.498,6.035c1.601,1.601,3.772,2.499,6.035,2.498h35.45
				c2.264,0.001,4.435-0.897,6.035-2.498c1.601-1.601,2.499-3.772,2.498-6.035V476.65h18.375v26.817
				c-0.001,2.264,0.897,4.435,2.498,6.035c1.601,1.601,3.772,2.499,6.035,2.498h35.45c2.264,0.001,4.435-0.897,6.035-2.498
				c1.601-1.601,2.499-3.772,2.498-6.035V476.65h62.358c2.264,0.001,4.435-0.897,6.035-2.498c1.601-1.601,2.499-3.772,2.498-6.035
				v-26.825H486.4c2.264,0.001,4.435-0.897,6.035-2.498c1.601-1.601,2.499-3.772,2.498-6.035V291.35
				c0.001-2.264-0.897-4.435-2.498-6.035C490.835,283.714,488.664,282.815,486.4,282.817z M459.483,299.883h18.383v18.292h-18.383
				V299.883z M353.15,229.183h18.375v18.283H353.15V229.183z M140.475,229.183h18.375v18.283h-18.375V229.183z M34.133,299.883
				h18.383v18.292H34.133V299.883z M194.3,494.933h-18.383V476.65H194.3V494.933z M211.367,459.583v-18.292h18.375v18.292H211.367z
				 M282.258,459.583v-18.292h18.375v18.292H282.258z M336.083,494.933H317.7V476.65h18.383V494.933z M415.508,424.225
				c-2.264-0.001-4.435,0.897-6.035,2.498c-1.601,1.601-2.499,3.772-2.498,6.035v26.825H317.7v-26.825
				c0.001-2.264-0.897-4.435-2.498-6.035c-1.601-1.601-3.772-2.499-6.035-2.498h-35.442c-2.264-0.001-4.435,0.897-6.035,2.498
				c-1.601,1.601-2.499,3.772-2.498,6.035v62.175h-18.383v-62.175c0.001-2.264-0.897-4.435-2.498-6.035
				c-1.601-1.601-3.772-2.499-6.035-2.498h-35.442c-2.264-0.001-4.435,0.897-6.035,2.498c-1.601,1.601-2.499,3.772-2.498,6.035
				v26.825h-89.275v-26.825c0.001-2.264-0.897-4.435-2.498-6.035c-1.601-1.601-3.772-2.499-6.035-2.498H34.133v-88.983h18.383
				v62.167c-0.001,2.264,0.897,4.435,2.498,6.035c1.601,1.601,3.772,2.499,6.035,2.498h35.442c2.264,0.001,4.435-0.897,6.035-2.498
				c1.601-1.601,2.499-3.772,2.498-6.035v-26.817h26.917c2.264,0.001,4.435-0.897,6.035-2.498c1.601-1.601,2.499-3.772,2.498-6.035
				v-97.525h18.375v62.175c-0.001,2.264,0.897,4.435,2.498,6.035c1.601,1.601,3.772,2.499,6.035,2.498h35.45
				c2.264,0.001,4.435-0.897,6.035-2.498c1.601-1.601,2.499-3.772,2.498-6.035V123.125h28.592c2.264,0.001,4.435-0.897,6.035-2.498
				c1.601-1.601,2.499-3.772,2.498-6.035V17.067h18.383v97.525c-0.001,2.264,0.897,4.435,2.498,6.035
				c1.601,1.601,3.772,2.499,6.035,2.498h25.225v203.583c-0.001,2.264,0.897,4.435,2.498,6.035c1.601,1.601,3.772,2.499,6.035,2.498
				h35.45c2.264,0.001,4.435-0.897,6.035-2.498c1.601-1.601,2.499-3.772,2.498-6.035v-62.175h18.375v97.525
				c-0.001,2.264,0.897,4.435,2.498,6.035c1.601,1.601,3.772,2.499,6.035,2.498h26.917v26.817c-0.001,2.264,0.897,4.435,2.498,6.035
				s3.772,2.499,6.035,2.498h35.442c2.264,0.001,4.435-0.897,6.035-2.498c1.601-1.601,2.499-3.772,2.498-6.035v-62.167h18.383
				v88.983H415.508z"/>
			<path d="M309.167,353.525h-26.908V291.35c0.001-2.264-0.897-4.435-2.498-6.035c-1.601-1.601-3.772-2.499-6.035-2.498h-35.45
				c-2.264-0.001-4.435,0.897-6.035,2.498c-1.601,1.601-2.499,3.772-2.498,6.035v62.175h-26.908
				c-2.264-0.001-4.435,0.897-6.035,2.498s-2.499,3.772-2.498,6.035v35.35c-0.001,2.264,0.897,4.435,2.498,6.035
				s3.772,2.499,6.035,2.498h35.442c2.264,0.001,4.435-0.897,6.035-2.498c1.601-1.601,2.499-3.772,2.498-6.035v-26.817h18.383
				v26.817c-0.001,2.264,0.897,4.435,2.498,6.035c1.601,1.601,3.772,2.499,6.035,2.498h35.442c2.264,0.001,4.435-0.897,6.035-2.498
				s2.499-3.772,2.498-6.035v-35.35c0.001-2.264-0.897-4.435-2.498-6.035S311.43,353.524,309.167,353.525L309.167,353.525z
				 M229.742,388.875h-18.375v-18.283h18.375V388.875z M246.808,299.883h18.383v53.642h-18.383V299.883z M300.633,388.875h-18.375
				v-18.283h18.375V388.875z"/>
		</g>
	</g>
</g>
<g>
</g>
<g>
</g>
<g>
</g>
<g>
</g>
<g>
</g>
<g>
</g>
<g>
</g>
<g>
</g>
<g>
</g>
<g>
</g>
<g>
</g>
<g>
</g>
<g>
</g>
<g>
</g>
<g>
</g>
</svg>
