<svg height="512" viewBox="0 0 512 512" width="512" xmlns="http://www.w3.org/2000/svg"><g id="Flat"><path d="m104 160h32.00008a79.99992 79.99992 0 0 1 79.99992 79.99992v.00016a79.99992 79.99992 0 0 1 -79.99992 79.99992h-32.00008a0 0 0 0 1 0 0v-160a0 0 0 0 1 0 0z" fill="#2b7cd4"/><path d="m136 128h-64l-8 48h80z" fill="#2b7cd4"/><path d="m144 176h32l-8-48h-32z" fill="#104f91"/><path d="m423.29238 456h-.00012a64.70761 64.70761 0 0 1 -63.91578-54.61565l-15.37648-97.38435h-160l-16.10148 101.976a59.26746 59.26746 0 0 1 -58.5422 50.024h-.0001a59.26745 59.26745 0 0 1 -58.9418-53.063l-10.41442-98.937v-64a40 40 0 0 1 40-40h368a40 40 0 0 1 40 40v151.29238a64.70762 64.70762 0 0 1 -64.70762 64.70762z" fill="#2b7cd4"/><circle cx="104" cy="240" fill="#3ea7ff" r="80"/><g fill="#808080"><path d="m128 232h32v16h-32z"/><path d="m96 184h16v32h-16z"/><path d="m48 232h32v16h-32z"/><path d="m96 264h16v32h-16z"/></g><circle cx="192" cy="304" fill="#4d4d4d" r="40"/><circle cx="168" cy="304" fill="#808080" r="32"/><path d="m376 160h32.00008a79.99992 79.99992 0 0 1 79.99992 79.99992v.00016a79.99992 79.99992 0 0 1 -79.99992 79.99992h-32.00008a0 0 0 0 1 0 0v-160a0 0 0 0 1 0 0z" fill="#2b7cd4"/><path d="m408 128h-64l-8 48h80z" fill="#2b7cd4"/><path d="m416 176h32l-8-48h-32z" fill="#104f91"/><circle cx="376" cy="240" fill="#3ea7ff" r="80"/><circle cx="376" cy="200" fill="#42c25e" r="16"/><circle cx="288" cy="304" fill="#4d4d4d" r="40"/><circle cx="264" cy="304" fill="#808080" r="32"/><circle cx="336" cy="240" fill="#f9c" r="16"/><circle cx="376" cy="280" fill="#65dcff" r="16"/><circle cx="416" cy="240" fill="#eb352f" r="16"/><path d="m208 224h24v16h-24z" fill="#808080"/><path d="m248 224h24v16h-24z" fill="#808080"/><path d="m88 96h64v32h-64z" fill="#eb352f"/><path d="m360 96h64v32h-64z" fill="#eb352f"/><path d="m224 152h32v48h-32z" fill="#808080"/><path d="m232 16h16v136h-16z" fill="#4d4d4d"/></g></svg>