<svg height="512" viewBox="0 0 512 512" width="512" xmlns="http://www.w3.org/2000/svg"><g id="filled_outline" data-name="filled outline"><path d="m424 136v-40l-40-24h-24l-16 24v40z" fill="#4976f2"/><path d="m88 136v-40l40-24h24l16 24v40z" fill="#4976f2"/><path d="m488 240v136a48.004 48.004 0 0 1 -48 48 51.19807 51.19807 0 0 1 -39.36-18.43994l-24.64-29.56006h-240l-24.64 29.56006a51.21109 51.21109 0 0 1 -39.36 18.43994 47.99956 47.99956 0 0 1 -48-48v-136l48-104 80-40h24l8 8h144l8-8h24l80 40z" fill="#548aff"/><circle cx="192" cy="272" fill="#718799" r="32"/><path d="m376 376h-240l32-40h176z" fill="#4976f2"/><circle cx="320" cy="272" fill="#718799" r="32"/><path d="m328 104-24 80h-96l-24-80z" fill="#4976f2"/><circle cx="392" cy="176" fill="#ef5e3b" r="16"/><circle cx="368" cy="200" fill="#7dafff" r="16"/><circle cx="392" cy="224" fill="#ffc431" r="16"/><circle cx="416" cy="200" fill="#02c26a" r="16"/><circle cx="128" cy="192" fill="#718799" r="40"/><path d="m128.00012 240a48 48 0 1 0 -48-48 48.05436 48.05436 0 0 0 48 48zm-8-78.98743v14.98743a8 8 0 1 0 16 0v-14.98743a32.11958 32.11958 0 0 1 22.98743 22.98743h-14.98743a8 8 0 0 0 0 16h14.98743a32.11958 32.11958 0 0 1 -22.98743 22.98743v-14.98743a8 8 0 1 0 -16 0v14.98743a32.11958 32.11958 0 0 1 -22.98742-22.98743h14.98742a8 8 0 0 0 0-16h-14.98742a32.11958 32.11958 0 0 1 22.98742-22.98743z"/><path d="m152.00012 272a40 40 0 1 0 40-40 40.04521 40.04521 0 0 0 -40 40zm40-24a24 24 0 1 1 -24 24 24.0275 24.0275 0 0 1 24-24z"/><circle cx="192" cy="272" r="8"/><circle cx="256" cy="272" r="8"/><circle cx="352" cy="128" r="8"/><circle cx="160" cy="128" r="8"/><path d="m72.00012 432a59.08166 59.08166 0 0 0 45.50977-21.31592l22.2373-26.68408h232.50581l22.23682 26.68408a59.08336 59.08336 0 0 0 45.5103 21.31592 56.06353 56.06353 0 0 0 56-56v-136a8.00426 8.00426 0 0 0 -.73633-3.35254l-48-104a7.99893 7.99893 0 0 0 -3.686-3.80273l-11.57764-5.78882v-27.05591a8.00072 8.00072 0 0 0 -3.88379-6.85986l-40-24a8.00144 8.00144 0 0 0 -4.11624-1.14014h-24a7.99943 7.99943 0 0 0 -6.65625 3.5625l-13.625 20.4375h-3.71875a7.99877 7.99877 0 0 0 -5.65674 2.34326l-5.65673 5.65674h-137.37305l-5.65674-5.65674a7.99877 7.99877 0 0 0 -5.65674-2.34326h-3.71875l-13.625-20.4375a7.99942 7.99942 0 0 0 -6.65625-3.5625h-24a8.00147 8.00147 0 0 0 -4.11621 1.14014l-40 24a8.00072 8.00072 0 0 0 -3.88379 6.85986v27.05591l-11.57763 5.78882a7.999 7.999 0 0 0 -3.686 3.80273l-48 104a8.00442 8.00442 0 0 0 -.73637 3.35254v136a56.06353 56.06353 0 0 0 56 56zm80.64514-64 19.20008-24h168.30957l19.20009 24zm211.63611-288h17.50293l34.21582 20.5293v14.52661l-52.42236-26.21118a7.99737 7.99737 0 0 0 -3.57764-.84473h-1.052zm-47.03345 32-19.19992 64h-84.0957l-19.19989-64zm-221.2478-11.4707 34.21582-20.5293h17.50293l5.33332 8h-1.05207a7.99733 7.99733 0 0 0 -3.57763.84473l-52.42237 26.21118zm-64 141.228 46.08788-99.85691 75.80079-37.90039h18.79786l4.23034 4.23035 23.42053 78.06848a8.00017 8.00017 0 0 0 7.6626 5.70117h96a8.00016 8.00016 0 0 0 7.6626-5.70117l23.42053-78.06848 4.23035-4.23035h18.79785l75.80078 37.90039 46.08789 99.85693v134.24268a40.04521 40.04521 0 0 1 -40 40 43.12525 43.12525 0 0 1 -33.21875-15.55908l-24.58887-29.50684-31.94531-39.93164a8.00022 8.00022 0 0 0 -6.24707-3.00244h-176a8.00025 8.00025 0 0 0 -6.24707 3.00244l-31.94531 39.93164-24.58936 29.50684a43.12349 43.12349 0 0 1 -33.21826 15.55908 40.04521 40.04521 0 0 1 -40-40z"/><path d="m320.00012 312a40 40 0 1 0 -40-40 40.04521 40.04521 0 0 0 40 40zm0-64a24 24 0 1 1 -24 24 24.0275 24.0275 0 0 1 24-24z"/><circle cx="320" cy="272" r="8"/><path d="m368.00012 224a24 24 0 0 0 48 0 24 24 0 0 0 0-48 24 24 0 1 0 -48 0 24 24 0 1 0 0 48zm24 8a8 8 0 1 1 8-8 8.00917 8.00917 0 0 1 -8 8zm32-32a8 8 0 1 1 -8-8 8.00917 8.00917 0 0 1 8 8zm-32-32a8 8 0 1 1 -8 8 8.00917 8.00917 0 0 1 8-8zm-24 24a8 8 0 1 1 -8 8 8.00917 8.00917 0 0 1 8-8z"/></g></svg>