<svg id="Capa_1" enable-background="new 0 0 512 512" height="512" viewBox="0 0 512 512" width="512" xmlns="http://www.w3.org/2000/svg"><g><g><g fill="#edc963"><path d="m384.559 102.059c9.688 0 18.995 1.619 27.678 4.583v-19.033c0-8.284-6.716-15-15-15h-28.283c-8.284 0-15 6.716-15 15v20.091c9.502-3.643 19.818-5.641 30.605-5.641z"/><path d="m127.441 102.059c10.786 0 21.102 1.998 30.605 5.641v-20.091c0-8.284-6.716-15-15-15h-28.283c-8.284 0-15 6.716-15 15v19.033c8.683-2.965 17.99-4.583 27.678-4.583z"/><path d="m127.441 102.059c10.786 0 21.102 1.998 30.605 5.641v-20.091c0-8.284-6.716-15-15-15h-28.283c-8.284 0-15 6.716-15 15v19.033c8.683-2.965 17.99-4.583 27.678-4.583z"/></g><path d="m469.45 176.111-.022.018c-5.666-41.824-41.491-74.07-84.87-74.07-24.486 0-46.552 10.287-62.16 26.761h-132.797c-15.608-16.473-37.674-26.761-62.16-26.761-43.378 0-79.203 32.246-84.87 74.07l-.022-.018-33.812 201.353c-4.095 24.386 9.18 48.372 32.019 57.851 28.432 11.801 60.91-2.964 70.71-32.146l29.791-88.704c9.062 6.605 20.217 10.513 32.289 10.513 15.542 0 29.564-6.47 39.551-16.851h85.806c9.986 10.381 24.008 16.851 39.55 16.851 12.073 0 23.227-3.907 32.289-10.513l29.791 88.704c9.801 29.182 42.278 43.947 70.71 32.146 22.838-9.479 36.113-33.465 32.018-57.851z" fill="#454d58"/><path d="m412.237 106.642v-18c-8.683-2.965-17.99-4.583-27.678-4.583-10.786 0-21.102 1.998-30.604 5.641v18c9.502-3.642 19.818-5.641 30.604-5.641 9.688 0 18.995 1.618 27.678 4.583z" fill="#e7b93e"/><path d="m158.046 107.699v-18c-9.502-3.642-19.818-5.641-30.605-5.641-9.688 0-18.995 1.618-27.678 4.583v18c8.683-2.965 17.99-4.583 27.678-4.583 10.787.001 21.103 1.999 30.605 5.641z" fill="#e7b93e"/><g fill="#3b434d"><path d="m40.756 417.315c-17.192-7.136-28.961-22.493-31.985-40.052l-.034.201c-4.095 24.386 9.18 48.372 32.019 57.851 28.432 11.801 60.91-2.964 70.71-32.146l6.028-17.947c-9.83 29.147-48.323 43.887-76.738 32.093z"/><path d="m503.229 377.264c-3.024 17.559-14.793 32.916-31.985 40.051-28.427 11.799-66.94-2.958-76.75-32.129l6.04 17.984c9.801 29.182 42.278 43.947 70.71 32.146 22.838-9.479 36.113-33.465 32.018-57.851z"/><path d="m366.85 302.875c-1.054-3.139-4.822-4.41-7.554-2.538-6.177 4.232-11.363 6.641-20.843 6.641-14.85 0-28.312-5.907-38.192-15.488-.915-.888-2.154-1.363-3.429-1.363h-81.664c-1.275 0-2.513.476-3.429 1.363-9.88 9.581-23.343 15.488-38.193 15.488-9.479 0-14.664-2.409-20.841-6.641-2.732-1.872-6.5-.601-7.554 2.538l-3.893 11.591c9.062 6.605 20.216 10.512 32.288 10.512 15.542 0 29.564-6.47 39.551-16.851h85.806c9.986 10.381 24.008 16.851 39.55 16.851 12.072 0 23.227-3.907 32.289-10.512z"/></g><circle cx="175.435" cy="270.725" fill="#dad8db" r="23.503"/><circle cx="336.565" cy="270.725" fill="#dad8db" r="23.503"/><path d="m175.435 276.227c-9.791 0-18.181-5.989-21.714-14.503-1.15 2.773-1.788 5.811-1.788 9 0 12.98 10.522 23.503 23.503 23.503 12.98 0 23.503-10.522 23.503-23.503 0-3.189-.638-6.227-1.789-9-3.534 8.514-11.924 14.503-21.715 14.503z" fill="#c8c5c9"/><path d="m336.565 276.227c-9.791 0-18.181-5.989-21.714-14.503-1.15 2.773-1.788 5.811-1.788 9 0 12.98 10.522 23.503 23.503 23.503 12.98 0 23.503-10.522 23.503-23.503 0-3.189-.638-6.227-1.789-9-3.534 8.514-11.924 14.503-21.715 14.503z" fill="#c8c5c9"/><path d="m153.154 173.778h-9.198v-9.198c0-8.788-7.124-15.912-15.912-15.912-8.788 0-15.912 7.124-15.912 15.912v9.198h-9.198c-8.788 0-15.912 7.124-15.912 15.912 0 8.788 7.124 15.912 15.912 15.912h9.198v9.198c0 8.788 7.124 15.912 15.912 15.912 8.788 0 15.912-7.124 15.912-15.912v-9.198h9.198c8.788 0 15.912-7.124 15.912-15.912 0-8.788-7.124-15.912-15.912-15.912z" fill="#b3e59f"/><path d="m153.154 173.778h-9.198v-9.198c0-8.788-7.124-15.912-15.912-15.912-8.788 0-15.912 7.124-15.912 15.912v9.198h-9.198c-8.788 0-15.912 7.124-15.912 15.912 0 8.788 7.124 15.912 15.912 15.912h9.198v9.198c0 8.788 7.124 15.912 15.912 15.912 8.788 0 15.912-7.124 15.912-15.912v-9.198h9.198c8.788 0 15.912-7.124 15.912-15.912 0-8.788-7.124-15.912-15.912-15.912z" fill="#dad8db"/><path d="m389.093 138.426c-7.921 0-14.402 6.481-14.402 14.402 0 7.921 6.481 14.402 14.402 14.402 7.921 0 14.402-6.481 14.402-14.402 0-7.921-6.481-14.402-14.402-14.402z" fill="#bed8fb"/><path d="m389.093 138.426c-7.921 0-14.402 6.481-14.402 14.402 0 7.921 6.481 14.402 14.402 14.402 7.921 0 14.402-6.481 14.402-14.402 0-7.921-6.481-14.402-14.402-14.402z" fill="#b3e59f"/><path d="m389.093 212.151c-7.921 0-14.402 6.481-14.402 14.402 0 7.921 6.481 14.402 14.402 14.402 7.921 0 14.402-6.481 14.402-14.402 0-7.921-6.481-14.402-14.402-14.402z" fill="#bed8fb"/><path d="m440.358 189.691c0-7.921-6.481-14.402-14.402-14.402-7.921 0-14.402 6.481-14.402 14.402 0 7.921 6.481 14.402 14.402 14.402 7.921 0 14.402-6.481 14.402-14.402z" fill="#edc963"/><path d="m366.632 189.691c0-7.921-6.481-14.402-14.402-14.402-7.921 0-14.402 6.481-14.402 14.402 0 7.921 6.481 14.402 14.402 14.402 7.921 0 14.402-6.481 14.402-14.402z" fill="#df667c"/><path d="m189.601 128.82h132.798v13.338c0 11.046-8.954 20-20 20h-92.798c-11.046 0-20-8.954-20-20z" fill="#a6aec4"/><path d="m302.399 144.157h-92.798c-9.438 0-17.328-6.545-19.431-15.338h-.569v13.338c0 11.046 8.954 20 20 20h92.798c11.046 0 20-8.954 20-20v-13.337h-.569c-2.103 8.792-9.994 15.337-19.431 15.337z" fill="#959db0"/></g><g><path d="m175.282 239.71c-17.127 0-31.061 13.934-31.061 31.061s13.934 31.062 31.061 31.062 31.061-13.935 31.061-31.062-13.934-31.061-31.061-31.061zm0 47.095c-8.84 0-16.033-7.192-16.033-16.033 0-8.84 7.192-16.032 16.033-16.032s16.033 7.192 16.033 16.032-7.193 16.033-16.033 16.033z"/><path d="m305.657 270.771c0 17.127 13.934 31.062 31.061 31.062s31.061-13.935 31.061-31.062-13.934-31.061-31.061-31.061-31.061 13.934-31.061 31.061zm31.061-16.032c8.841 0 16.033 7.192 16.033 16.032 0 8.841-7.192 16.033-16.033 16.033-8.84 0-16.033-7.192-16.033-16.033 0-8.84 7.193-16.032 16.033-16.032z"/><path d="m511.143 376.469-33.876-201.735c-.022-.129-.047-.257-.075-.384-4.768-33.451-27.278-60.819-57.144-73.096v-13.947c0-12.43-10.112-22.543-22.543-22.543h-28.337c-12.43 0-22.543 10.113-22.543 22.543v15.086c-9.997 4.489-19.214 10.758-27.256 18.689h-126.739c-8.042-7.931-17.259-14.2-27.256-18.689v-15.086c0-12.43-10.112-22.543-22.543-22.543h-28.337c-12.43 0-22.543 10.113-22.543 22.543v13.948c-29.863 12.276-52.371 39.641-57.142 73.088-.029.129-.054.259-.076.391l-10.91 64.966c-.687 4.093 2.073 7.968 6.166 8.655 4.093.684 7.968-2.073 8.655-6.166l10.805-64.348c.069-.274.124-.554.162-.838 5.23-38.599 38.583-67.706 77.585-67.706 20.72 0 40.046 7.942 54.764 22.397v10.263c0 15.192 12.36 27.552 27.552 27.552h31.459c4.15 0 7.514-3.364 7.514-7.514 0-4.151-3.364-7.514-7.514-7.514h-31.459c-6.906 0-12.524-5.618-12.524-12.524v-5.849h118.022v5.849c0 6.906-5.618 12.524-12.524 12.524h-31.459c-4.15 0-7.514 3.364-7.514 7.514s3.364 7.514 7.514 7.514h31.459c15.192 0 27.552-12.36 27.552-27.552v-10.263c14.718-14.456 34.044-22.397 54.764-22.397 39.001 0 72.356 29.107 77.585 67.706.038.281.091.557.16.828l33.774 201.126c3.544 21.104-7.785 41.573-27.549 49.777-11.832 4.912-24.771 4.695-36.433-.607s-20.33-14.909-24.408-27.053l-6.917-20.597c-1.321-3.934-5.582-6.056-9.516-4.731-3.934 1.321-6.052 5.581-4.731 9.515l6.917 20.597c5.341 15.903 17.163 29.007 32.435 35.95 7.951 3.614 16.543 5.426 25.142 5.426 7.919 0 15.844-1.537 23.272-4.621 26.265-10.9 41.319-38.1 36.61-66.144zm-404.163-279.954v-9.208c0-4.144 3.371-7.514 7.514-7.514h28.337c4.144 0 7.514 3.371 7.514 7.514v9.84c-7.462-1.892-15.218-2.877-23.148-2.877-6.919 0-13.684.784-20.217 2.245zm254.675.632v-9.84c0-4.144 3.371-7.514 7.514-7.514h28.337c4.144 0 7.514 3.371 7.514 7.514v9.208c-6.533-1.461-13.298-2.245-20.217-2.245-7.93 0-15.686.985-23.148 2.877z"/><path d="m391.439 351.968-13.355-39.766c-.762-2.27-2.561-4.041-4.842-4.768-2.28-.726-4.772-.323-6.708 1.088-8.159 5.947-17.815 9.09-27.924 9.09-13.018 0-25.167-5.177-34.21-14.577-1.417-1.473-3.372-2.305-5.415-2.305h-85.969c-2.043 0-3.999.833-5.415 2.305-9.043 9.401-21.193 14.577-34.211 14.577-10.109 0-19.766-3.144-27.924-9.09-1.934-1.41-4.425-1.814-6.707-1.088-2.282.727-4.08 2.498-4.842 4.768l-29.848 88.873c-4.078 12.144-12.746 21.751-24.408 27.053-11.663 5.302-24.601 5.516-36.433.607-19.765-8.204-31.093-28.673-27.549-49.777l17.985-107.1c.687-4.093-2.073-7.968-6.166-8.655-4.098-.681-7.968 2.073-8.655 6.166l-17.985 107.1c-4.709 28.044 10.345 55.245 36.61 66.146 7.43 3.084 15.352 4.622 23.272 4.621 8.597 0 17.192-1.812 25.142-5.426 15.272-6.943 27.094-20.047 32.435-35.95l26.849-79.944c8.697 4.421 18.296 6.726 28.226 6.726 16.046 0 31.088-5.971 42.709-16.883h79.803c11.62 10.911 26.662 16.883 42.708 16.883 9.93 0 19.529-2.304 28.226-6.726l10.356 30.837c1.321 3.934 5.58 6.056 9.516 4.731 3.932-1.322 6.05-5.582 4.729-9.516z"/><path d="m127.801 140.968c-12.934 0-23.457 10.523-23.457 23.457v1.701h-1.701c-12.934 0-23.457 10.523-23.457 23.457s10.522 23.457 23.457 23.457h1.701v1.701c0 12.934 10.523 23.457 23.457 23.457s23.457-10.523 23.457-23.457v-1.701h1.701c12.934 0 23.457-10.523 23.457-23.457s-10.522-23.457-23.457-23.457h-1.701v-1.701c-.001-12.934-10.523-23.457-23.457-23.457zm25.158 40.187c4.647 0 8.428 3.781 8.428 8.428s-3.781 8.428-8.428 8.428h-9.216c-4.15 0-7.514 3.364-7.514 7.514v9.216c0 4.648-3.781 8.428-8.428 8.428s-8.429-3.781-8.429-8.428v-9.216c0-4.15-3.364-7.514-7.514-7.514h-9.215c-4.647 0-8.428-3.781-8.428-8.428 0-4.648 3.781-8.428 8.428-8.428h9.215c4.15 0 7.514-3.364 7.514-7.514v-9.216c0-4.648 3.781-8.428 8.429-8.428 4.647 0 8.428 3.781 8.428 8.428v9.216c0 4.15 3.364 7.514 7.514 7.514z"/><path d="m389.346 130.706c-12.1 0-21.944 9.844-21.944 21.944s9.844 21.944 21.944 21.944 21.944-9.844 21.944-21.944-9.844-21.944-21.944-21.944zm0 28.86c-3.813 0-6.915-3.103-6.915-6.915s3.102-6.915 6.915-6.915 6.915 3.103 6.915 6.915-3.102 6.915-6.915 6.915z"/><path d="m389.346 204.572c-12.1 0-21.944 9.844-21.944 21.944 0 12.099 9.844 21.943 21.944 21.943s21.944-9.844 21.944-21.944c0-12.099-9.844-21.943-21.944-21.943zm0 28.859c-3.813 0-6.915-3.103-6.915-6.915 0-3.813 3.102-6.915 6.915-6.915s6.915 3.103 6.915 6.915-3.102 6.915-6.915 6.915z"/><path d="m448.223 189.583c0-12.1-9.844-21.944-21.944-21.944s-21.944 9.844-21.944 21.944 9.844 21.944 21.944 21.944 21.944-9.844 21.944-21.944zm-28.859 0c0-3.813 3.102-6.915 6.915-6.915s6.915 3.103 6.915 6.915-3.102 6.915-6.915 6.915-6.915-3.102-6.915-6.915z"/><path d="m330.469 189.583c0 12.1 9.844 21.944 21.944 21.944s21.943-9.844 21.943-21.944-9.844-21.944-21.943-21.944c-12.1 0-21.944 9.844-21.944 21.944zm28.859 0c0 3.813-3.102 6.915-6.915 6.915s-6.915-3.103-6.915-6.915 3.102-6.915 6.915-6.915c3.813-.001 6.915 3.102 6.915 6.915z"/><path d="m233.812 218.681c4.15 0 7.514-3.364 7.514-7.514s-3.364-7.514-7.514-7.514h-22.491c-4.15 0-7.514 3.364-7.514 7.514s3.364 7.514 7.514 7.514z"/><path d="m300.679 203.653h-22.491c-4.15 0-7.514 3.364-7.514 7.514s3.364 7.514 7.514 7.514h22.491c4.15 0 7.514-3.364 7.514-7.514 0-4.151-3.364-7.514-7.514-7.514z"/></g></g></svg>