<svg id="Layer_1" enable-background="new 0 0 512 512" height="512" viewBox="0 0 512 512" width="512" xmlns="http://www.w3.org/2000/svg"><g id="XMLID_1515_"><ellipse id="XMLID_1514_" cx="256" cy="255.998" fill="#e7e9ef" rx="246" ry="145.935"/><circle id="XMLID_1484_" cx="256" cy="255.998" fill="#33d6f5" r="101.935"/><circle id="XMLID_1451_" cx="256" cy="255.998" fill="#9ea6bf" r="52"/><circle id="XMLID_320_" cx="281.41" cy="230.588" fill="#fff" r="26"/><g id="XMLID_465_"><path id="XMLID_466_" d="m510.774 251.199c-20.904-38.213-50.718-71.821-86.218-97.192-36.146-25.833-78.372-43.208-122.112-50.245-5.45-.875-10.584 2.832-11.462 8.285-.877 5.453 2.832 10.584 8.284 11.461 79.805 12.84 150.907 62.202 191.271 132.492-48.175 83.992-137.532 135.933-234.537 135.933s-186.361-51.941-234.537-135.933c40.364-70.29 111.467-119.652 191.271-132.492 5.452-.877 9.161-6.009 8.284-11.461-.878-5.454-6.011-9.158-11.462-8.285-43.74 7.038-85.966 24.412-122.112 50.245-35.5 25.371-65.313 58.979-86.218 97.192-1.636 2.99-1.636 6.608 0 9.599 50.999 93.223 148.622 151.135 254.774 151.135s203.775-57.912 254.773-151.135c1.636-2.991 1.636-6.609.001-9.599z"/><path id="XMLID_469_" d="m144.066 255.998c0 61.721 50.214 111.935 111.935 111.935s111.935-50.213 111.935-111.935-50.215-111.935-111.936-111.935-111.934 50.214-111.934 111.935zm203.869 0c0 50.693-41.241 91.935-91.935 91.935s-91.935-41.242-91.935-91.935 41.241-91.935 91.935-91.935 91.935 41.242 91.935 91.935z"/><path id="XMLID_472_" d="m256 193.998c-34.187 0-62 27.813-62 62s27.813 62 62 62 62-27.813 62-62c0-5.278-.672-10.493-1.98-15.552 3.438-12.151.392-25.767-9.153-35.313-6.8-6.799-15.841-10.544-25.456-10.544-3.396 0-6.718.477-9.897 1.38-5.049-1.302-10.251-1.971-15.514-1.971zm0 104c-23.159 0-42-18.841-42-42 0-20.831 15.246-38.16 35.164-41.435-2.45 4.918-3.755 10.37-3.755 16.025 0 9.616 3.745 18.656 10.545 25.456s15.84 10.544 25.456 10.544c5.655 0 11.106-1.305 16.025-3.754-3.275 19.917-20.604 35.164-41.435 35.164zm36.724-56.096c-3.021 3.022-7.04 4.687-11.313 4.687-4.274 0-8.292-1.664-11.313-4.687-3.022-3.022-4.688-7.04-4.688-11.313s1.665-8.292 4.688-11.314c3.021-3.022 7.039-4.686 11.313-4.686 4.273 0 8.292 1.664 11.313 4.686 6.238 6.238 6.238 16.389 0 22.627z"/><path id="XMLID_474_" d="m256 120.058c2.63 0 5.21-1.06 7.069-2.92 1.86-1.87 2.931-4.44 2.931-7.07 0-2.64-1.07-5.21-2.931-7.07-1.859-1.87-4.439-2.93-7.069-2.93s-5.21 1.06-7.07 2.93c-1.86 1.86-2.93 4.43-2.93 7.07 0 2.63 1.069 5.21 2.93 7.07 1.86 1.86 4.44 2.92 7.07 2.92z"/></g></g></svg>