<?xml version="1.0" encoding="iso-8859-1"?>
<!-- Generator: Adobe Illustrator 19.0.0, SVG Export Plug-In . SVG Version: 6.00 Build 0)  -->
<svg version="1.1" id="Capa_1" xmlns="http://www.w3.org/2000/svg" xmlns:xlink="http://www.w3.org/1999/xlink" x="0px" y="0px"
	 viewBox="0 0 512 512" style="enable-background:new 0 0 512 512;" xml:space="preserve">
<path style="fill:#72A3FC;" d="M391,15v160c0,4.69-2.2,9.12-5.94,11.95l-55,41.71l-65,49.29c-2.68,2.03-5.87,3.05-9.06,3.05
	s-6.38-1.02-9.06-3.05l-65-49.29l-55-41.71c-3.74-2.83-5.94-7.26-5.94-11.95V15c0-8.28,6.72-15,15-15h240C384.28,0,391,6.72,391,15z
	"/>
<path style="fill:#2892FC;" d="M376,0H256v281c3.19,0,6.38-1.02,9.06-3.05l65-49.29l55-41.71c3.74-2.83,5.94-7.26,5.94-11.95V15
	C391,6.72,384.28,0,376,0z"/>
<path style="fill:#5458EA;" d="M330.06,0v228.66l-65,49.29c-2.68,2.03-5.87,3.05-9.06,3.05s-6.38-1.02-9.06-3.05l-65-49.29V0H330.06
	z"/>
<path style="fill:#394BF6;" d="M256,0v281c3.19,0,6.38-1.02,9.06-3.05l65-49.29V0H256z"/>
<path style="fill:#FAD557;" d="M256,251c-71.958,0-130.5,58.542-130.5,130.5S184.042,512,256,512s130.5-58.542,130.5-130.5
	S327.958,251,256,251z"/>
<path style="fill:#FCB12B;" d="M256,251v261c71.958,0,130.5-58.542,130.5-130.5S327.958,251,256,251z"/>
<path style="fill:#FDA429;" d="M323.233,364.973c-1.619-4.982-5.72-8.759-10.819-9.963l-28.428-6.711l-15.167-24.963
	c-2.721-4.478-7.58-7.211-12.819-7.211s-10.099,2.733-12.819,7.211l-15.167,24.963l-28.428,6.711
	c-5.099,1.204-9.2,4.98-10.819,9.963s-0.521,10.449,2.896,14.42l19.053,22.14l-2.401,29.109c-0.431,5.222,1.894,10.289,6.133,13.369
	c4.238,3.078,9.775,3.723,14.609,1.7L256,434.432l26.942,11.279c4.832,2.022,10.37,1.38,14.609-1.7
	c4.239-3.08,6.563-8.147,6.133-13.369l-2.401-29.109l19.053-22.14C323.754,375.422,324.852,369.956,323.233,364.973z"/>
<path style="fill:#E28117;" d="M323.233,364.973c-1.619-4.982-5.72-8.759-10.819-9.963l-28.428-6.711l-15.167-24.963
	c-2.721-4.478-7.58-7.211-12.819-7.211v118.307l26.942,11.279c4.832,2.022,10.37,1.38,14.609-1.7
	c4.239-3.08,6.563-8.147,6.133-13.369l-2.401-29.109l19.053-22.14C323.754,375.422,324.852,369.956,323.233,364.973z"/>
<g>
</g>
<g>
</g>
<g>
</g>
<g>
</g>
<g>
</g>
<g>
</g>
<g>
</g>
<g>
</g>
<g>
</g>
<g>
</g>
<g>
</g>
<g>
</g>
<g>
</g>
<g>
</g>
<g>
</g>
</svg>
