<?xml version="1.0" encoding="iso-8859-1"?>
<!-- Generator: Adobe Illustrator 19.0.0, SVG Export Plug-In . SVG Version: 6.00 Build 0)  -->
<svg version="1.1" id="Capa_1" xmlns="http://www.w3.org/2000/svg" xmlns:xlink="http://www.w3.org/1999/xlink" x="0px" y="0px"
	 viewBox="0 0 512 512" style="enable-background:new 0 0 512 512;" xml:space="preserve">
<polygon style="fill:#3789C9;" points="133.904,186.848 0,421.024 114.624,398.88 153.68,508.912 287.584,274.736 "/>
<g>
	<polygon style="fill:#F3F3F3;" points="160.32,201.952 39.456,413.328 73.792,406.752 183.36,215.136 	"/>
	<polygon style="fill:#F3F3F3;" points="238.016,246.384 128.528,437.872 140.256,471.152 261.2,259.648 	"/>
</g>
<polygon style="fill:#3789C9;" points="378.096,186.848 512,421.024 397.376,398.88 358.32,508.912 224.416,274.736 "/>
<g>
	<polygon style="fill:#F3F3F3;" points="351.68,201.952 472.544,413.328 438.208,406.752 328.64,215.136 	"/>
	<polygon style="fill:#F3F3F3;" points="273.984,246.384 383.472,437.872 371.744,471.152 250.8,259.648 	"/>
</g>
<path style="opacity:0.1;fill:#010101;enable-background:new    ;" d="M83.12,275.664c25.408,55.552,70.592,102.208,128.992,131.056
	L256,329.984l43.872,76.736c58.4-28.848,103.6-75.488,129.008-131.04l-50.784-88.832L256,256.672l-122.096-69.808L83.12,275.664z"/>
<path style="fill:#FFDB70;" d="M435.84,34.48c0,45.376,0,90.752,0,136.128C436.224,277.552,362.464,372.56,256,407.472
	C149.52,372.56,75.776,277.568,76.16,170.608c0-45.376,0-90.752,0-136.128C192.4-7.376,319.6-7.376,435.84,34.48z"/>
<path style="fill:#FDBC4B;" d="M256,368.064c-86.144-33.104-143.008-110.992-142.704-197.328V61.312
	c46.288-14,94.16-21.072,142.704-21.072c48.528,0,96.432,7.072,142.704,21.072v109.296C399.008,257.056,342.16,334.96,256,368.064z"
	/>
<path style="fill:#F9B444;" d="M207.104,67.6c-0.512,10.192,7.6,18.64,17.6,18.64H287.2c10.192,0,18.304,8.464,17.776,18.64
	c-0.512,9.488-9.152,16.752-18.64,16.752h-59.04c-9.488,0.176-17.088,7.936-17.088,17.6s7.936,17.616,17.6,17.616h75.952
	c8.288,0,15.024,6.736,14.848,14.848v1.376c0.512,7.936-5.872,14.848-13.984,14.848H193.968c-9.664,0-18.128,7.072-18.816,16.576
	c-0.352,10.192,7.6,18.64,17.776,18.64h104.96c8.112,0,14.848,6.736,14.848,14.848l-0.176,1.04v0.176
	c0.176,8.624-6.912,15.712-15.536,15.712h-72.672c-9.664,0-18.128,7.072-18.816,16.752c-0.352,10.176,7.6,18.64,17.776,18.64h76.992
	c8.624,0,14.848,7.072,14.848,15.712c0,0,0,0,0,0.176s0,0.176,0,0.176c0,8.464-6.208,15.712-14.848,15.712h-61.968
	c-9.488,0-17.952,7.072-18.464,16.576c-0.512,10.352,7.6,18.64,17.616,18.64h42.272C352.4,319.92,398.992,248.832,398.704,170.64
	V61.312c-13.472-4.08-27.12-7.392-40.832-10.288H225.76C216.08,51.024,207.616,58.112,207.104,67.6z"/>
<g>
	<path style="fill:#FFFFFF;" d="M185.92,254.448c0.4-2.928,2.208-5.472,3.072-8.224c0.848-2.752,0.912-5.68,0.864-8.64
		c-0.096-2.976-0.304-5.952-1.328-9.248c-0.304-0.112-0.608-0.208-0.912-0.32c-2.496,2.096-3.968,4.592-5.136,7.232
		c-1.104,2.656-1.904,5.456-1.712,8.592c0.224,3.152,1.616,6.624,1.824,9.744c0.032,0.4-0.064,0.784-0.064,1.184
		c-6.4-7.808-11.872-16.096-16.4-24.72c0.128-1.744,0.416-3.392,1.088-4.848c1.104-2.544,3.44-4.448,4.928-6.736
		c1.456-2.304,2.192-4.944,2.816-7.632c0.576-2.72,1.024-5.488,0.736-8.736c-0.272-0.16-0.544-0.32-0.816-0.48
		c-2.848,1.392-4.8,3.344-6.512,5.488c-1.648,2.176-3.056,4.544-3.584,7.424c-0.496,2.896,0,6.336-0.56,9.168
		c-0.096,0.56-0.368,1.024-0.512,1.552c-4.128-8.608-7.328-17.536-9.6-26.64c0.512-1.968,1.216-3.808,2.384-5.248
		c1.6-2.064,4.256-3.28,6.16-5.04c1.888-1.792,3.136-4.048,4.272-6.416c1.088-2.4,2.096-4.864,2.448-7.968
		c-0.224-0.208-0.448-0.432-0.688-0.64c-2.976,0.656-5.248,2.032-7.312,3.648c-2.016,1.648-3.84,3.536-4.944,6.064
		c-1.088,2.56-1.328,5.824-2.48,8.288c-0.288,0.656-0.736,1.184-1.12,1.776c-1.872-9.008-2.832-18.16-2.896-27.328
		c1.008-2.16,2.192-4.128,3.904-5.424c1.936-1.552,4.688-2.048,6.832-3.264c2.128-1.232,3.744-3.088,5.296-5.056
		c1.504-2.016,2.912-4.144,3.856-7.04c-0.176-0.256-0.352-0.512-0.512-0.768c-2.928-0.064-5.312,0.752-7.568,1.792
		c-2.176,1.104-4.256,2.448-5.808,4.592c-1.536,2.176-2.416,5.168-4,7.216c-0.544,0.72-1.2,1.232-1.856,1.808
		c0.336-8.96,1.536-17.904,3.616-26.736c0.096-0.144,0.192-0.272,0.288-0.4c1.536-2.176,3.248-4.08,5.392-5.056
		c2.112-1.024,4.752-0.832,6.992-1.504c2.224-0.688,4.096-2.096,5.92-3.648c1.792-1.616,3.536-3.36,4.992-5.984
		c-0.112-0.288-0.208-0.576-0.32-0.88c-2.688-0.72-5.04-0.464-7.344,0.032c-2.272,0.56-4.48,1.392-6.352,3.088
		c-1.84,1.744-3.296,4.448-5.184,6c-0.816,0.72-1.712,1.2-2.64,1.648c2.512-8.768,5.92-17.392,10.208-25.728
		c0.08,0.096,0.16,0.192,0.256,0.288c0.368-0.352,0.736-0.688,1.104-1.024c1.904-1.744,3.872-3.2,6.048-3.648
		c2.144-0.512,4.512,0.272,6.672,0.128c2.16-0.176,4.176-1.136,6.192-2.272c2.016-1.2,3.984-2.56,5.936-4.848
		c-0.032-0.32-0.048-0.624-0.08-0.944c-2.272-1.296-4.464-1.536-6.656-1.552c-2.192,0.064-4.384,0.4-6.48,1.648
		c-2.096,1.296-4.032,3.6-6.112,4.704c-1.024,0.576-2.08,0.928-3.152,1.136c0.032-0.192,0.048-0.384,0.08-0.576
		c6.944-11.888,15.76-23.136,26.48-33.376c-10.16,9.056-18.8,19.056-25.92,29.712c0.016-0.32,0.176-0.688,0.176-0.992
		c0.16-2.288,0.288-4.56,0.048-6.72c-0.736-4.192-1.968-8.272-5.36-11.696c-0.368,0.128-0.72,0.24-1.088,0.368
		c-3.584,5.824-4.528,10.912-4.544,15.568c0.144,2.272,0.72,4.352,1.456,6.336c0.608,2.048,1.712,3.872,3.088,5.552
		c0.192,0.24,0.384,0.48,0.592,0.72c-4.08,7.136-7.52,14.56-10.288,22.16c-0.016-0.08,0-0.16-0.032-0.24
		c-0.464-2.416-1.008-4.784-1.84-6.976c-1.904-4.24-4.224-8.272-8.448-11.28c-0.32,0.192-0.64,0.384-0.96,0.576
		c-1.936,6.688-1.472,12.144-0.192,16.976c0.768,2.336,1.92,4.384,3.216,6.32c1.184,2.032,2.8,3.712,4.64,5.2
		c0.048,0.048,0.112,0.08,0.16,0.128c-2.096,7.536-3.568,15.2-4.416,22.912c-1.12-2.272-2.256-4.512-3.632-6.544
		c-3.088-4.048-6.496-7.84-11.52-10.256c-0.272,0.256-0.528,0.496-0.8,0.752c-0.128,7.248,1.856,12.8,4.496,17.552
		c1.424,2.272,3.168,4.192,5.008,5.952c1.616,1.712,3.584,3.04,5.648,4.176c-0.208,7.616,0.176,15.264,1.184,22.864
		c-1.664-1.968-3.344-3.952-5.168-5.664c-4.256-3.6-8.752-6.912-14.464-8.592c-0.208,0.304-0.416,0.592-0.608,0.896
		c1.84,7.44,5.36,12.8,9.376,17.2c2.08,2.08,4.384,3.728,6.768,5.2c1.904,1.312,4.048,2.16,6.208,2.928
		c1.632,7.424,3.856,14.768,6.672,21.968c-2.16-1.584-4.272-3.216-6.512-4.544c-5.376-2.912-10.88-5.504-17.2-6.288
		c-0.128,0.336-0.256,0.672-0.384,1.008c3.904,7.264,9.008,12.112,14.368,15.84c2.72,1.728,5.568,2.992,8.448,4.048
		c2.096,0.88,4.288,1.264,6.464,1.632c3.44,6.928,7.472,13.68,12.08,20.208c-2.56-1.12-5.088-2.32-7.648-3.216
		c-6.4-1.952-12.848-3.616-19.616-3.344c-0.048,0.368-0.08,0.72-0.128,1.088c6.048,6.688,12.72,10.64,19.376,13.44
		c3.344,1.248,6.672,2,9.984,2.512c2.176,0.432,4.32,0.368,6.464,0.384c3.584,4.208,7.44,8.304,11.568,12.24
		c2.176-2.016,4.352-4.016,6.528-6.032c-4.736-4.224-9.152-8.672-13.216-13.296C185.76,257.312,185.696,255.84,185.92,254.448z"/>
	<path style="fill:#FFFFFF;" d="M363.136,218.592c-2.224,1.344-4.352,2.96-6.512,4.544c2.832-7.2,5.056-14.544,6.672-21.968
		c2.16-0.768,4.288-1.616,6.208-2.928c2.384-1.456,4.688-3.12,6.768-5.2c4-4.4,7.536-9.76,9.376-17.2
		c-0.208-0.304-0.4-0.592-0.608-0.896c-5.728,1.696-10.208,5.008-14.464,8.592c-1.824,1.712-3.504,3.696-5.168,5.664
		c1.008-7.6,1.392-15.248,1.184-22.864c2.08-1.152,4.032-2.464,5.648-4.176c1.856-1.76,3.584-3.68,5.008-5.952
		c2.64-4.752,4.608-10.32,4.496-17.552c-0.272-0.256-0.528-0.496-0.8-0.752c-5.024,2.432-8.432,6.208-11.52,10.256
		c-1.376,2.032-2.496,4.288-3.632,6.544c-0.848-7.728-2.336-15.376-4.432-22.912c0.048-0.048,0.112-0.08,0.16-0.128
		c1.84-1.504,3.456-3.184,4.64-5.2c1.296-1.936,2.464-3.984,3.216-6.32c1.28-4.832,1.76-10.288-0.176-16.976
		c-0.32-0.192-0.64-0.384-0.96-0.576c-4.224,3.008-6.544,7.04-8.448,11.28c-0.816,2.192-1.36,4.576-1.84,6.976
		c-0.016,0.08-0.016,0.16-0.032,0.24c-2.768-7.6-6.192-15.008-10.272-22.176c0.192-0.24,0.384-0.48,0.592-0.72
		c1.36-1.68,2.48-3.504,3.088-5.552c0.736-1.984,1.312-4.064,1.456-6.336c-0.016-4.64-0.944-9.744-4.544-15.568
		c-0.368-0.128-0.72-0.256-1.088-0.368c-3.392,3.424-4.624,7.504-5.36,11.696c-0.224,2.16-0.112,4.416,0.048,6.72
		c0,0.304,0.144,0.672,0.176,0.992c-7.12-10.656-15.76-20.64-25.92-29.712c10.72,10.24,19.536,21.488,26.48,33.376
		c0.032,0.192,0.048,0.368,0.08,0.576c-1.072-0.208-2.128-0.56-3.152-1.136c-2.08-1.104-4-3.408-6.112-4.704
		c-2.096-1.248-4.288-1.584-6.48-1.648c-2.208,0.016-4.4,0.256-6.656,1.552c-0.032,0.32-0.048,0.624-0.08,0.944
		c1.952,2.288,3.92,3.648,5.936,4.848c1.984,1.168,4,2.128,6.176,2.304c2.176,0.144,4.528-0.64,6.672-0.128
		c2.16,0.432,4.144,1.904,6.048,3.648c0.368,0.336,0.736,0.688,1.104,1.024c0.08-0.096,0.16-0.192,0.256-0.288
		c4.288,8.352,7.68,16.96,10.208,25.728c-0.928-0.448-1.84-0.928-2.656-1.648c-1.888-1.568-3.328-4.256-5.2-5.984
		c-1.872-1.696-4.064-2.528-6.352-3.088c-2.288-0.496-4.656-0.752-7.344-0.032c-0.096,0.288-0.208,0.576-0.32,0.88
		c1.472,2.624,3.2,4.368,4.992,5.984c1.824,1.552,3.696,2.96,5.92,3.648c2.24,0.672,4.88,0.48,6.992,1.504
		c2.144,0.96,3.856,2.864,5.408,5.04c0.096,0.144,0.192,0.272,0.288,0.4c2.08,8.832,3.264,17.776,3.6,26.736
		c-0.656-0.576-1.328-1.088-1.856-1.808c-1.584-2.032-2.48-5.04-4.016-7.216c-1.552-2.144-3.632-3.488-5.856-4.592
		c-2.256-1.04-4.64-1.856-7.568-1.792c-0.176,0.256-0.352,0.512-0.512,0.768c0.944,2.896,2.352,5.008,3.856,7.04
		c1.552,1.968,3.152,3.824,5.296,5.056c2.16,1.216,4.896,1.712,6.832,3.264c1.712,1.296,2.912,3.264,3.92,5.424
		c-0.064,9.168-1.024,18.32-2.896,27.328c-0.384-0.592-0.832-1.104-1.12-1.776c-1.152-2.464-1.392-5.728-2.48-8.288
		c-1.104-2.528-2.928-4.416-4.944-6.064c-2.064-1.616-4.336-2.992-7.312-3.648c-0.224,0.208-0.448,0.432-0.688,0.64
		c0.352,3.104,1.344,5.568,2.448,7.968c1.152,2.352,2.384,4.624,4.272,6.416c1.904,1.76,4.56,2.976,6.16,5.04
		c1.184,1.44,1.872,3.28,2.384,5.248c-2.272,9.104-5.472,18.016-9.6,26.64c-0.144-0.528-0.416-0.992-0.512-1.552
		c-0.56-2.832-0.048-6.272-0.56-9.168c-0.528-2.88-1.936-5.248-3.584-7.424c-1.712-2.16-3.664-4.112-6.512-5.488
		c-0.272,0.16-0.544,0.32-0.816,0.48c-0.288,3.248,0.16,6.016,0.736,8.736c0.624,2.688,1.36,5.328,2.816,7.632
		c1.488,2.288,3.84,4.192,4.928,6.736c0.672,1.456,0.96,3.104,1.088,4.848c-4.528,8.624-10,16.912-16.4,24.72
		c0-0.4-0.096-0.784-0.064-1.184c0.208-3.12,1.584-6.576,1.824-9.744c0.208-3.136-0.608-5.936-1.712-8.592
		c-1.168-2.64-2.64-5.12-5.136-7.232c-0.304,0.112-0.608,0.208-0.912,0.32c-1.04,3.296-1.232,6.272-1.328,9.248
		c-0.032,2.96,0.032,5.872,0.864,8.64c0.864,2.752,2.688,5.296,3.088,8.224c0.224,1.392,0.16,2.864-0.064,4.368
		c-4.064,4.624-8.48,9.056-13.216,13.296c2.176,2.016,4.352,4.016,6.528,6.032c4.128-3.936,7.984-8.032,11.568-12.24
		c2.144-0.016,4.288,0.048,6.464-0.384c3.312-0.512,6.656-1.264,9.984-2.512c6.656-2.784,13.328-6.752,19.376-13.44
		c-0.032-0.368-0.08-0.72-0.128-1.088c-6.768-0.272-13.216,1.392-19.616,3.344c-2.544,0.896-5.088,2.08-7.648,3.216
		c4.624-6.512,8.64-13.28,12.08-20.208c2.192-0.384,4.368-0.768,6.464-1.632c2.88-1.056,5.728-2.304,8.448-4.048
		c5.36-3.728,10.464-8.576,14.368-15.84c-0.128-0.336-0.256-0.672-0.384-1.008C374.016,213.088,368.512,215.68,363.136,218.592z"/>
	<polygon style="fill:#FFFFFF;" points="256,93.168 274.848,151.184 335.856,151.184 286.496,187.04 305.36,245.056 256,209.2 
		206.64,245.056 225.504,187.04 176.144,151.184 237.152,151.184 	"/>
</g>
<g>
	<polygon style="fill:#E5E5E5;" points="256,93.168 256,175.984 274.848,151.184 	"/>
	<polygon style="fill:#E5E5E5;" points="256,175.984 335.856,151.184 286.496,187.04 	"/>
	<polygon style="fill:#E5E5E5;" points="256,175.984 305.36,245.056 256,209.2 	"/>
	<polygon style="fill:#E5E5E5;" points="256,175.984 225.504,187.04 206.64,245.056 	"/>
	<polygon style="fill:#E5E5E5;" points="176.144,151.184 237.152,151.184 256,175.984 	"/>
</g>
<g>
</g>
<g>
</g>
<g>
</g>
<g>
</g>
<g>
</g>
<g>
</g>
<g>
</g>
<g>
</g>
<g>
</g>
<g>
</g>
<g>
</g>
<g>
</g>
<g>
</g>
<g>
</g>
<g>
</g>
</svg>
