<svg height="480pt" viewBox="-96 0 480 480.07418" width="480pt" xmlns="http://www.w3.org/2000/svg"><g fill="#9bc9ff"><path d="m64.035156 8-.316406 157.574219 80.316406 34.425781 79.699219-34.152344.300781-157.847656zm0 0"/><path d="m8.035156 336c0 75.109375 60.890625 136 136 136 75.113282 0 136-60.890625 136-136s-60.886718-136-136-136c-75.109375 0-136 60.890625-136 136zm136-104c57.441406 0 104 46.5625 104 104s-46.558594 104-104 104c-57.4375 0-104-46.5625-104-104 .066406-57.410156 46.589844-103.933594 104-104zm0 0"/><path d="m111.117188 341.753906c2.804687 2.035156 3.980468 5.644532 2.910156 8.941406l-8 24.71875c-1.070313 3.296876.105468 6.910157 2.90625 8.949219 2.804687 2.035157 6.605468 2.035157 9.40625-.003906l21.023437-15.28125c2.804688-2.035156 6.605469-2.035156 9.410157 0l21.023437 15.28125c2.804687 2.039063 6.601563 2.039063 9.40625.003906 2.804687-2.039062 3.976563-5.652343 2.90625-8.949219l-8-24.71875c-1.070313-3.296874.105469-6.90625 2.910156-8.941406l21.027344-15.28125c2.8125-2.042968 3.984375-5.671875 2.894531-8.976562-1.089844-3.304688-4.1875-5.523438-7.664062-5.496094h-25.992188c-3.464844 0-6.539062-2.230469-7.609375-5.527344l-8-24.71875c-1.078125-3.285156-4.144531-5.503906-7.597656-5.503906-3.457031 0-6.523437 2.21875-7.601563 5.503906l-8 24.71875c-1.070312 3.296875-4.140624 5.527344-7.609374 5.527344h-26.070313c-3.464844 0-6.539063 2.230469-7.609375 5.527344s.101562 6.90625 2.90625 8.945312zm0 0"/></g><path d="m174.988281 195.441406 84.199219-36.089844c2.941406-1.261718 4.847656-4.152343 4.847656-7.351562v-144c0-4.417969-3.578125-8-8-8h-224c-4.417968 0-8 3.582031-8 8v144c.003906 3.199219 1.910156 6.089844 4.851563 7.351562l84.199219 36.089844c-71.785157 15.796875-120.152344 83.128906-112.203126 156.199219 7.945313 73.074219 69.652344 128.433594 143.152344 128.433594 73.503906 0 135.210938-55.359375 143.15625-128.433594 7.949219-73.070313-40.417968-140.402344-112.203125-156.199219zm-30.953125-4.144531-72.308594-30.992187.308594-144.304688h144l-.292968 144.574219zm104-44.570313-16.292968 6.984376.292968-137.710938h16zm-208-130.726562h16l-.277344 137.457031-15.722656-6.730469zm104 448c-70.691406 0-128-57.308594-128-128s57.308594-128 128-128c70.695313 0 128 57.308594 128 128-.082031 70.65625-57.339844 127.917969-128 128zm0 0" fill="#1e81ce"/><path d="m144.035156 224c-61.855468 0-112 50.144531-112 112s50.144532 112 112 112c61.859375 0 112-50.144531 112-112-.0625-61.828125-50.167968-111.933594-112-112zm0 208c-53.015625 0-96-42.980469-96-96s42.984375-96 96-96c53.019532 0 96 42.980469 96 96-.054687 52.996094-43.003906 95.941406-96 96zm0 0" fill="#1e81ce"/><path d="m113.636719 393.945312c-3.382813-.019531-6.675781-1.109374-9.398438-3.113281-5.671875-4.027343-8.03125-11.296875-5.808593-17.886719l8-24.722656-21.03125-15.277344c-5.609376-4.074218-7.953126-11.296874-5.8125-17.886718 2.140624-6.59375 8.28125-11.054688 15.210937-11.058594h25.992187l8-24.71875c2.15625-6.566406 8.289063-11.003906 15.199219-11.003906 6.914063 0 13.042969 4.4375 15.199219 11.003906l8 24.71875h25.992188c6.933593 0 13.078124 4.460938 15.222656 11.054688 2.140625 6.59375-.207032 13.816406-5.8125 17.890624l-20.953125 15.277344 8 24.722656c2.140625 6.589844-.207031 13.808594-5.8125 17.878907-5.605469 4.074219-13.195313 4.078125-18.804688.007812l-20.984375-15.28125-21.03125 15.28125c-2.714844 2-5.996094 3.089844-9.367187 3.113281zm-18.839844-73.945312 21.03125 15.28125c5.621094 4.066406 7.96875 11.296875 5.808594 17.886719l-8 24.71875 21.023437-15.277344c5.605469-4.09375 13.210938-4.09375 18.816406 0l21.03125 15.269531-8.070312-24.710937c-2.160156-6.589844.1875-13.820313 5.808594-17.886719l21.03125-15.28125h-25.992188c-6.941406.011719-13.101562-4.453125-15.25-11.054688l-8-24.722656v-.09375l-8 24.800782c-2.136718 6.609374-8.296875 11.082031-15.246094 11.070312zm0 0" fill="#1e81ce"/></svg>