<?xml version="1.0" encoding="utf-8"?>
<!-- Generator: Adobe Illustrator 22.0.1, SVG Export Plug-In . SVG Version: 6.00 Build 0)  -->
<svg version="1.1" id="Layer_1" xmlns="http://www.w3.org/2000/svg" xmlns:xlink="http://www.w3.org/1999/xlink" x="0px" y="0px"
	 viewBox="0 0 100 100" style="enable-background:new 0 0 100 100;" xml:space="preserve">
<style type="text/css">
	.st0{fill:#D90629;}
	.st1{fill:#DC0325;}
	.st2{fill:#EF8111;}
	.st3{fill:#FCED09;}
	.st4{fill:#FCED1A;}
	.st5{fill:#F39A0C;}
	.st6{fill:#EF8625;}
	.st7{fill:#EF8840;}
	.st8{fill:#FBDA3F;}
	.st9{fill:#EB6015;}
	.st10{fill:#FACC05;}
	.st11{fill:#FCEC02;}
	.st12{fill:#F6B00A;}
	.st13{fill:#E11720;}
	.st14{fill:#E5401B;}
</style>
<g>
	<path class="st0" d="M19.1,83c-0.2-4.1-0.4-8.2-0.6-12.4c0.3-6.2,0.5-12.4-0.1-18.6c0,0,0,0,0,0c2.2,0,4.4-0.1,6.6-0.1
		c2.1,0,4.2,0.1,6.3,0.1c-0.1,2-0.1,3.9-0.2,5.9c-5.1-0.9-6.6,1.5-6,6.2c0.3,2.2,0.2,4.6,0.2,6.8c0,2,0,4-0.1,6c0,2-0.1,4-0.1,6
		c0,0,0.1,0,0.1,0C23.3,83,21.2,83,19.1,83z"/>
	<path class="st1" d="M56.3,76.7c-4.2,0-8.5,0-12.7,0c-0.1-2.2-0.2-4.4-0.3-6.6c1.6-2,1.5-4,0-6c0-2,0-4,0-6
		c0.1-0.2,0.3-0.3,0.6-0.2c4.1,0.1,8.2,0.2,12.3,0.3c0.1,2,0.1,4,0.2,5.9c0,2,0.1,4,0.1,6.1C56.5,72.3,56.4,74.5,56.3,76.7z"/>
	<path class="st0" d="M81.5,70.6c-0.1,4.2-0.2,8.3-0.3,12.5c-2,0-3.9,0-5.9,0c0,0,0.1,0.1,0.1,0.1c-0.1-2-0.2-3.9-0.3-5.9
		c0-2.1-0.1-4.1-0.1-6.2c0.1-4.3,0.2-8.5,0.3-12.8c2,0,4-0.1,6-0.1C81.3,62.2,81.4,66.4,81.5,70.6z"/>
	<path class="st2" d="M43.7,20.1c4.2,0.7,8.4,0.5,12.6,0.1c0,0,0.1-0.1,0.1-0.1c0,2.3,0,4.6,0,6.9c-3,0-5.9,0-8.9,0
		c-1.3,0-3.2-0.2-3.1,1.5c0.4,5.9-3.8,4.3-6.9,4.6c0-2.2-0.1-4.4-0.1-6.5c-0.1-0.2,0-0.5,0.1-0.7c5.9,0.6,5.9,0.6,5.9-5.8L43.7,20.1
		z"/>
	<path class="st3" d="M81.5,70.6c-0.1-4.2-0.2-8.4-0.3-12.6c0-2,0.1-3.9,0.1-5.9c0,0,0.4-0.2,0.4-0.2c4.7-1,6.6,0.8,5.9,5.7
		c-0.4,2.4-0.4,5,0,7.4C88.4,70.1,86.1,71.5,81.5,70.6z"/>
	<path class="st4" d="M18.4,52c0.6,6.2,0.4,12.4,0.1,18.6c-4.6,0.9-6.9-0.5-6.1-5.6c0.4-2.4,0.3-5,0-7.4
		C11.8,52.8,13.5,50.8,18.4,52z"/>
	<path class="st5" d="M75.2,58.2c-0.1,4.3-0.2,8.5-0.3,12.8c-2,0-4.1,0-6.1,0c-0.3-0.1-0.5-0.3-0.6-0.6c0-2.1,0-4.2,0.1-6.3
		c2.3-2-0.2-4.3,0.4-6.4C70.9,57.9,73.1,58,75.2,58.2L75.2,58.2z"/>
	<path class="st6" d="M43.3,70.1c0.1,2.2,0.2,4.4,0.3,6.6c-3.2,0.4-6.3,1.4-6.4-4.1c-0.1-3.6-3.8-1.4-5.9-1.6c0,0-0.2-0.1-0.2-0.1
		c0.1-2.3,0.1-4.6,0.2-6.8c2,0,4-0.1,6-0.1l0.3-0.1C37,70.1,37,70.1,43.3,70.1z"/>
	<path class="st6" d="M75.2,45.1c5.1-0.5,7,2,6.5,6.9c0,0-0.4,0.2-0.4,0.2c-2,0-4,0-5.9,0C75.1,52,74.8,52,74.5,52
		c0-2.1-0.1-4.2-0.1-6.2C74.7,45.5,74.9,45.3,75.2,45.1z"/>
	<path class="st7" d="M25.1,51.9c-2.2,0-4.4,0.1-6.6,0.1c-0.9-5.4,1.8-7.4,6.8-7.2c0.1,0.4,0.1,0.7,0.2,1.1
		C25.3,47.9,25.2,49.9,25.1,51.9z"/>
	<path class="st8" d="M19,27.1c-0.9-6.3-0.9-6.3,6.2-7.3c0.1,0.4,0.1,0.8,0.2,1.2c-0.1,2-0.2,4-0.4,6C23,27,21,27.1,19,27.1z"/>
	<path class="st2" d="M75.2,45.1c-0.3,0.2-0.5,0.4-0.8,0.7c-6,1.4-6.1-2.6-6.1-6.7c2.3,0,4.6,0,7,0l0,0.2
		C75.3,41.2,75.3,43.1,75.2,45.1z"/>
	<path class="st4" d="M19.1,83c2.1,0,4.2,0,6.3,0c-1,2,1.7,5.2-1.9,6.3C19.4,90.5,18.3,88.9,19.1,83z"/>
	<path class="st5" d="M62.4,14.4c2.3,0,4.6,0,6.8,0c0,1.9,0,3.8,0,5.7c-2.2,0-4.4,0-6.6,0l-0.4,0C62.3,18.2,62.4,16.3,62.4,14.4z"/>
	<path class="st4" d="M75.2,20.2c5.2-0.6,7.4,1.5,6,6.8c-1.9,0-3.8,0.1-5.7,0.1c-0.2-2.2-0.4-4.4-0.5-6.6L75.2,20.2z"/>
	<path class="st6" d="M31.4,14.4c2-0.1,4.2-0.9,6,0.6c0.1,1.7,0.1,3.4,0.2,5.1c-0.1,0.3-0.2,0.6-0.2,0.9c-2-0.1-4.1-0.1-6.1-0.2
		C31.3,18.7,31.4,16.5,31.4,14.4z"/>
	<path class="st9" d="M19,27.1c2,0,4-0.1,6-0.1c0,0,0.5,0,0.5,0c0,2,0,3.9,0,5.9c-2.1,0-4.2,0.1-6.2,0.1
		C18.6,31.1,18.8,29.1,19,27.1z"/>
	<path class="st2" d="M25.4,45.9c-0.1-0.4-0.1-0.7-0.2-1.1c0-1.8,0-3.6,0-5.4c0,0,0.2-0.4,0.2-0.4c2,0,4,0.1,6,0.1
		C31.9,43.6,31.3,47.1,25.4,45.9z"/>
	<path class="st2" d="M56.3,76.7c0.1-2.2,0.1-4.3,0.2-6.5c1.9-0.1,3.9-0.1,5.8-0.2c0.1,0.2,0.3,0.4,0.4,0.5
		C63.1,75.2,62,78.4,56.3,76.7z"/>
	<path class="st6" d="M68.8,71c2,0,4.1,0,6.1,0c0,2.1,0.1,4.1,0.1,6.2c-2-0.1-4-0.2-6-0.3C69,74.9,68.9,73,68.8,71z"/>
	<path class="st4" d="M69.1,76.9c2,0.1,4,0.2,6,0.3c0.1,2,0.2,3.9,0.3,5.9C68.3,83,68.3,83,69.1,76.9z"/>
	<path class="st4" d="M31.4,14.4c-0.1,2.2-0.1,4.3-0.2,6.5c0,0,0.1,0.2,0.1,0.2c-2,0-4,0-6,0c-0.1-0.4-0.1-0.8-0.2-1.2
		C24.1,14.3,26.9,13.5,31.4,14.4z"/>
	<path class="st10" d="M19.2,33c2.1,0,4.2-0.1,6.2-0.1c0,0-0.1,0.3-0.1,0.3c0,2,0.1,3.9,0.1,5.9c0,0-0.2,0.4-0.2,0.4
		C18.5,38.9,18.5,38.9,19.2,33z"/>
	<path class="st4" d="M69.3,20.1c0-1.9,0-3.8,0-5.7c5.1-1.3,6.9,0.8,6,5.7c0,0-0.3,0.3-0.3,0.3c-1.8,0.1-3.5,0.2-5.3,0.3
		C69.6,20.5,69.5,20.3,69.3,20.1z"/>
	<path class="st10" d="M62.4,14.4c0,1.9-0.1,3.8-0.1,5.7c-2,0-3.9,0-5.9,0c0,0-0.1,0.1-0.1,0.1C55.5,15.2,57.3,13.1,62.4,14.4z"/>
	<path class="st2" d="M68.3,64.1c0,2.1,0,4.2-0.1,6.3c-1.8,0.1-3.7,0.1-5.5,0.2c-0.1-0.2-0.3-0.4-0.4-0.5c0-2-0.1-4-0.1-6
		c0,0,0.4,0.1,0.4,0.1C64.5,64.1,66.4,64.1,68.3,64.1z"/>
	<path class="st2" d="M25.4,77.1c0-2,0-4,0.1-6c1.9,0,3.8,0,5.7-0.1c0,0,0.2,0.1,0.2,0.1c0,2-0.1,3.9-0.1,5.9
		C29.3,77,27.3,77,25.4,77.1z"/>
	<path class="st11" d="M25.4,77.1c1.9,0,3.9-0.1,5.8-0.1c1.4,5.3-1,6.9-5.9,6.1C25.3,81,25.4,79,25.4,77.1z"/>
	<path class="st11" d="M75.3,83.1c2,0,3.9,0,5.9,0c-0.2,2.6,2.1,6.8-3.6,6.1C73.3,88.6,75.9,85.1,75.3,83.1z"/>
	<path class="st9" d="M75.5,27.1c1.9,0,3.8-0.1,5.7-0.1c0,2,0,4.1,0,6.1c-2,0.1-3.9,0.1-5.9,0.2c0,0,0.1-0.3,0.1-0.3
		c-0.1-2-0.2-4-0.3-6L75.5,27.1z"/>
	<path class="st10" d="M75.3,33.2c2-0.1,3.9-0.1,5.9-0.2c1.4,5.2-0.9,7-5.9,6.2c0,0,0-0.2,0-0.2C75.3,37.1,75.3,35.2,75.3,33.2z"/>
	<path class="st10" d="M37.6,20.1c-0.1-1.7-0.1-3.4-0.2-5.1c3.5,0,7.6-0.9,6.3,5.1c0,0-0.3,0-0.4,0C41.4,20.1,39.5,20.1,37.6,20.1z"
		/>
	<path class="st1" d="M25.4,45.9c5.8,1.1,6.5-2.3,6-6.8c0,0,0,0,0,0c4.9,0.9,6.9-1.1,6-6l0,0c3.1-0.3,7.4,1.3,6.9-4.6
		c-0.1-1.7,1.8-1.5,3.1-1.5c3,0,5.9,0,8.9,0c0,0,0,0,0,0c-1,4.8,0.9,7,5.8,6.2c-0.4,4.5,1,7.1,6.1,5.9l0,0c0,4.1,0,8.1,6.1,6.7
		c0,2.1,0.1,4.1,0.1,6.2c-1.8,0.1-3.7,0.1-5.5,0.2c-2.1-0.2-4.3-0.3-6.4-0.5c0.6-4.9-1.2-7.3-6.4-6.5l0-0.1c0.2-6.2,0.2-5.9-8.6-6.1
		c-5.5-0.1-4.1,3.2-3.9,6.2c-0.2,0.2-0.4,0.4-0.5,0.6c-5.5-1.4-6.3,1.8-6,6.1c0,0,0,0,0,0c-2,0-3.9,0-5.9,0.1
		c-2.1,0-4.2-0.1-6.3-0.1C25.2,49.9,25.3,47.9,25.4,45.9z"/>
	<path class="st5" d="M31.2,71c-1.9,0-3.8,0-5.7,0.1c-0.1-2.3,0.1-4.6-0.2-6.8c-0.7-4.7,0.9-7.1,6-6.2c0,0,0.3,0.2,0.3,0.2
		c-0.1,2-0.1,4-0.2,6C31.3,66.4,31.2,68.7,31.2,71z"/>
	<path class="st12" d="M31.4,52.1c2,0,3.9,0,5.9-0.1c0.1,2.1,0.1,4.1,0.2,6.2c0,0,0-0.1,0-0.1c-2,0-4,0-6,0c0,0-0.3-0.2-0.3-0.2
		C31.3,56,31.3,54,31.4,52.1z"/>
	<path class="st11" d="M37.5,58.2c-0.1-2.1-0.1-4.1-0.2-6.2c0,0,0,0,0,0c5,0.9,7.1-1.1,6-6.1c0.1-0.3,0.3-0.5,0.5-0.6
		c4.2-0.1,8.3-0.1,12.5-0.2c0,0,0,0.1,0,0.1c0,2.3,0,4.6,0,7c-2.2-0.1-4.4,0.1-6.5-0.3c-5-0.8-6.6,1.4-5.9,6c-0.2,0-0.4,0-0.6,0.2
		C41.4,58.1,39.5,58.2,37.5,58.2z"/>
	<path class="st13" d="M43.9,57.9c-0.7-4.6,1-6.8,5.9-6c2.1,0.4,4.3,0.2,6.5,0.3c0,0,0-0.1,0-0.1c0.1,2,0.1,3.9,0.2,5.9
		c0,0-0.2,0.2-0.2,0.2C52.1,58.1,48,58,43.9,57.9z"/>
	<path class="st14" d="M43.3,70.1c-6.3,0-6.3,0-5.6-6.1c1.9,0,3.7,0.1,5.6,0.1C44.8,66.1,44.9,68.1,43.3,70.1z"/>
	<path class="st13" d="M56.4,64.1c-0.1-2-0.1-4-0.2-5.9c0,0,0.2-0.2,0.2-0.2c2,0,3.9,0.1,5.9,0.1l-0.1,0c0.1,2,0.2,4,0.4,6
		c0,0-0.4-0.1-0.4-0.1C60.3,64,58.4,64.1,56.4,64.1z"/>
	<path class="st13" d="M43.4,64.1c-1.9,0-3.7-0.1-5.6-0.1c0,0-0.3,0.1-0.3,0.1c0-2,0.1-3.9,0.1-5.9c0,0,0,0,0,0.1
		c2,0,3.9-0.1,5.9-0.1C43.4,60.1,43.4,62.1,43.4,64.1z"/>
	<path class="st14" d="M56.4,64.1c1.9,0,3.9-0.1,5.8-0.1c0,2,0.1,4,0.1,6c-1.9,0.1-3.9,0.1-5.8,0.2C56.5,68.2,56.5,66.1,56.4,64.1z"
		/>
	<path class="st1" d="M75.4,52.1c2,0,4,0,5.9,0c0,2-0.1,3.9-0.1,5.9c-2,0-4,0.1-6,0.1c0,0,0,0,0,0C75.3,56.1,75.3,54.1,75.4,52.1z"
		/>
	<path class="st11" d="M56.4,20.1c2,0,3.9,0,5.9,0c0,0,0.4,0,0.4,0c-0.1,2.3-0.2,4.6-0.3,7c-2,0-4,0-6,0c0,0,0,0,0,0
		C56.4,24.7,56.4,22.4,56.4,20.1z"/>
	<path class="st11" d="M37.4,26.6c0,2.2,0.1,4.4,0.1,6.5c0,0,0,0,0,0c-2,0-4.1-0.1-6.1-0.1l0.1,0.1c0-2,0-4,0-6l0,0
		C33.4,26.9,35.4,26.7,37.4,26.6z"/>
	<path class="st14" d="M37.4,26.6c-2,0.1-4,0.3-6,0.4c0-2,0-4,0-6c0,0-0.1-0.2-0.1-0.2c2,0.1,4.1,0.1,6.1,0.2c0,1.6,0.1,3.3,0.1,4.9
		C37.3,26.1,37.3,26.4,37.4,26.6z"/>
	<path class="st11" d="M37.5,25.9c0-1.6-0.1-3.3-0.1-4.9c0.1-0.3,0.1-0.6,0.2-0.9c1.9,0,3.9,0,5.8,0C43.4,26.6,43.4,26.6,37.5,25.9z
		"/>
	<path class="st10" d="M62.6,64c-0.1-2-0.2-4-0.4-6c2.1-0.1,4.2-0.2,6.4-0.3l0.1,0c-0.6,2.1,1.9,4.4-0.4,6.4
		C66.4,64.1,64.5,64.1,62.6,64z"/>
	<path class="st0" d="M75.4,52.1c0,2-0.1,4.1-0.1,6.1c-2.2-0.1-4.4-0.3-6.5-0.4c0,0-0.1,0-0.1,0c0.1-1.9,0.3-3.8,0.4-5.6
		c1.8-0.1,3.7-0.1,5.5-0.2C74.8,52,75.1,52,75.4,52.1z"/>
	<path class="st10" d="M37.5,58.1c0,2-0.1,3.9-0.1,5.9c-2,0-4,0.1-6,0.1c0.1-2,0.1-4,0.2-6C33.5,58.1,35.5,58.1,37.5,58.1z"/>
	<path class="st13" d="M31.4,21c0,2,0,4,0,6c0,0,0,0,0,0c-2,0-3.9,0-5.9-0.1c0,0-0.5,0-0.5,0c0.1-2,0.2-4,0.4-6
		C27.4,21,29.4,21,31.4,21z"/>
	<path class="st11" d="M75.3,33.2c0,1.9,0,3.9,0,5.8c-2.3,0-4.6,0-7,0c0,0,0,0,0,0c0-2,0-4.1,0-6.1c2.3,0,4.7,0,7-0.1L75.3,33.2z"/>
	<path class="st14" d="M62.4,27c0.1-2.3,0.2-4.6,0.3-7c2.2,0,4.4,0,6.6,0c0.2,0.2,0.3,0.4,0.4,0.6c-2,1.7-1.2,4-1.1,6.1
		c0,0-0.2,0.3-0.2,0.3C66.4,27,64.4,27,62.4,27C62.4,27,62.4,27,62.4,27z"/>
	<path class="st13" d="M68.6,26.8c-0.1-2.1-1-4.3,1.1-6.1c1.8-0.1,3.5-0.2,5.3-0.3c0.2,2.2,0.4,4.4,0.5,6.6c0,0-0.4-0.1-0.4-0.1
		C72.9,26.9,70.8,26.9,68.6,26.8z"/>
	<path class="st14" d="M25.5,27c2,0,3.9,0,5.9,0.1c0,2,0,4,0,6c-2,0-4,0.1-6.1,0.1c0,0,0.1-0.3,0.1-0.3C25.4,30.9,25.5,28.9,25.5,27
		z"/>
	<path class="st11" d="M25.3,33.2c2,0,4-0.1,6.1-0.1c0,0-0.1-0.1-0.1-0.1c0,2,0.1,4.1,0.1,6.1c0,0,0,0,0,0c-2,0-4-0.1-6-0.1
		C25.4,37.1,25.4,35.1,25.3,33.2z"/>
	<path class="st14" d="M68.6,26.8c2.2,0.1,4.4,0.1,6.6,0.2c0.1,2,0.2,4,0.3,6c-2.3,0-4.7,0-7,0.1l0.1,0.1c0-2-0.1-4-0.1-6L68.6,26.8
		z"/>
	<path class="st5" d="M56.3,45.1c-4.2,0.1-8.3,0.1-12.5,0.2c-0.2-3-1.6-6.3,3.9-6.2C56.5,39.1,56.5,38.9,56.3,45.1z"/>
	<path class="st12" d="M56.3,52.1c0-2.3,0-4.6,0-7c5.2-0.8,7,1.7,6.4,6.5c-0.1,0.1-0.2,0.3-0.4,0.4C60.3,52.1,58.3,52.1,56.3,52.1
		L56.3,52.1z"/>
	<path class="st12" d="M69,52.2c-0.1,1.9-0.3,3.8-0.4,5.6c-2.1,0.1-4.2,0.2-6.4,0.3c0,0,0.1,0,0.1,0c0-2,0-4-0.1-6
		c0.1-0.1,0.3-0.3,0.4-0.4C64.8,51.9,66.9,52,69,52.2z"/>
	<path class="st2" d="M56.4,27c2,0,4,0,6,0c0,0-0.1-0.1-0.1-0.1c0.1,1.9,0.1,3.9,0.2,5.8l-0.3,0.3C57.3,34,55.4,31.8,56.4,27z"/>
	<path class="st2" d="M31.5,39.1c0-2-0.1-4.1-0.1-6.1c2,0,4.1,0.1,6.1,0.1C38.4,38.1,36.4,40,31.5,39.1z"/>
	<path class="st2" d="M68.4,33c0,2,0,4.1,0,6.1c-5.1,1.2-6.5-1.4-6.1-5.9c0,0,0.3-0.3,0.3-0.3C64.5,32.9,66.5,33,68.4,33L68.4,33z"
		/>
	<path class="st12" d="M43.3,45.9c1.1,5.1-0.9,7-6,6.1C37,47.7,37.8,44.5,43.3,45.9z"/>
	<path class="st11" d="M62.3,52.1c0,2,0,4,0.1,6c-2,0-3.9-0.1-5.9-0.1c-0.1-2-0.1-3.9-0.2-5.9C58.3,52.1,60.3,52.1,62.3,52.1z"/>
	<path class="st11" d="M68.4,33c-2-0.1-3.9-0.1-5.9-0.2c-0.1-1.9-0.1-3.9-0.2-5.8c2,0,4,0,6,0.1C68.4,29.1,68.4,31,68.4,33z"/>
</g>
</svg>
